#N canvas 308 100 213 269 10;
#X obj 35 34 inlet;
#X obj 34 140 outlet;
#X obj 35 115 mod 71;
#X obj 128 35 inlet;
#X obj 67 77 + 1;
#X obj 35 77 int;
#X connect 0 0 5 0;
#X connect 2 0 1 0;
#X connect 3 0 2 1;
#X connect 4 0 5 1;
#X connect 5 0 4 0;
#X connect 5 0 2 0;
