#N canvas 123 235 783 633 10;
#X obj 202 207 phasor~;
#X obj 202 431 expr~ tanh($v1*$v2);
#X obj 202 405 cos~;
#X obj 202 383 *~ 0.5;
#X obj 202 360 -~ 0.5;
#X obj 55 300 *~;
#X obj 56 324 +~;
#X obj 187 456 *~;
#X obj 288 182 *;
#X obj 288 223 line~;
#X obj 289 247 samphold~;
#X obj 352 56 line;
#X obj 352 78 t f b;
#X obj 379 110 random 127;
#X obj 379 131 / 127;
#X obj 352 156 +;
#X obj 288 202 clip 0 1;
#X obj 257 133 /;
#X obj 257 82 t b f;
#X obj 314 405 sig~ 2;
#X obj 55 346 clip~ 0 1;
#X obj 257 34 r grainspeed;
#X obj 464 268 r grainspread;
#X obj 407 409 samphold~;
#X obj 408 311 noise~;
#X obj 407 433 *~ -1;
#X obj 408 380 *~;
#X obj 406 459 +~ 1;
#X obj 187 561 *~;
#X obj 407 336 lop~;
#X obj 106 324 r len;
#X obj 333 182 r len;
#X obj 303 147 r len;
#X obj 70 274 * 1;
#X obj 70 250 f;
#X obj 82 218 t b f;
#X obj 436 73 r grainscatter;
#X obj 352 33 r grainread;
#X obj 187 612 outlet~;
#X obj 82 190 r grainmultiply;
#X obj 314 384 r grainfade;
#X obj 464 310 * 20000;
#X obj 479 348 * -1;
#X obj 479 375 + 1;
#X obj 406 484 *~;
#X obj 203 523 *~;
#X obj 203 494 sig~ 1;
#X obj 53 13 r grainspeedspread;
#X msg 564 76 seed \$1;
#N canvas 142 199 879 504 seeder 0;
#X obj 371 100 adc~;
#X obj 318 213 +~;
#X obj 319 100 noise~;
#X obj 319 241 env~;
#X obj 318 142 *~;
#X obj 371 171 *~ 200;
#X obj 319 171 *~ 0.01;
#X obj 293 265 f;
#X obj 314 53 inlet;
#X obj 314 78 t b b b b;
#X obj 453 195 switch~;
#X msg 453 125 1;
#X obj 293 300 outlet;
#X msg 427 158 0;
#X connect 0 0 5 0;
#X connect 0 1 5 0;
#X connect 1 0 3 0;
#X connect 2 0 4 1;
#X connect 2 0 4 0;
#X connect 3 0 7 1;
#X connect 4 0 6 0;
#X connect 5 0 1 1;
#X connect 6 0 1 0;
#X connect 7 0 12 0;
#X connect 8 0 9 0;
#X connect 9 1 13 0;
#X connect 9 2 7 0;
#X connect 9 3 11 0;
#X connect 11 0 10 0;
#X connect 13 0 10 0;
#X restore 564 56 pd seeder;
#X obj 564 31 inlet;
#X obj 201 83 sig~;
#X obj 9 13 noise~;
#X obj 9 37 *~;
#X obj 9 60 samphold~;
#X obj 202 143 +~;
#X obj 10 84 delwrite~ \$0-grainblockdel;
#X obj 10 107 delread~ \$0-grainblockdel;
#N canvas 0 22 876 611 delayer 0;
#X obj 469 460 *~;
#X msg 505 400 \$1 2;
#X obj 469 132 line~ 120;
#X obj 469 248 +~;
#X obj 469 111 r feedbackpos;
#X obj 505 378 r feedbackamount;
#X obj 589 21 r feedbackjitter;
#X obj 431 60 inlet~;
#X obj 469 505 outlet~;
#X obj 470 354 vd~ \$0-graindelR 200;
#X obj 505 423 line~;
#X obj 571 104 noise~;
#X obj 571 127 *~;
#X obj 572 169 samphold~;
#X obj 430 309 delwrite~ \$0-graindelR 500;
#X obj 469 277 clip~ 0.02 500;
#N canvas 0 22 450 300 jitterphasor 0;
#X obj 99 164 phasor~ 7;
#X obj 99 66 random 127;
#X obj 99 115 + 0.5;
#X obj 99 92 / 12.7;
#X obj 99 42 metro 10000;
#X obj 99 20 loadbang;
#X obj 99 189 outlet~;
#X connect 0 0 6 0;
#X connect 1 0 3 0;
#X connect 2 0 0 0;
#X connect 3 0 2 0;
#X connect 4 0 1 0;
#X connect 5 0 4 0;
#X restore 623 146 pd jitterphasor;
#X obj 572 192 lop~ 5;
#X obj 589 47 sig~;
#X obj 589 68 lop~ 5;
#X obj 572 211 *~;
#X connect 0 0 8 0;
#X connect 0 0 14 0;
#X connect 1 0 10 0;
#X connect 2 0 3 0;
#X connect 3 0 15 0;
#X connect 4 0 2 0;
#X connect 5 0 1 0;
#X connect 6 0 18 0;
#X connect 7 0 14 0;
#X connect 9 0 0 0;
#X connect 10 0 0 1;
#X connect 11 0 12 0;
#X connect 11 0 12 1;
#X connect 12 0 13 0;
#X connect 13 0 17 0;
#X connect 15 0 9 0;
#X connect 16 0 13 1;
#X connect 17 0 20 0;
#X connect 18 0 19 0;
#X connect 19 0 20 1;
#X connect 20 0 3 1;
#X restore 219 586 pd delayer;
#X obj 55 373 tabread~ array0;
#X msg 257 104 44100;
#X connect 0 0 4 0;
#X connect 0 0 5 0;
#X connect 0 0 10 1;
#X connect 0 0 23 1;
#X connect 0 0 54 1;
#X connect 1 0 7 1;
#X connect 2 0 1 0;
#X connect 3 0 2 0;
#X connect 4 0 3 0;
#X connect 5 0 6 0;
#X connect 6 0 20 0;
#X connect 7 0 28 0;
#X connect 8 0 16 0;
#X connect 9 0 10 0;
#X connect 10 0 6 1;
#X connect 11 0 12 0;
#X connect 12 0 15 0;
#X connect 12 1 13 0;
#X connect 13 0 14 0;
#X connect 14 0 15 1;
#X connect 15 0 8 0;
#X connect 16 0 9 0;
#X connect 17 0 34 0;
#X connect 18 0 60 0;
#X connect 18 1 17 1;
#X connect 19 0 1 1;
#X connect 20 0 59 0;
#X connect 21 0 18 0;
#X connect 21 0 51 0;
#X connect 22 0 41 0;
#X connect 22 0 42 0;
#X connect 22 0 44 1;
#X connect 23 0 25 0;
#X connect 24 0 29 0;
#X connect 25 0 27 0;
#X connect 26 0 23 0;
#X connect 27 0 44 0;
#X connect 28 0 38 0;
#X connect 28 0 58 0;
#X connect 29 0 26 0;
#X connect 29 0 26 1;
#X connect 30 0 20 2;
#X connect 31 0 16 2;
#X connect 32 0 8 1;
#X connect 33 0 5 1;
#X connect 34 0 33 0;
#X connect 35 0 34 0;
#X connect 35 1 33 1;
#X connect 36 0 13 1;
#X connect 37 0 11 0;
#X connect 39 0 35 0;
#X connect 40 0 19 0;
#X connect 41 0 29 1;
#X connect 42 0 43 0;
#X connect 43 0 45 1;
#X connect 44 0 28 1;
#X connect 45 0 28 1;
#X connect 46 0 45 0;
#X connect 47 0 53 1;
#X connect 48 0 13 0;
#X connect 49 0 48 0;
#X connect 50 0 49 0;
#X connect 51 0 55 0;
#X connect 52 0 53 0;
#X connect 53 0 54 0;
#X connect 54 0 56 0;
#X connect 55 0 0 0;
#X connect 57 0 55 1;
#X connect 58 0 38 0;
#X connect 59 0 7 0;
#X connect 60 0 17 0;
