#N canvas 1031 236 1221 781 10;
#X obj 958 563 outlet~;
#X obj 903 64 r seed;
#X obj 903 87 sel 0 1 2 3 4 5 6 7 8 9 10;
#N canvas 0 22 450 300 seedgen 0;
#X obj 101 184 s seed;
#N canvas 0 22 450 300 counter 0;
#X obj 121 147 f;
#X obj 177 147 + 1;
#X obj 184 194 moses 11;
#X msg 228 225 0;
#X obj 122 94 inlet;
#X obj 122 250 outlet;
#X obj 270 226 outlet;
#X connect 0 0 1 0;
#X connect 0 0 5 0;
#X connect 1 0 2 0;
#X connect 2 0 0 1;
#X connect 2 1 3 0;
#X connect 3 0 0 1;
#X connect 3 0 6 0;
#X connect 4 0 0 0;
#X restore 101 162 pd counter;
#X obj 101 122 del 30;
#X obj 149 122 spigot;
#X obj 101 76 t b b;
#X msg 152 99 1;
#X obj 101 57 bng 15 250 50 0 empty empty empty 17 7 0 10 -262144 -1
-1;
#X obj 101 34 loadbang;
#X connect 1 0 0 0;
#X connect 1 1 3 1;
#X connect 2 0 1 0;
#X connect 2 0 3 0;
#X connect 3 0 2 0;
#X connect 4 0 2 0;
#X connect 4 1 5 0;
#X connect 5 0 3 1;
#X connect 6 0 4 0;
#X connect 7 0 6 0;
#X restore 903 47 pd seedgen;
#X obj 958 532 *~ 0.2;
#X obj 903 122 GRAINREAD_Five;
#X obj 903 148 throw~ out5;
#X obj 902 203 throw~ out5;
#X obj 814 254 throw~ out5;
#X obj 824 264 throw~ out5;
#X obj 903 308 throw~ out5;
#X obj 898 355 throw~ out5;
#X obj 1027 166 throw~ out5;
#X obj 1026 221 throw~ out5;
#X obj 1024 269 throw~ out5;
#X obj 1059 334 throw~ out5;
#X obj 1047 402 throw~ out5;
#X obj 903 173 GRAINREAD_Five;
#X obj 901 229 GRAINREAD_Five;
#X obj 911 239 GRAINREAD_Five;
#X obj 904 278 GRAINREAD_Five;
#X obj 903 332 GRAINREAD_Five;
#X obj 1027 140 GRAINREAD_Five;
#X obj 1027 191 GRAINREAD_Five;
#X obj 1025 247 GRAINREAD_Five;
#X obj 1061 308 GRAINREAD_Five;
#X obj 1048 372 GRAINREAD_Five;
#X obj 958 497 catch~ out5;
#X connect 1 0 2 0;
#X connect 2 0 5 0;
#X connect 2 1 17 0;
#X connect 2 2 18 0;
#X connect 2 3 19 0;
#X connect 2 4 20 0;
#X connect 2 5 21 0;
#X connect 2 6 22 0;
#X connect 2 7 23 0;
#X connect 2 8 24 0;
#X connect 2 9 25 0;
#X connect 2 10 26 0;
#X connect 4 0 0 0;
#X connect 5 0 6 0;
#X connect 17 0 7 0;
#X connect 18 0 8 0;
#X connect 19 0 9 0;
#X connect 20 0 10 0;
#X connect 21 0 11 0;
#X connect 22 0 12 0;
#X connect 23 0 13 0;
#X connect 24 0 14 0;
#X connect 25 0 15 0;
#X connect 26 0 16 0;
#X connect 27 0 4 0;
