#N canvas 87 185 697 555 10;
#X obj 38 408 outlet~;
#X obj 38 250 phasor~;
#X obj 230 52 inlet;
#X obj 37 290 *~;
#X text 46 266 position (in % - 0 to 1);
#X obj 38 223 *;
#X obj 230 170 t b f;
#X obj 230 222 -;
#X obj 38 382 tabread4~ array0;
#X obj 43 24 r audioLength0;
#X floatatom 230 256 20 0 0 0 - - -;
#X floatatom 258 96 20 0 0 0 - - -;
#X floatatom 445 151 20 0 0 0 - - -;
#X obj 230 196 f;
#X obj 230 77 * 44.1;
#X obj 423 104 * 44.1;
#X text 229 143 start point (in samples);
#X obj 37 355 +~;
#X floatatom 119 91 20 0 0 0 - - -;
#X obj 84 121 *;
#X floatatom 38 183 20 0 0 0 - - -;
#X obj 99 64 expr 44.1/($f1);
#X text 77 354 + number of samples to arrive at start point;
#X text 160 276 duration = length of section ^^^ (this number);
#X text 58 235 phasor set to normal speed for the duration to play
;
#X text 56 314 set length of sample to this duration ^^^^;
#X obj 423 79 + 1500;
#X text 462 78 <- find the right value for this;
#X connect 1 0 3 0;
#X connect 2 0 14 0;
#X connect 2 0 26 0;
#X connect 3 0 17 0;
#X connect 5 0 1 0;
#X connect 6 0 13 0;
#X connect 6 1 7 1;
#X connect 7 0 10 0;
#X connect 7 0 19 0;
#X connect 8 0 0 0;
#X connect 9 0 3 1;
#X connect 9 0 21 0;
#X connect 13 0 7 0;
#X connect 14 0 11 0;
#X connect 14 0 17 1;
#X connect 14 0 6 0;
#X connect 15 0 12 0;
#X connect 15 0 13 1;
#X connect 17 0 8 0;
#X connect 19 0 20 0;
#X connect 20 0 5 0;
#X connect 21 0 18 0;
#X connect 21 0 19 1;
#X connect 26 0 15 0;
