#N canvas 431 88 818 649 10;
#X obj 63 24 inlet;
#X obj 420 507 outlet~;
#X obj 208 357 tgl 15 0 empty empty empty 17 7 0 10 -262144 -1 -1 1
1;
#X obj 420 481 *~;
#X floatatom 174 38 5 0 0 0 TEST_VALUES - -;
#X obj 546 506 outlet~;
#X obj 546 480 *~;
#N canvas 374 252 301 220 volumeSettings 0;
#X obj 32 126 outlet;
#X obj 140 123 outlet;
#X obj 12 29 loadbang;
#X msg 111 77 1;
#X msg 32 80 1.15;
#X obj 31 49 r 5volume136;
#X obj 111 49 r 5volume126;
#X msg 140 77 0.9;
#X msg 67 81 1.03;
#X connect 2 0 4 0;
#X connect 2 0 8 0;
#X connect 3 0 0 0;
#X connect 4 0 0 0;
#X connect 5 0 4 0;
#X connect 6 0 3 0;
#X connect 6 0 7 0;
#X connect 7 0 1 0;
#X connect 8 0 1 0;
#X restore 435 448 pd volumeSettings;
#X obj 63 62 moses 5;
#X obj 102 90 moses 34;
#X msg 102 132 1;
#X msg 232 129 0;
#X obj 232 156 change;
#X obj 232 228 metro 60;
#X obj 232 183 sel 0;
#X obj 232 207 tgl 15 0 empty empty empty 17 7 0 10 -262144 -1 -1 1
1;
#X obj 208 284 select 70;
#X obj 208 311 delay 100;
#X obj 102 349 spigot 1;
#X obj 283 284 select 0;
#X msg 283 311 0;
#X msg 147 312 1;
#X obj 232 254 counter 0 0 70;
#X obj 102 182 speedlim 2000;
#X obj 102 217 t 1 b;
#X obj 20 133 s location5;
#X obj 381 389 spigot~;
#X obj 507 387 spigot~;
#X msg 626 288 1;
#X obj 626 264 loadbang;
#X msg 509 78 \$1 20;
#N canvas 216 231 533 512 graingen 0;
#X obj 51 31 r seed;
#X obj 51 54 sel 0 1 2 3 4 5 6 7 8 9 10;
#N canvas 0 28 450 300 seedgen 0;
#X obj 101 184 s seed;
#N canvas 0 22 450 300 counter 0;
#X obj 121 147 f;
#X obj 177 147 + 1;
#X obj 184 194 moses 11;
#X msg 228 225 0;
#X obj 122 94 inlet;
#X obj 122 250 outlet;
#X obj 270 226 outlet;
#X connect 0 0 1 0;
#X connect 0 0 5 0;
#X connect 1 0 2 0;
#X connect 2 0 0 1;
#X connect 2 1 3 0;
#X connect 3 0 0 1;
#X connect 3 0 6 0;
#X connect 4 0 0 0;
#X restore 101 162 pd counter;
#X obj 101 122 del 30;
#X obj 149 122 spigot;
#X obj 101 76 t b b;
#X msg 152 99 1;
#X obj 101 57 bng 15 250 50 0 empty empty empty 17 7 0 10 -262144 -1
-1;
#X obj 101 34 loadbang;
#X connect 1 0 0 0;
#X connect 1 1 3 1;
#X connect 2 0 1 0;
#X connect 2 0 3 0;
#X connect 3 0 2 0;
#X connect 4 0 2 0;
#X connect 4 1 5 0;
#X connect 5 0 3 1;
#X connect 6 0 4 0;
#X connect 7 0 6 0;
#X restore 51 14 pd seedgen;
#X obj 31 118 throw~ outFiveL;
#X obj 131 118 throw~ outFiveR;
#X obj 30 167 throw~ outFiveL;
#X obj 130 167 throw~ outFiveR;
#X obj 30 217 throw~ outFiveL;
#X obj 130 217 throw~ outFiveR;
#X obj 29 266 throw~ outFiveL;
#X obj 129 266 throw~ outFiveR;
#X obj 25 318 throw~ outFiveL;
#X obj 125 318 throw~ outFiveR;
#X obj 232 117 throw~ outFiveL;
#X obj 332 117 throw~ outFiveR;
#X obj 231 166 throw~ outFiveL;
#X obj 331 166 throw~ outFiveR;
#X obj 231 216 throw~ outFiveL;
#X obj 331 216 throw~ outFiveR;
#X obj 230 265 throw~ outFiveL;
#X obj 330 265 throw~ outFiveR;
#X obj 226 317 throw~ outFiveL;
#X obj 326 317 throw~ outFiveR;
#X obj 50 91 GRAINREAD_Five;
#X obj 49 190 GRAINREAD_Five;
#X obj 49 140 GRAINREAD_Five;
#X obj 48 239 GRAINREAD_Five;
#X obj 44 291 GRAINREAD_Five;
#X obj 251 90 GRAINREAD_Five;
#X obj 250 139 GRAINREAD_Five;
#X obj 250 189 GRAINREAD_Five;
#X obj 249 238 GRAINREAD_Five;
#X obj 245 290 GRAINREAD_Five;
#X connect 0 0 1 0;
#X connect 1 0 23 0;
#X connect 1 1 25 0;
#X connect 1 2 24 0;
#X connect 1 3 26 0;
#X connect 1 4 27 0;
#X connect 1 5 28 0;
#X connect 1 6 29 0;
#X connect 1 7 30 0;
#X connect 1 8 31 0;
#X connect 1 9 32 0;
#X connect 23 0 3 0;
#X connect 23 1 4 0;
#X connect 24 0 7 0;
#X connect 24 1 8 0;
#X connect 25 0 5 0;
#X connect 25 1 6 0;
#X connect 26 0 9 0;
#X connect 26 1 10 0;
#X connect 27 0 11 0;
#X connect 27 1 12 0;
#X connect 28 0 13 0;
#X connect 28 1 14 0;
#X connect 29 0 15 0;
#X connect 29 1 16 0;
#X connect 30 0 17 0;
#X connect 30 1 18 0;
#X connect 31 0 19 0;
#X connect 31 1 20 0;
#X connect 32 0 21 0;
#X connect 32 1 22 0;
#X restore 509 129 pd graingen;
#X obj 509 51 / 34;
#X obj 509 23 receive location5;
#N canvas 519 229 1024 225 regularSettings5 0;
#X msg 21 100 28;
#X msg 326 101 1;
#X obj 21 41 inlet;
#X obj 125 129 s grainfade5;
#X obj 204 129 s grainspeedspread5;
#X obj 326 129 s grainspeed5;
#X obj 411 129 s grainspread5;
#X obj 888 118 s feedbackjitter5;
#X obj 782 119 s feedbackpos5;
#X obj 665 122 s feedbackamount5;
#X floatatom 665 44 5 0 0 0 - - -;
#X floatatom 782 43 5 0 0 0 - - -;
#X floatatom 888 42 5 0 0 0 - - -;
#X msg 125 100 1;
#X floatatom 244 38 5 0 0 0 - - -;
#X floatatom 437 41 5 0 0 0 - - -;
#X floatatom 170 38 5 0 0 0 - - -;
#X floatatom 79 40 5 0 0 0 - - -;
#X text 656 21 0-1;
#X text 784 23 0-500;
#X text 890 26 0-200;
#X obj 691 75 * 0.1;
#X floatatom 666 98 5 0 0 0 - - -;
#X msg 738 10 0;
#X floatatom 330 54 5 0 0 0 - - -;
#X obj 21 129 s grainscatter5;
#X msg 204 100 1;
#X msg 411 101 2;
#X obj 533 132 s grainmultiply5;
#X floatatom 563 32 5 0 0 0 - - -;
#X obj 574 79 * 0.1;
#X obj 504 -8 r location5;
#X msg 522 99 1;
#X msg 795 92 121;
#X msg 901 88 272;
#X connect 0 0 25 0;
#X connect 1 0 5 0;
#X connect 2 0 0 0;
#X connect 2 0 13 0;
#X connect 2 0 26 0;
#X connect 2 0 1 0;
#X connect 2 0 27 0;
#X connect 2 0 32 0;
#X connect 2 0 33 0;
#X connect 2 0 34 0;
#X connect 10 0 21 0;
#X connect 11 0 8 0;
#X connect 12 0 7 0;
#X connect 13 0 3 0;
#X connect 14 0 4 0;
#X connect 15 0 6 0;
#X connect 16 0 3 0;
#X connect 17 0 25 0;
#X connect 21 0 22 0;
#X connect 22 0 9 0;
#X connect 23 0 10 0;
#X connect 23 0 11 0;
#X connect 23 0 12 0;
#X connect 24 0 5 0;
#X connect 26 0 4 0;
#X connect 27 0 6 0;
#X connect 29 0 30 0;
#X connect 30 0 28 0;
#X connect 32 0 28 0;
#X connect 33 0 8 0;
#X connect 34 0 7 0;
#X restore 626 56 pd regularSettings5;
#X obj 509 104 s grainread5;
#X obj 626 317 s grainmultiply5;
#X obj 381 265 catch~ outFiveL;
#X obj 507 265 catch~ outFiveR;
#X obj 381 346 hip~ 30;
#X obj 507 344 hip~ 30;
#X obj 626 24 loadbang;
#N canvas 0 34 1248 886 loadSamples 0;
#X msg 233 136 read -resize audio/crickets.aif array5;
#X msg 265 156 read -resize audio/hammer.aif array5;
#X msg 294 178 read -resize audio/piano_hammer.aif array5;
#X msg 353 200 read -resize audio/water3.aif array5;
#X msg 398 226 read -resize audio/glass_breaking.aif array5;
#X msg 424 250 read -resize audio/rhythmicdrips.WAV array5;
#X msg 477 283 read -resize audio/bridgesound1.aif array5;
#X msg 560 355 read -resize audio/facwhistle+mock.aif array5;
#X msg 489 325 read -resize audio/buttonholer.aif array5;
#X msg 563 385 read -resize audio/metalhinge1.aif array5;
#X msg 747 144 read -resize audio/boatreverse.aif array5;
#X msg 795 178 read -resize audio/sign+bell.aif array5;
#X msg 855 236 read -resize audio/churchbells.aif array5;
#X msg 891 266 read -resize audio/geese+gulls.aif array5;
#X msg 1238 297 read -resize audio/elevator.aif array5;
#X msg 1340 411 read -resize audio/pno_pluck.aif array5;
#X obj 1082 586 soundfiler;
#X obj 1083 686 table array5;
#X msg 827 203 read -resize ./audio/heliocopter.aif array5;
#X msg 1182 257 read -resize audio/foghorn2.aiff array5;
#X msg 1311 362 read -resize audio/wavebangbuf2.aif array5;
#X obj 1083 642 s len5;
#X obj 850 11 inlet;
#X obj 159 786 send grainscatter5;
#X obj 353 787 send grainfade5;
#X obj 578 783 send grainspread5;
#X obj 1169 65 select 23 24 25 26 27 28 29 30 31 32;
#X obj 654 46 select 1 2 3 4 5 6 7 8 9 10 11 12 13 14 15 16 17 18 19
20 21 22;
#X msg 1291 327 read -resize audio/drillingbursts.wav array5;
#X msg 121 727 28;
#X msg 160 729 39;
#X msg 200 728 73;
#X msg 241 729 11;
#X msg 307 730 1;
#X msg 336 729 9;
#X msg 374 730 14;
#X msg 408 730 3;
#X msg 446 730 35;
#X msg 481 731 28;
#X msg 557 730 2;
#X msg 603 730 3;
#X msg 634 730 4;
#X msg 668 730 5;
#X obj 766 810 send feedbackamount5;
#X msg 740 729 0;
#X msg 777 729 1;
#X msg 824 731 2;
#X msg 864 729 4;
#X obj 798 774 * 0.1;
#X msg 278 730 18;
#X connect 0 0 16 0;
#X connect 0 0 29 0;
#X connect 0 0 33 0;
#X connect 0 0 39 0;
#X connect 0 0 46 0;
#X connect 1 0 16 0;
#X connect 1 0 29 0;
#X connect 1 0 34 0;
#X connect 1 0 39 0;
#X connect 1 0 46 0;
#X connect 2 0 16 0;
#X connect 2 0 30 0;
#X connect 2 0 34 0;
#X connect 2 0 39 0;
#X connect 2 0 46 0;
#X connect 3 0 16 0;
#X connect 3 0 34 0;
#X connect 3 0 49 0;
#X connect 3 0 39 0;
#X connect 3 0 46 0;
#X connect 4 0 16 0;
#X connect 4 0 30 0;
#X connect 4 0 34 0;
#X connect 4 0 39 0;
#X connect 4 0 46 0;
#X connect 5 0 16 0;
#X connect 5 0 29 0;
#X connect 5 0 33 0;
#X connect 5 0 39 0;
#X connect 5 0 46 0;
#X connect 6 0 16 0;
#X connect 6 0 30 0;
#X connect 6 0 34 0;
#X connect 6 0 39 0;
#X connect 6 0 45 0;
#X connect 7 0 16 0;
#X connect 7 0 30 0;
#X connect 7 0 34 0;
#X connect 7 0 39 0;
#X connect 7 0 46 0;
#X connect 8 0 16 0;
#X connect 8 0 31 0;
#X connect 8 0 34 0;
#X connect 8 0 41 0;
#X connect 8 0 44 0;
#X connect 9 0 16 0;
#X connect 9 0 30 0;
#X connect 9 0 34 0;
#X connect 9 0 39 0;
#X connect 9 0 45 0;
#X connect 10 0 16 0;
#X connect 10 0 30 0;
#X connect 10 0 35 0;
#X connect 10 0 41 0;
#X connect 10 0 44 0;
#X connect 11 0 16 0;
#X connect 11 0 31 0;
#X connect 11 0 36 0;
#X connect 11 0 39 0;
#X connect 11 0 46 0;
#X connect 12 0 16 0;
#X connect 12 0 32 0;
#X connect 12 0 37 0;
#X connect 12 0 42 0;
#X connect 12 0 45 0;
#X connect 13 0 16 0;
#X connect 13 0 30 0;
#X connect 13 0 38 0;
#X connect 13 0 39 0;
#X connect 13 0 46 0;
#X connect 14 0 16 0;
#X connect 14 0 29 0;
#X connect 14 0 35 0;
#X connect 14 0 40 0;
#X connect 14 0 47 0;
#X connect 15 0 16 0;
#X connect 15 0 29 0;
#X connect 15 0 39 0;
#X connect 15 0 44 0;
#X connect 15 0 33 0;
#X connect 16 0 21 0;
#X connect 18 0 16 0;
#X connect 18 0 31 0;
#X connect 18 0 34 0;
#X connect 18 0 41 0;
#X connect 18 0 46 0;
#X connect 19 0 16 0;
#X connect 19 0 30 0;
#X connect 19 0 34 0;
#X connect 19 0 39 0;
#X connect 19 0 47 0;
#X connect 20 0 16 0;
#X connect 20 0 29 0;
#X connect 20 0 33 0;
#X connect 20 0 39 0;
#X connect 20 0 44 0;
#X connect 22 0 27 0;
#X connect 22 0 26 0;
#X connect 26 0 19 0;
#X connect 26 1 6 0;
#X connect 26 2 13 0;
#X connect 26 3 14 0;
#X connect 26 6 28 0;
#X connect 26 7 20 0;
#X connect 26 8 15 0;
#X connect 26 9 13 0;
#X connect 27 0 0 0;
#X connect 27 1 1 0;
#X connect 27 2 2 0;
#X connect 27 3 3 0;
#X connect 27 4 4 0;
#X connect 27 5 7 0;
#X connect 27 6 5 0;
#X connect 27 7 0 0;
#X connect 27 8 6 0;
#X connect 27 9 7 0;
#X connect 27 10 8 0;
#X connect 27 11 5 0;
#X connect 27 12 4 0;
#X connect 27 13 9 0;
#X connect 27 14 2 0;
#X connect 27 15 10 0;
#X connect 27 16 11 0;
#X connect 27 17 18 0;
#X connect 27 18 12 0;
#X connect 27 19 18 0;
#X connect 27 20 13 0;
#X connect 27 21 15 0;
#X connect 28 0 16 0;
#X connect 28 0 29 0;
#X connect 28 0 39 0;
#X connect 28 0 46 0;
#X connect 29 0 23 0;
#X connect 30 0 23 0;
#X connect 31 0 23 0;
#X connect 32 0 23 0;
#X connect 33 0 24 0;
#X connect 34 0 24 0;
#X connect 35 0 24 0;
#X connect 36 0 24 0;
#X connect 37 0 24 0;
#X connect 38 0 24 0;
#X connect 39 0 25 0;
#X connect 40 0 25 0;
#X connect 41 0 25 0;
#X connect 42 0 25 0;
#X connect 44 0 48 0;
#X connect 45 0 48 0;
#X connect 46 0 48 0;
#X connect 47 0 48 0;
#X connect 48 0 43 0;
#X connect 49 0 23 0;
#X restore 387 50 pd loadSamples;
#X obj 387 24 receive settingNum;
#X obj 381 292 *~ 0.5;
#X obj 507 291 *~ 0.5;
#X text 639 36;
#X text 558 388;
#X connect 0 0 8 0;
#X connect 2 0 26 1;
#X connect 2 0 27 1;
#X connect 3 0 1 0;
#X connect 4 0 8 0;
#X connect 6 0 5 0;
#X connect 7 0 3 1;
#X connect 7 1 6 1;
#X connect 8 1 9 0;
#X connect 9 0 10 0;
#X connect 9 0 25 0;
#X connect 9 1 11 0;
#X connect 10 0 23 0;
#X connect 10 0 2 0;
#X connect 11 0 12 0;
#X connect 12 0 14 0;
#X connect 13 0 22 0;
#X connect 14 0 15 0;
#X connect 15 0 13 0;
#X connect 16 0 15 0;
#X connect 16 0 17 0;
#X connect 16 0 21 0;
#X connect 17 0 2 0;
#X connect 18 0 15 0;
#X connect 19 0 20 0;
#X connect 20 0 18 1;
#X connect 21 0 18 1;
#X connect 22 0 16 0;
#X connect 22 0 19 0;
#X connect 23 0 24 0;
#X connect 24 0 18 0;
#X connect 24 1 22 2;
#X connect 26 1 3 0;
#X connect 27 1 6 0;
#X connect 28 0 36 0;
#X connect 29 0 28 0;
#X connect 30 0 35 0;
#X connect 32 0 30 0;
#X connect 33 0 32 0;
#X connect 37 0 44 0;
#X connect 38 0 45 0;
#X connect 39 0 26 0;
#X connect 40 0 27 0;
#X connect 41 0 34 0;
#X connect 43 0 42 0;
#X connect 44 0 39 0;
#X connect 45 0 40 0;
