#N canvas 535 356 647 408 10;
#X obj 63 24 inlet;
#X obj 351 324 outlet~;
#X obj 327 181 tgl 15 0 empty empty empty 17 7 0 10 -262144 -1 -1 0
1;
#X obj 351 298 *~;
#X floatatom 180 23 5 0 0 0 TEST_VALUES - -;
#X obj 450 323 outlet~;
#X obj 450 297 *~;
#N canvas 374 252 301 220 volumeSettings 0;
#X obj 32 126 outlet;
#X obj 140 123 outlet;
#X obj 12 29 loadbang;
#X msg 111 77 1;
#X msg 32 80 1.15;
#X obj 31 49 r 5volume136;
#X obj 111 49 r 5volume126;
#X msg 140 77 0.9;
#X msg 67 81 1.03;
#X connect 2 0 4 0;
#X connect 2 0 8 0;
#X connect 3 0 0 0;
#X connect 4 0 0 0;
#X connect 5 0 4 0;
#X connect 6 0 3 0;
#X connect 6 0 7 0;
#X connect 7 0 1 0;
#X connect 8 0 1 0;
#X restore 366 232 pd volumeSettings;
#X obj 63 62 moses 5;
#X obj 102 90 moses 34;
#X msg 102 132 1;
#X msg 232 129 0;
#X obj 232 156 change;
#X obj 232 228 metro 60;
#X obj 232 183 sel 0;
#X obj 232 207 tgl 15 0 empty empty empty 17 7 0 10 -262144 -1 -1 0
1;
#X obj 208 284 select 70;
#X obj 208 311 delay 100;
#X obj 102 349 spigot 1;
#X obj 283 284 select 0;
#X msg 283 311 0;
#X msg 147 312 1;
#X obj 232 254 counter 0 0 70;
#X obj 102 182 speedlim 2000;
#X obj 102 217 t 1 b;
#X obj 20 133 s location5;
#X obj 472 115 prepend location5;
#X obj 351 43 r settingNum;
#X obj 351 114 prepend settingNum;
#X obj 472 92 r location5;
#X msg 584 114 pd~ stop;
#X obj 312 206 spigot~;
#X obj 438 15 loadbang;
#X obj 351 90 float;
#X obj 438 43 t b b;
#X obj 398 70 del 2000;
#X obj 572 222 spigot~;
#X obj 472 145 pd~ -ninsig 0 -noutsig 2;
#X text 522 190 TODO: fix right outlet;
#X msg 465 68 pd~ start -nogui grain5.pd;
#X connect 0 0 8 0;
#X connect 2 0 31 1;
#X connect 2 0 36 1;
#X connect 3 0 1 0;
#X connect 4 0 8 0;
#X connect 6 0 5 0;
#X connect 7 0 3 1;
#X connect 7 1 6 1;
#X connect 8 1 9 0;
#X connect 9 0 10 0;
#X connect 9 0 25 0;
#X connect 9 1 11 0;
#X connect 10 0 23 0;
#X connect 10 0 2 0;
#X connect 11 0 12 0;
#X connect 12 0 14 0;
#X connect 13 0 22 0;
#X connect 14 0 15 0;
#X connect 15 0 13 0;
#X connect 16 0 15 0;
#X connect 16 0 17 0;
#X connect 16 0 21 0;
#X connect 17 0 2 0;
#X connect 18 0 15 0;
#X connect 19 0 20 0;
#X connect 20 0 18 1;
#X connect 21 0 18 1;
#X connect 22 0 16 0;
#X connect 22 0 19 0;
#X connect 23 0 24 0;
#X connect 24 0 18 0;
#X connect 24 1 22 2;
#X connect 26 0 37 0;
#X connect 27 0 33 0;
#X connect 28 0 37 0;
#X connect 29 0 26 0;
#X connect 30 0 37 0;
#X connect 31 1 3 0;
#X connect 32 0 34 0;
#X connect 33 0 28 0;
#X connect 34 0 35 0;
#X connect 34 1 39 0;
#X connect 35 0 33 0;
#X connect 36 1 6 0;
#X connect 37 1 31 0;
#X connect 37 2 36 0;
#X connect 39 0 37 0;
