#N canvas 468 79 734 585 10;
#X obj 27 20 inlet;
#X obj 391 506 outlet~;
#X obj 27 72 clip 6 33;
#X obj 27 153 s locationD;
#X obj 406 295 tgl 15 0 empty empty empty 17 7 0 10 -262144 -1 -1 0
1;
#X obj 391 392 *~;
#X obj 391 320 *~;
#X floatatom 239 41 5 0 0 0 TEST_VALUES - -;
#X obj 447 505 outlet~;
#X obj 447 392 *~;
#N canvas 88 189 345 435 delay 0;
#X obj 47 187 *~;
#X obj 135 187 *~;
#X obj 214 155 * 25;
#X msg 214 185 \$1 500;
#X obj 47 25 inlet~;
#X obj 47 319 outlet~;
#X msg 62 82 0;
#X msg 92 104 1;
#X obj 47 217 delwrite~ tapZero 1000;
#X obj 62 57 r 0tapoff;
#X obj 92 82 r 0tapon;
#X obj 214 50 r locationD;
#X obj 47 280 vd~ tapZero 800;
#X obj 214 215 line~ 200;
#X obj 150 154 *~ 0.01;
#X connect 0 0 8 0;
#X connect 1 0 8 0;
#X connect 2 0 3 0;
#X connect 3 0 13 0;
#X connect 4 0 0 0;
#X connect 6 0 0 1;
#X connect 7 0 0 1;
#X connect 9 0 6 0;
#X connect 10 0 7 0;
#X connect 11 0 2 0;
#X connect 11 0 14 0;
#X connect 12 0 1 0;
#X connect 12 0 5 0;
#X connect 13 0 12 0;
#X connect 14 0 1 1;
#X restore 447 356 pd delay;
#N canvas 65 97 450 300 volumeSettings 0;
#X obj 12 19 loadbang;
#X obj 32 201 outlet;
#X obj 31 39 r 0volume110;
#X obj 113 39 r 0volume100;
#X obj 195 39 r 0volume88;
#X obj 275 40 r 0volume75;
#X msg 113 67 0.8;
#X msg 32 70 0.9;
#X msg 195 67 0.7;
#X msg 275 67 0.6;
#X connect 0 0 7 0;
#X connect 2 0 7 0;
#X connect 3 0 6 0;
#X connect 4 0 8 0;
#X connect 5 0 9 0;
#X connect 6 0 1 0;
#X connect 7 0 1 0;
#X connect 8 0 1 0;
#X connect 9 0 1 0;
#X restore 514 355 pd volumeSettings;
#X obj 148 208 moses 5;
#X obj 492 203 r~ playfillD;
#X obj 492 288 s~ playoralout;
#X obj 492 253 *~ 0.9;
#X obj 187 244 moses 34;
#X msg 168 267 1;
#X msg 267 268 0;
#X obj 267 295 change;
#X obj 267 367 metro 60;
#X obj 267 322 sel 0;
#X obj 267 346 tgl 15 0 empty empty empty 17 7 0 10 -262144 -1 -1 0
1;
#X obj 243 424 select 70;
#X obj 243 451 delay 100;
#X obj 167 489 spigot 1;
#X obj 318 424 select 0;
#X msg 318 451 0;
#X msg 212 451 1;
#X obj 267 393 counter 0 0 70;
#X obj 168 295 speedlim 2000;
#X obj 168 324 t 1 b;
#X obj 27 102 speedlim 200;
#X obj 27 127 change;
#N canvas 235 226 1024 673 grooveD 0;
#X obj 31 351 outlet~;
#X obj 452 363 outlet~;
#N canvas 0 23 1280 751 play_pause_loop_MS 0;
#X obj 215 415 phasor~;
#X msg 369 83 0;
#X obj 215 449 *~;
#X obj 215 573 *~;
#X obj 230 503 vsl 30 60 0 1 0 0 empty empty empty 0 -9 0 10 -262144
-1 -1 2950 1;
#X text 419 77 pause;
#X obj 324 461 loadbang;
#X msg 324 484 0.5;
#X obj 215 603 outlet~;
#X obj 369 58 moses 11;
#X obj 369 16 r locationD;
#X obj 215 191 sig~;
#X obj 215 73 r audioLength0;
#X obj 215 479 tabread~ array0;
#X obj 414 98 moses 21;
#X msg 571 138 1;
#X obj 215 126 expr 44100/$f1;
#X obj 215 161 float;
#X msg 422 128 0;
#X obj 256 161 t b;
#X text 147 59 HOLD (for groove0);
#N canvas 470 90 1280 751 hold 0;
#X text -9572 -33 Voice Granulator by davidjgurney;
#X obj -9469 349 phasor~;
#X obj -9469 431 +~;
#X obj -9395 253 hsl 128 15 0 1 0 0 empty empty Time -2 -8 0 10 -262144
-1 -1 0 1;
#X obj -9398 305 *;
#X obj -9140 259 random 2;
#X obj -9140 286 sel 0 1;
#X obj -9089 333 +;
#X obj -9060 333 -;
#X obj -9085 201 tgl 15 0 empty empty empty 17 7 0 10 -262144 -1 -1
0 1;
#X obj -9398 331 +;
#X obj -9263 276 t b f;
#X obj -9398 352 vline~;
#X obj -9398 395 samphold~;
#X obj -9398 371 lop~ 0.1;
#X obj -9469 306 vline~;
#X obj -9469 328 lop~ 0.1;
#X obj -9448 65 vsl 15 128 0.1 10 1 1 empty empty Time 0 -9 0 10 -191407
-1 -1 12700 1;
#X floatatom -9427 175 5 0 0 0 - - -;
#X obj -9507 65 vsl 15 128 0.1 10 1 1 empty empty Pitch 0 -9 0 10 -191407
-1 -1 12700 1;
#X floatatom -9486 175 5 0 0 0 - - -;
#X text -9492 32 Smoothing;
#X obj -9089 306 random 500;
#X obj -9388 65 vsl 15 128 30 800 0 1 empty empty Width 0 -9 0 10 -261682
-1 -1 12700 1;
#X floatatom -9367 175 5 0 0 0 - - -;
#X obj -9260 65 vsl 15 128 0 2.5 0 1 empty empty Volume 0 -9 0 10 -204800
-1 -1 8890 1;
#X floatatom -9238 175 5 0 0 0 - - -;
#X text -9364 30 Grain;
#X text -9262 33 Master;
#X obj -9469 262 r pitch;
#X obj -9398 216 r time;
#X text -9191 221 Grain Spacing;
#X obj -9437 534 lop~ 4000;
#X obj -9437 558 hip~ 100;
#X obj -9331 68 vsl 15 128 5 150 0 1 empty empty Time 0 -9 0 10 -261682
-1 -1 12700 1;
#X floatatom -9307 175 5 0 0 0 - - -;
#X obj -9323 432 +~;
#X obj -9252 396 samphold~;
#X obj -9323 366 wrap~;
#X obj -9323 345 +~ 0.5;
#X obj -9550 397 cos~;
#X obj -9565 376 sig~ 1;
#X obj -9565 423 -~;
#X obj -9565 445 *~ 0.5;
#X obj -9469 485 *~;
#X obj -9172 431 cos~;
#X obj -9187 410 sig~ 1;
#X obj -9187 457 -~;
#X obj -9187 479 *~ 0.5;
#X obj -9323 486 *~;
#X obj -9437 509 *~ 1;
#X obj -9469 404 *~ 2000;
#X obj -9323 409 *~ 2000;
#X text -9594 477 Hanning Window;
#X text -9152 452 Hanning Window;
#X obj -9469 456 tabread4~ array0;
#X obj -9323 457 tabread4~ array0;
#X obj -9437 614 outlet~;
#X obj -9378 279 r audioLength0;
#X obj -9693 199 snapshot~;
#X obj -9693 173 phasor~ 0.0007;
#X obj -9085 224 metro 60;
#X obj -9085 170 inlet;
#X obj -9693 69 inlet;
#X obj -9693 148 / 17000;
#X msg -9555 36 10;
#X obj -9555 -1 loadbang;
#X msg -9407 20 800;
#X msg -9329 21 150;
#X msg -9600 68 25;
#X msg -9276 18 1.75;
#X obj -9437 585 spigot~;
#X connect 1 0 13 1;
#X connect 1 0 39 0;
#X connect 1 0 40 0;
#X connect 1 0 51 0;
#X connect 2 0 55 0;
#X connect 3 0 4 0;
#X connect 4 0 10 0;
#X connect 5 0 6 0;
#X connect 6 0 7 0;
#X connect 6 1 8 0;
#X connect 7 0 11 0;
#X connect 8 0 11 0;
#X connect 9 0 61 0;
#X connect 10 0 12 0;
#X connect 11 0 10 0;
#X connect 11 0 3 0;
#X connect 11 1 10 1;
#X connect 12 0 14 0;
#X connect 13 0 2 1;
#X connect 14 0 13 0;
#X connect 14 0 37 0;
#X connect 15 0 16 0;
#X connect 16 0 1 0;
#X connect 17 0 14 1;
#X connect 17 0 18 0;
#X connect 19 0 20 0;
#X connect 19 0 16 1;
#X connect 22 0 7 1;
#X connect 22 0 8 1;
#X connect 23 0 24 0;
#X connect 23 0 22 1;
#X connect 25 0 26 0;
#X connect 25 0 50 1;
#X connect 29 0 15 0;
#X connect 30 0 3 0;
#X connect 32 0 33 0;
#X connect 33 0 71 0;
#X connect 34 0 35 0;
#X connect 34 0 61 1;
#X connect 36 0 56 0;
#X connect 37 0 36 1;
#X connect 38 0 37 1;
#X connect 38 0 45 0;
#X connect 38 0 52 0;
#X connect 39 0 38 0;
#X connect 40 0 42 1;
#X connect 41 0 42 0;
#X connect 42 0 43 0;
#X connect 43 0 44 1;
#X connect 44 0 50 0;
#X connect 45 0 47 1;
#X connect 46 0 47 0;
#X connect 47 0 48 0;
#X connect 48 0 49 1;
#X connect 49 0 50 0;
#X connect 50 0 32 0;
#X connect 51 0 2 0;
#X connect 52 0 36 0;
#X connect 55 0 44 0;
#X connect 56 0 49 0;
#X connect 58 0 4 1;
#X connect 59 0 4 0;
#X connect 60 0 59 0;
#X connect 61 0 5 0;
#X connect 61 0 22 0;
#X connect 61 0 59 0;
#X connect 62 0 9 0;
#X connect 62 0 71 1;
#X connect 63 0 64 0;
#X connect 64 0 60 0;
#X connect 65 0 19 0;
#X connect 65 0 17 0;
#X connect 66 0 65 0;
#X connect 66 0 67 0;
#X connect 66 0 68 0;
#X connect 66 0 69 0;
#X connect 66 0 70 0;
#X connect 67 0 23 0;
#X connect 68 0 34 0;
#X connect 69 0 15 0;
#X connect 70 0 25 0;
#X connect 71 1 57 0;
#X restore 414 286 pd hold;
#X floatatom 313 23 5 0 0 0 - - -;
#X msg 453 129 1;
#X msg 536 137 0;
#N canvas 872 403 450 300 loop 0;
#X obj 163 275 outlet;
#X obj 97 34 int;
#X obj 97 59 change;
#X obj 23 168 change;
#X obj 163 112 sel 21 22 23 24 25 26 27 28 29 30 31 32 33;
#X msg 163 135 0.3;
#X msg 201 135 0.4;
#X msg 239 135 0.5;
#X msg 277 135 0.6;
#X msg 316 135 0.7;
#X msg 354 135 0.8;
#X msg 392 135 0.9;
#X obj 163 222 float;
#X obj 23 193 metro 1200;
#X msg 97 135 0.0122348;
#X obj 97 112 delay 100;
#X obj 97 85 t b f;
#X obj 24 86 r playback;
#X msg 24 113 set \$1;
#X obj 97 10 inlet;
#X obj 23 140 inlet;
#X obj 97 276 outlet;
#X obj 163 249 spigot;
#X connect 1 0 2 0;
#X connect 2 0 16 0;
#X connect 3 0 13 0;
#X connect 4 0 5 0;
#X connect 4 1 5 0;
#X connect 4 2 6 0;
#X connect 4 3 6 0;
#X connect 4 4 7 0;
#X connect 4 5 7 0;
#X connect 4 6 8 0;
#X connect 4 7 8 0;
#X connect 4 8 9 0;
#X connect 4 9 9 0;
#X connect 4 10 10 0;
#X connect 4 11 10 0;
#X connect 4 12 11 0;
#X connect 5 0 12 0;
#X connect 6 0 12 0;
#X connect 7 0 12 0;
#X connect 8 0 12 0;
#X connect 9 0 12 0;
#X connect 10 0 12 0;
#X connect 11 0 12 0;
#X connect 12 0 22 0;
#X connect 13 0 12 0;
#X connect 14 0 21 0;
#X connect 15 0 14 0;
#X connect 16 0 15 0;
#X connect 16 1 4 0;
#X connect 17 0 18 0;
#X connect 18 0 14 0;
#X connect 19 0 1 0;
#X connect 20 0 3 0;
#X connect 20 0 22 1;
#X connect 22 0 0 0;
#X restore 571 284 pd loop;
#X connect 0 0 2 0;
#X connect 1 0 25 0;
#X connect 1 0 21 1;
#X connect 2 0 13 0;
#X connect 3 0 8 0;
#X connect 4 0 3 1;
#X connect 6 0 7 0;
#X connect 7 0 4 0;
#X connect 9 0 1 0;
#X connect 9 0 19 0;
#X connect 9 1 14 0;
#X connect 10 0 9 0;
#X connect 10 0 22 0;
#X connect 11 0 0 0;
#X connect 12 0 2 1;
#X connect 12 0 16 0;
#X connect 13 0 3 0;
#X connect 14 0 18 0;
#X connect 14 0 23 0;
#X connect 14 0 21 0;
#X connect 14 1 15 0;
#X connect 14 1 19 0;
#X connect 14 1 24 0;
#X connect 14 1 25 1;
#X connect 15 0 25 0;
#X connect 16 0 17 0;
#X connect 17 0 11 0;
#X connect 18 0 11 0;
#X connect 18 0 25 0;
#X connect 19 0 17 0;
#X connect 21 0 3 0;
#X connect 23 0 21 1;
#X connect 24 0 21 1;
#X connect 25 0 0 0;
#X restore 30 65 pd play_pause_loop_MS;
#X obj 532 183 *~;
#X obj 597 185 *~;
#X obj 676 153 * 25;
#X msg 676 183 \$1 500;
#X msg 547 160 1;
#X obj 532 213 delwrite~ tapZero 1000;
#X obj 676 94 r locationD;
#X obj 531 245 vd~ tapZero 800;
#X obj 676 213 line~ 200;
#X obj 547 92 loadbang;
#X obj 612 152 *~ 0.02;
#N canvas 66 22 1067 699 hold0 0;
#X text -9509 17 Voice Granulator by davidjgurney;
#X floatatom -9441 332 5 0 0 0 Pitch - -;
#X obj -9441 397 phasor~;
#X obj -9441 479 +~;
#X obj -9367 301 hsl 128 15 0 1 0 0 empty empty Time -2 -8 0 10 -262144
-1 -1 4521 1;
#X obj -9346 326 r filelength;
#X obj -9370 353 *;
#X obj -9112 307 random 2;
#X obj -9112 334 sel 0 1;
#X obj -9061 381 +;
#X obj -9032 381 -;
#X obj -9061 249 tgl 15 0 empty empty empty 17 7 0 10 -262144 -1 -1
1 1;
#X floatatom -9111 420 5 0 0 0 - - -;
#X floatatom -9070 420 5 0 0 0 - - -;
#X obj -9370 379 +;
#X obj -9235 324 t b f;
#X obj -9370 400 vline~;
#X obj -9370 443 samphold~;
#X obj -9152 170 loadbang;
#X obj -9370 419 lop~ 0.1;
#X obj -9441 357 vline~;
#X obj -9441 376 lop~ 0.1;
#X obj -9420 113 vsl 15 128 0.1 10 1 1 empty empty Time 0 -9 0 10 -191407
-1 -1 1000 1;
#X floatatom -9399 223 5 0 0 0 - - -;
#X obj -9496 107 vsl 15 128 0.1 10 1 1 empty empty Pitch 0 -9 0 10
-191407 -1 -1 1100 1;
#X floatatom -9458 223 5 0 0 0 - - -;
#X text -9464 80 Smoothing;
#X obj -9061 354 random 500;
#X obj -9360 113 vsl 15 128 30 800 0 1 empty empty Width 0 -9 0 10
-261682 -1 -1 3000 1;
#X floatatom -9339 223 5 0 0 0 - - -;
#X text -9336 78 Grain;
#X obj -9441 310 r pitch;
#X obj -9370 264 r time;
#X text -9163 269 Grain Spacing;
#X obj -9445 652 lop~ 4000;
#X obj -9445 676 hip~ 100;
#X obj -9300 113 vsl 15 128 5 150 0 1 empty empty Time 0 -9 0 10 -261682
-1 -1 6600 1;
#X floatatom -9279 223 5 0 0 0 - - -;
#X obj -9061 272 metro 1;
#X obj -9295 480 +~;
#X obj -9224 444 samphold~;
#X obj -9295 414 wrap~;
#X obj -9295 393 +~ 0.5;
#X obj -9483 459 cos~;
#X obj -9498 438 sig~ 1;
#X obj -9498 485 -~;
#X obj -9498 507 *~ 0.5;
#X obj -9441 533 *~;
#X obj -9144 479 cos~;
#X obj -9159 458 sig~ 1;
#X obj -9159 505 -~;
#X obj -9159 527 *~ 0.5;
#X obj -9295 534 *~;
#X obj -9445 626 *~ 1;
#X obj -9441 452 *~ 2000;
#X obj -9295 457 *~ 2000;
#X text -9533 536 Hanning Window;
#X text -9124 500 Hanning Window;
#X obj -9444 701 outlet~;
#X floatatom -9500 378 5 0 0 0 - - -;
#X obj -8946 29 r locationD;
#X floatatom -8948 56 5 0 0 0 - - -;
#X msg -8986 155 0.3;
#X obj -8951 81 select 12 13 14 15 16 17 18 19 20;
#X msg -8751 243 0;
#X msg -9028 155 0.295;
#X msg -8956 155 0.308;
#X msg -8915 155 0.318;
#X msg -8875 155 0.326;
#X msg -8835 155 0.334;
#X msg -8794 155 0.342;
#X msg -8753 155 0.35;
#X msg -8718 155 0.356;
#X obj -9611 251 r audioLength0;
#X obj -9441 504 tabread~ array0;
#X obj -9295 506 tabread~ array0;
#X msg -9478 314 23;
#X obj -9597 301 s samplesize0;
#X obj -9614 433 *~;
#X obj -9679 224 tgl 15 0 empty empty empty 17 7 0 10 -262144 -1 -1
0 1;
#X obj -9680 253 metro 59;
#X obj -9615 459 snapshot~;
#X floatatom -9615 486 12 0 0 0 - - -;
#X obj -9614 533 /;
#X floatatom -9615 562 12 0 0 0 - - -;
#X obj -9592 507 r samplesize0;
#X obj -9588 407 r samplesize0;
#X obj -9612 361 phasor~;
#X obj -9610 325 expr 44100 / $f1;
#X obj -9113 126 s startmetro0;
#X obj -8742 102 s stopmetro0;
#X obj -9677 137 r startmetro0;
#X msg -9678 187 1;
#X obj -9630 160 r stopmetro0;
#X msg -9630 187 0;
#X obj -9292 572 r startmetro0;
#X msg -9292 597 1.3;
#X text -9666 582 location of sample during hold;
#X connect 1 0 20 0;
#X connect 2 0 17 1;
#X connect 2 0 42 0;
#X connect 2 0 43 0;
#X connect 2 0 54 0;
#X connect 3 0 74 0;
#X connect 4 0 6 0;
#X connect 4 0 59 0;
#X connect 6 0 14 0;
#X connect 7 0 8 0;
#X connect 8 0 9 0;
#X connect 8 1 10 0;
#X connect 9 0 12 0;
#X connect 10 0 13 0;
#X connect 11 0 38 0;
#X connect 12 0 15 0;
#X connect 13 0 15 0;
#X connect 14 0 16 0;
#X connect 15 0 14 0;
#X connect 15 0 4 0;
#X connect 15 1 14 1;
#X connect 16 0 19 0;
#X connect 17 0 3 1;
#X connect 18 0 11 0;
#X connect 18 0 76 0;
#X connect 19 0 17 0;
#X connect 19 0 40 0;
#X connect 20 0 21 0;
#X connect 21 0 2 0;
#X connect 22 0 19 1;
#X connect 22 0 23 0;
#X connect 24 0 25 0;
#X connect 24 0 21 1;
#X connect 27 0 9 1;
#X connect 27 0 10 1;
#X connect 28 0 29 0;
#X connect 28 0 27 1;
#X connect 31 0 1 0;
#X connect 32 0 4 0;
#X connect 34 0 35 0;
#X connect 35 0 58 0;
#X connect 36 0 37 0;
#X connect 36 0 38 1;
#X connect 38 0 7 0;
#X connect 38 0 27 0;
#X connect 39 0 75 0;
#X connect 40 0 39 1;
#X connect 41 0 40 1;
#X connect 41 0 48 0;
#X connect 41 0 55 0;
#X connect 42 0 41 0;
#X connect 43 0 45 1;
#X connect 44 0 45 0;
#X connect 45 0 46 0;
#X connect 46 0 47 1;
#X connect 47 0 53 0;
#X connect 48 0 50 1;
#X connect 49 0 50 0;
#X connect 50 0 51 0;
#X connect 51 0 52 1;
#X connect 52 0 53 0;
#X connect 53 0 34 0;
#X connect 54 0 3 0;
#X connect 55 0 39 0;
#X connect 60 0 61 0;
#X connect 61 0 63 0;
#X connect 62 0 4 0;
#X connect 63 0 65 0;
#X connect 63 0 89 0;
#X connect 63 1 62 0;
#X connect 63 1 89 0;
#X connect 63 2 66 0;
#X connect 63 2 89 0;
#X connect 63 3 67 0;
#X connect 63 3 89 0;
#X connect 63 4 68 0;
#X connect 63 4 89 0;
#X connect 63 5 69 0;
#X connect 63 5 89 0;
#X connect 63 6 70 0;
#X connect 63 6 89 0;
#X connect 63 7 71 0;
#X connect 63 7 89 0;
#X connect 63 8 72 0;
#X connect 63 8 89 0;
#X connect 63 9 64 0;
#X connect 63 9 90 0;
#X connect 64 0 53 1;
#X connect 65 0 4 0;
#X connect 66 0 4 0;
#X connect 67 0 4 0;
#X connect 68 0 4 0;
#X connect 69 0 4 0;
#X connect 70 0 4 0;
#X connect 71 0 4 0;
#X connect 72 0 4 0;
#X connect 73 0 6 1;
#X connect 73 0 77 0;
#X connect 73 0 88 0;
#X connect 74 0 47 0;
#X connect 75 0 52 0;
#X connect 76 0 1 0;
#X connect 78 0 81 0;
#X connect 79 0 80 0;
#X connect 80 0 81 0;
#X connect 81 0 82 0;
#X connect 82 0 83 0;
#X connect 83 0 84 0;
#X connect 85 0 83 1;
#X connect 86 0 78 1;
#X connect 87 0 78 0;
#X connect 88 0 87 0;
#X connect 91 0 92 0;
#X connect 92 0 79 0;
#X connect 93 0 94 0;
#X connect 94 0 79 0;
#X connect 95 0 96 0;
#X connect 96 0 53 1;
#X restore 532 62 pd hold0;
#X obj 31 207 spigot~;
#X obj 130 145 tgl 15 0 empty empty empty 17 7 0 10 -262144 -1 -1 0
1;
#X obj 413 213 spigot~;
#X text 150 136 0 - L 1 - R;
#N canvas 8 22 1239 699 play_loop_JM 1;
#X obj 146 499 s sampleSize;
#X obj 125 543 expr 44100 / $f1;
#X obj 125 647 phasor~;
#X msg 372 444 0;
#X obj 124 681 *~;
#X obj 189 656 r sampleSize;
#X obj 125 836 *~;
#X obj 140 768 vsl 30 60 0 1 0 0 empty empty empty 0 -9 0 10 -262144
-1 -1 2950 1;
#X floatatom 163 566 5 0 0 0 - - -;
#X obj 163 593 s playback;
#X obj 342 493 r playback;
#X msg 343 520 set \$1;
#X msg 278 591 0.0122348;
#X obj 278 568 bng 15 250 50 0 empty empty empty 17 7 0 10 -262144
-1 -1;
#X text 362 422 pause;
#X text 266 543 restart;
#X msg 339 444 1;
#X obj 235 717 loadbang;
#X msg 235 740 0.5;
#X obj 125 861 outlet~;
#X obj 288 112 moses 11;
#X obj 376 647 tgl 15 0 empty empty empty 17 7 0 10 -262144 -1 -1 0
1;
#X obj 375 676 metro 59;
#X obj 375 707 snapshot~;
#X floatatom 376 734 12 0 0 0 - - -;
#X obj 377 764 /;
#X floatatom 380 802 12 0 0 0 - - -;
#X obj 472 737 r sampleSize;
#X obj 506 496 tgl 15 0 empty empty empty 17 7 0 10 -262144 -1 -1 0
1;
#X obj 508 546 metro 1200;
#X obj 599 496 tgl 15 0 empty empty empty 17 7 0 10 -262144 -1 -1 0
1;
#X obj 601 546 metro 1200;
#X obj 707 494 tgl 15 0 empty empty empty 17 7 0 10 -262144 -1 -1 1
1;
#X obj 709 544 metro 1200;
#X obj 807 493 tgl 15 0 empty empty empty 17 7 0 10 -262144 -1 -1 0
1;
#X obj 809 543 metro 1200;
#X obj 908 492 tgl 15 0 empty empty empty 17 7 0 10 -262144 -1 -1 0
1;
#X obj 910 542 metro 1200;
#X obj 995 486 tgl 15 0 empty empty empty 17 7 0 10 -262144 -1 -1 0
1;
#X obj 1003 539 metro 1200;
#X obj 1098 487 tgl 15 0 empty empty empty 17 7 0 10 -262144 -1 -1
0 1;
#X obj 1100 537 metro 1200;
#X obj 728 171 sel 21 23 25 27 29 31 33;
#X msg 512 594 0.3;
#X msg 601 593 0.4;
#X msg 717 594 0.5;
#X msg 811 595 0.6;
#X msg 914 589 0.7;
#X msg 1017 588 0.8;
#X msg 1109 584 0.9;
#X msg 694 329 0;
#X msg 733 328 0;
#X msg 772 329 0;
#X msg 810 329 0;
#X msg 848 328 0;
#X msg 892 328 0;
#X msg 940 328 0;
#X floatatom 742 132 5 0 0 0 - - -;
#X msg 466 444 0;
#X obj 740 59 r locationD;
#X obj 409 541 delay 100;
#X obj 125 453 r audioLength0;
#X obj 124 727 tabread4~ array0;
#X obj 944 173 sel 22 24 26 28 30 32;
#X connect 1 0 2 0;
#X connect 1 0 8 0;
#X connect 2 0 4 0;
#X connect 3 0 2 0;
#X connect 4 0 23 0;
#X connect 4 0 62 0;
#X connect 5 0 4 1;
#X connect 6 0 19 0;
#X connect 7 0 6 1;
#X connect 8 0 9 0;
#X connect 10 0 11 0;
#X connect 11 0 12 0;
#X connect 12 0 2 0;
#X connect 13 0 12 0;
#X connect 16 0 2 0;
#X connect 17 0 18 0;
#X connect 18 0 7 0;
#X connect 20 0 13 0;
#X connect 20 0 58 0;
#X connect 20 1 3 0;
#X connect 21 0 22 0;
#X connect 22 0 23 0;
#X connect 23 0 24 0;
#X connect 24 0 25 0;
#X connect 25 0 26 0;
#X connect 27 0 25 1;
#X connect 28 0 29 0;
#X connect 28 0 60 0;
#X connect 29 0 43 0;
#X connect 30 0 31 0;
#X connect 30 0 60 0;
#X connect 31 0 44 0;
#X connect 32 0 33 0;
#X connect 32 0 60 0;
#X connect 33 0 45 0;
#X connect 34 0 35 0;
#X connect 34 0 60 0;
#X connect 35 0 46 0;
#X connect 36 0 37 0;
#X connect 36 0 60 0;
#X connect 37 0 47 0;
#X connect 38 0 39 0;
#X connect 38 0 60 0;
#X connect 39 0 48 0;
#X connect 40 0 41 0;
#X connect 40 0 60 0;
#X connect 41 0 49 0;
#X connect 42 0 50 0;
#X connect 42 0 28 0;
#X connect 42 1 30 0;
#X connect 42 1 51 0;
#X connect 42 2 32 0;
#X connect 42 2 52 0;
#X connect 42 3 34 0;
#X connect 42 3 53 0;
#X connect 42 4 36 0;
#X connect 42 4 54 0;
#X connect 42 5 38 0;
#X connect 42 5 55 0;
#X connect 42 6 40 0;
#X connect 42 6 56 0;
#X connect 43 0 2 1;
#X connect 44 0 2 1;
#X connect 45 0 2 1;
#X connect 46 0 2 1;
#X connect 47 0 2 1;
#X connect 48 0 2 1;
#X connect 49 0 2 1;
#X connect 50 0 30 0;
#X connect 50 0 32 0;
#X connect 50 0 34 0;
#X connect 50 0 36 0;
#X connect 50 0 38 0;
#X connect 50 0 40 0;
#X connect 50 0 28 0;
#X connect 51 0 28 0;
#X connect 51 0 32 0;
#X connect 51 0 34 0;
#X connect 51 0 36 0;
#X connect 51 0 38 0;
#X connect 51 0 40 0;
#X connect 52 0 28 0;
#X connect 52 0 30 0;
#X connect 52 0 34 0;
#X connect 52 0 36 0;
#X connect 52 0 38 0;
#X connect 52 0 40 0;
#X connect 53 0 28 0;
#X connect 53 0 30 0;
#X connect 53 0 32 0;
#X connect 53 0 36 0;
#X connect 53 0 38 0;
#X connect 53 0 40 0;
#X connect 54 0 34 0;
#X connect 54 0 38 0;
#X connect 54 0 40 0;
#X connect 54 0 32 0;
#X connect 54 0 30 0;
#X connect 54 0 28 0;
#X connect 55 0 40 0;
#X connect 55 0 36 0;
#X connect 55 0 34 0;
#X connect 55 0 32 0;
#X connect 55 0 30 0;
#X connect 55 0 28 0;
#X connect 56 0 38 0;
#X connect 56 0 36 0;
#X connect 56 0 34 0;
#X connect 56 0 32 0;
#X connect 56 0 30 0;
#X connect 56 0 28 0;
#X connect 57 0 42 0;
#X connect 57 0 63 0;
#X connect 58 0 28 0;
#X connect 58 0 30 0;
#X connect 58 0 32 0;
#X connect 58 0 34 0;
#X connect 58 0 36 0;
#X connect 58 0 38 0;
#X connect 58 0 40 0;
#X connect 59 0 57 0;
#X connect 59 0 20 0;
#X connect 60 0 13 0;
#X connect 61 0 1 0;
#X connect 61 0 0 0;
#X connect 62 0 6 0;
#X connect 63 0 50 0;
#X connect 63 0 28 0;
#X connect 63 1 51 0;
#X connect 63 1 30 0;
#X connect 63 2 52 0;
#X connect 63 2 32 0;
#X connect 63 3 53 0;
#X connect 63 3 34 0;
#X connect 63 4 54 0;
#X connect 63 4 36 0;
#X connect 63 5 55 0;
#X connect 63 5 38 0;
#X restore 413 61 pd play_loop_JM;
#X connect 2 0 15 0;
#X connect 3 0 8 0;
#X connect 4 0 8 0;
#X connect 5 0 6 0;
#X connect 6 0 11 0;
#X connect 7 0 3 1;
#X connect 9 0 5 0;
#X connect 9 0 13 0;
#X connect 10 0 4 0;
#X connect 11 0 10 0;
#X connect 12 0 7 0;
#X connect 13 0 4 1;
#X connect 14 0 3 0;
#X connect 15 0 0 0;
#X connect 15 0 1 0;
#X connect 16 0 17 1;
#X connect 16 0 15 1;
#X connect 17 1 1 0;
#X connect 17 1 0 0;
#X connect 19 0 17 0;
#X restore 391 201 pd grooveD;
#N canvas 246 125 1024 628 settingfor0 0;
#X obj 14 366 soundfiler;
#X msg 13 74 read -resize ./audio/arleneNR.wav array0;
#X msg 295 66 read -resize ./audio/mosesyoho.aif array0;
#X msg 600 89 read -resize ./audio/badprinter.wav array0;
#X obj 14 -3 receive settingNum;
#X obj 455 403 send 0tapoff;
#X obj 570 403 send 0tapon;
#N canvas 0 22 450 278 (subpatch) 0;
#X array array0 3.60448e+06 float 2;
#X coords 0 1 3.60448e+06 -1 200 140 1 0 0;
#X restore 129 396 graph;
#X msg 49 95 read -resize ./audio/carolynNR.wav array0;
#X msg 84 121 read -resize ./audio/walter2.aif array0;
#X msg 119 149 read -resize ./audio/albert_tie.aif array0;
#X msg 154 175 read -resize ./audio/victor_glass.aif array0;
#X msg 191 201 read -resize ./audio/counteecullen.aif array0;
#X msg 224 223 read -resize ./audio/dennisfields.aif array0;
#X msg 260 249 read -resize ./audio/sidcaesar1.aif array0;
#X msg 330 90 read -resize ./audio/masefield1.aif array0;
#X msg 364 120 read -resize ./audio/masefield2.aif array0;
#X msg 400 147 read -resize ./audio/sharonbarge.aif array0;
#X msg 435 172 read -resize ./audio/mockingbird.aif array0;
#X msg 506 224 read -resize ./audio/elevator.aif array0;
#X msg 541 250 read -resize ./audio/elevator_old_mix.aif array0;
#X msg 718 170 read -resize ./audio/skateboardmono.aif array0;
#X msg 652 119 read -resize ./audio/hangerdoor.aif array0;
#X msg 754 196 read -resize ./audio/sculpture1.aif array0;
#X msg 789 224 read -resize ./audio/heliocopter.aif array0;
#X msg 852 65 read -resize ./audio/waveslapping.aiff array0;
#X msg 911 88 read -resize ./audio/pno_pluck.aif array0;
#X msg 922 111 read -resize ./audio/lensfishing.aif array0;
#X msg 920 140 read -resize ./audio/lensugar.aif array0;
#X msg 926 320 read -resize ./audio/mockingbird2x.aif array0;
#X msg 952 296 read -resize ./audio/localbirds2.aif array0;
#X msg 972 271 read -resize ./audio/badprinter2.aif array0;
#X msg 990 245 read -resize ./audio/sculpture1.aif array0;
#X obj 13 24 select 1 2 3 4 5 6 7 8 9 10 11 12 13 14 15 16 17 18 19
20 21 22 23 24 25 26 27 28 29 30 31 32;
#X msg 683 144 read -resize audio/mockingbird2x.aif array0;
#X obj 811 420 send 0volume110;
#X obj 911 420 send 0volume100;
#X obj 1009 420 send 0volume88;
#N canvas 815 279 350 233 interviewStuff 0;
#X obj 24 22 loadbang;
#X obj 25 187 send~ playfillD;
#X obj 24 133 tabplay~ array0;
#X obj 24 45 delay 500;
#X msg 126 165 1;
#X obj 126 187 send sensorsOnOff;
#X obj 185 22 r ambientoff;
#X obj 94 22 r audioLength0;
#X obj 121 99 spigot;
#X msg 185 67 1;
#X obj 94 45 t b b;
#X msg 94 69 0;
#X connect 0 0 3 0;
#X connect 2 0 1 0;
#X connect 2 1 4 0;
#X connect 3 0 2 0;
#X connect 4 0 5 0;
#X connect 6 0 9 0;
#X connect 7 0 10 0;
#X connect 8 0 2 0;
#X connect 9 0 8 1;
#X connect 10 0 11 0;
#X connect 10 1 8 0;
#X connect 11 0 8 1;
#X restore 14 555 pd interviewStuff;
#X msg 471 198 read -resize ./audio/piano_tuning.aif array0;
#X obj 83 401 s len;
#X obj 14 424 s dur;
#X obj 14 399 / 44.1;
#X obj 27 494 s audioLength0;
#X connect 0 0 40 0;
#X connect 0 0 42 0;
#X connect 0 0 43 0;
#X connect 1 0 0 0;
#X connect 2 0 0 0;
#X connect 3 0 0 0;
#X connect 4 0 33 0;
#X connect 8 0 0 0;
#X connect 9 0 0 0;
#X connect 10 0 0 0;
#X connect 11 0 0 0;
#X connect 12 0 0 0;
#X connect 13 0 0 0;
#X connect 14 0 0 0;
#X connect 15 0 0 0;
#X connect 16 0 0 0;
#X connect 17 0 0 0;
#X connect 18 0 0 0;
#X connect 19 0 0 0;
#X connect 20 0 0 0;
#X connect 21 0 0 0;
#X connect 22 0 0 0;
#X connect 23 0 0 0;
#X connect 24 0 0 0;
#X connect 25 0 0 0;
#X connect 26 0 0 0;
#X connect 27 0 0 0;
#X connect 28 0 0 0;
#X connect 29 0 0 0;
#X connect 30 0 0 0;
#X connect 31 0 0 0;
#X connect 32 0 0 0;
#X connect 33 0 1 0;
#X connect 33 0 5 0;
#X connect 33 0 36 0;
#X connect 33 1 8 0;
#X connect 33 1 5 0;
#X connect 33 1 36 0;
#X connect 33 2 9 0;
#X connect 33 2 6 0;
#X connect 33 2 36 0;
#X connect 33 3 10 0;
#X connect 33 3 6 0;
#X connect 33 3 36 0;
#X connect 33 4 11 0;
#X connect 33 4 36 0;
#X connect 33 5 12 0;
#X connect 33 5 5 0;
#X connect 33 5 36 0;
#X connect 33 6 13 0;
#X connect 33 6 5 0;
#X connect 33 6 36 0;
#X connect 33 7 14 0;
#X connect 33 7 5 0;
#X connect 33 7 36 0;
#X connect 33 8 2 0;
#X connect 33 8 5 0;
#X connect 33 8 36 0;
#X connect 33 9 15 0;
#X connect 33 9 6 0;
#X connect 33 9 36 0;
#X connect 33 10 16 0;
#X connect 33 10 5 0;
#X connect 33 10 36 0;
#X connect 33 11 17 0;
#X connect 33 11 5 0;
#X connect 33 11 36 0;
#X connect 33 12 18 0;
#X connect 33 12 5 0;
#X connect 33 12 36 0;
#X connect 33 13 39 0;
#X connect 33 13 5 0;
#X connect 33 13 36 0;
#X connect 33 14 19 0;
#X connect 33 14 5 0;
#X connect 33 14 37 0;
#X connect 33 15 20 0;
#X connect 33 15 5 0;
#X connect 33 15 37 0;
#X connect 33 16 3 0;
#X connect 33 16 5 0;
#X connect 33 16 37 0;
#X connect 33 17 22 0;
#X connect 33 17 5 0;
#X connect 33 17 37 0;
#X connect 33 18 34 0;
#X connect 33 18 5 0;
#X connect 33 18 36 0;
#X connect 33 19 21 0;
#X connect 33 19 5 0;
#X connect 33 19 36 0;
#X connect 33 20 23 0;
#X connect 33 20 5 0;
#X connect 33 20 37 0;
#X connect 33 21 24 0;
#X connect 33 21 6 0;
#X connect 33 21 37 0;
#X connect 33 22 25 0;
#X connect 33 22 5 0;
#X connect 33 22 37 0;
#X connect 33 23 26 0;
#X connect 33 23 6 0;
#X connect 33 23 36 0;
#X connect 33 24 27 0;
#X connect 33 24 5 0;
#X connect 33 24 36 0;
#X connect 33 25 28 0;
#X connect 33 25 5 0;
#X connect 33 25 35 0;
#X connect 33 26 5 0;
#X connect 33 27 5 0;
#X connect 33 28 29 0;
#X connect 33 28 5 0;
#X connect 33 28 36 0;
#X connect 33 29 30 0;
#X connect 33 29 6 0;
#X connect 33 29 36 0;
#X connect 33 30 31 0;
#X connect 33 30 6 0;
#X connect 33 30 37 0;
#X connect 33 31 32 0;
#X connect 33 31 6 0;
#X connect 33 31 36 0;
#X connect 34 0 0 0;
#X connect 39 0 0 0;
#X connect 42 0 41 0;
#X restore 505 26 pd settingfor0;
#X obj 447 317 *~;
#X connect 0 0 2 0;
#X connect 0 0 12 0;
#X connect 2 0 32 0;
#X connect 4 0 6 1;
#X connect 4 0 36 1;
#X connect 5 0 1 0;
#X connect 6 0 5 0;
#X connect 7 0 2 0;
#X connect 7 0 12 0;
#X connect 9 0 8 0;
#X connect 10 0 9 0;
#X connect 11 0 5 1;
#X connect 11 0 9 1;
#X connect 12 1 16 0;
#X connect 13 0 15 0;
#X connect 15 0 14 0;
#X connect 16 0 17 0;
#X connect 16 1 18 0;
#X connect 17 0 30 0;
#X connect 17 0 4 0;
#X connect 18 0 19 0;
#X connect 19 0 21 0;
#X connect 20 0 29 0;
#X connect 21 0 22 0;
#X connect 22 0 20 0;
#X connect 23 0 22 0;
#X connect 23 0 24 0;
#X connect 23 0 28 0;
#X connect 24 0 4 0;
#X connect 25 0 22 0;
#X connect 26 0 27 0;
#X connect 27 0 25 1;
#X connect 28 0 25 1;
#X connect 29 0 23 0;
#X connect 29 0 26 0;
#X connect 30 0 31 0;
#X connect 31 0 25 0;
#X connect 31 1 29 2;
#X connect 32 0 33 0;
#X connect 33 0 3 0;
#X connect 34 0 6 0;
#X connect 34 1 36 0;
#X connect 36 0 9 0;
