#N canvas 214 150 734 585 10;
#X obj 27 20 inlet;
#X obj 391 506 outlet~;
#X obj 27 72 clip 6 33;
#X obj 27 153 s locationD;
#X obj 406 295 tgl 15 0 empty empty empty 17 7 0 10 -262144 -1 -1 1
1;
#X obj 391 392 *~;
#X obj 391 320 *~;
#X floatatom 235 34 5 0 0 0 TEST_VALUES - -;
#X obj 447 505 outlet~;
#X obj 447 392 *~;
#N canvas 88 189 345 435 delay 0;
#X obj 47 187 *~;
#X obj 135 187 *~;
#X obj 214 155 * 25;
#X msg 214 185 \$1 500;
#X obj 47 25 inlet~;
#X obj 47 319 outlet~;
#X msg 62 82 0;
#X msg 92 104 1;
#X obj 47 217 delwrite~ tapZero 1000;
#X obj 62 57 r 0tapoff;
#X obj 92 82 r 0tapon;
#X obj 214 50 r locationD;
#X obj 47 280 vd~ tapZero 800;
#X obj 214 215 line~ 200;
#X obj 150 154 *~ 0.01;
#X connect 0 0 8 0;
#X connect 1 0 8 0;
#X connect 2 0 3 0;
#X connect 3 0 13 0;
#X connect 4 0 0 0;
#X connect 6 0 0 1;
#X connect 7 0 0 1;
#X connect 9 0 6 0;
#X connect 10 0 7 0;
#X connect 11 0 2 0;
#X connect 11 0 14 0;
#X connect 12 0 1 0;
#X connect 12 0 5 0;
#X connect 13 0 12 0;
#X connect 14 0 1 1;
#X restore 447 356 pd delay;
#N canvas 65 97 450 300 volumeSettings 0;
#X obj 12 19 loadbang;
#X obj 32 201 outlet;
#X obj 31 39 r 0volume110;
#X obj 113 39 r 0volume100;
#X obj 195 39 r 0volume88;
#X obj 275 40 r 0volume75;
#X msg 113 67 0.8;
#X msg 32 70 0.9;
#X msg 195 67 0.7;
#X msg 275 67 0.6;
#X connect 0 0 7 0;
#X connect 2 0 7 0;
#X connect 3 0 6 0;
#X connect 4 0 8 0;
#X connect 5 0 9 0;
#X connect 6 0 1 0;
#X connect 7 0 1 0;
#X connect 8 0 1 0;
#X connect 9 0 1 0;
#X restore 514 355 pd volumeSettings;
#X obj 148 208 moses 5;
#X obj 492 203 r~ playfillD;
#X obj 492 288 s~ playoralout;
#X obj 492 253 *~ 0.9;
#X obj 187 244 moses 34;
#X msg 168 267 1;
#X msg 267 268 0;
#X obj 267 295 change;
#X obj 267 367 metro 60;
#X obj 267 322 sel 0;
#X obj 267 346 tgl 15 0 empty empty empty 17 7 0 10 -262144 -1 -1 0
1;
#X obj 243 424 select 70;
#X obj 243 451 delay 100;
#X obj 167 489 spigot 1;
#X obj 318 424 select 0;
#X msg 318 451 0;
#X msg 212 451 1;
#X obj 267 393 counter 0 0 70;
#X obj 168 295 speedlim 2000;
#X obj 168 324 t 1 b;
#X obj 27 102 speedlim 200;
#X obj 27 127 change;
#N canvas 100 356 1024 673 grooveD 0;
#X obj 54 123 outlet~;
#X obj 626 91 delwrite~ tapGrooveD 1000;
#X obj 626 117 delread~ tapGrooveD 900;
#X obj 172 124 outlet~;
#X obj 427 92 delwrite~ tapTwoGrooveD 1000;
#X obj 427 118 delread~ tapTwoGrooveD 900;
#X obj 377 92 *~ 0.5;
#N canvas 89 308 1024 675 play_pause_loop 0;
#X obj 216 257 phasor~;
#X msg 414 129 0;
#X obj 215 291 *~;
#X obj 216 412 *~;
#X obj 231 344 vsl 30 60 0 1 0 0 empty empty empty 0 -9 0 10 -262144
-1 -1 2600 1;
#X text 419 77 pause;
#X obj 326 293 loadbang;
#X msg 326 316 0.5;
#X obj 215 442 outlet~;
#X obj 369 58 moses 11;
#X obj 549 147 sel 21 23 25 27 29 31 33;
#X obj 369 16 r locationD;
#X obj 216 230 sig~;
#X obj 480 171 delay 100;
#X obj 216 73 r audioLength0;
#X msg 549 174 0.3;
#X msg 569 194 0.4;
#X msg 589 213 0.5;
#X msg 609 233 0.6;
#X msg 629 252 0.7;
#X msg 649 270 0.8;
#X msg 669 297 0.9;
#X obj 669 329 float;
#X obj 215 318 tabread~ array0;
#X obj 381 221 spigot;
#X obj 414 98 moses 21;
#X msg 459 128 1;
#X obj 216 126 expr 44100/$f1;
#X obj 703 299 metro 1200;
#X obj 216 161 float;
#X msg 383 129 0;
#X obj 257 161 t b;
#X obj 402 334 GRAINS_slow;
#X text 148 59 HOLD (for groove0);
#X obj 493 309 bng 15 250 50 0 empty empty empty 17 7 0 10 -262144
-1 -1;
#N canvas -2 18 538 301 groove0settings 1;
#X obj 302 129 s grainspeed;
#X obj 22 129 s grainscatter;
#X obj 383 129 s grainspread;
#X obj 111 129 s grainfade;
#X obj 185 129 s grainspeedspread;
#X msg 22 96 74;
#X msg 111 98 1;
#X msg 302 96 24;
#X msg 383 96 0;
#X msg 185 96 0.4;
#X obj 22 53 inlet;
#X connect 5 0 1 0;
#X connect 6 0 3 0;
#X connect 7 0 0 0;
#X connect 8 0 2 0;
#X connect 9 0 4 0;
#X connect 10 0 5 0;
#X connect 10 0 6 0;
#X connect 10 0 9 0;
#X connect 10 0 7 0;
#X connect 10 0 8 0;
#X restore 493 334 pd groove0settings;
#X msg 402 307 1;
#X msg 439 307 0;
#X msg 480 197 0;
#X obj 549 103 int;
#X obj 549 124 change;
#X obj 703 272 change;
#X floatatom 479 37 5 0 0 0 - - -;
#X obj 513 307 loadbang;
#X connect 0 0 2 0;
#X connect 1 0 24 1;
#X connect 1 0 41 0;
#X connect 1 0 32 0;
#X connect 2 0 23 0;
#X connect 3 0 8 0;
#X connect 4 0 3 1;
#X connect 6 0 7 0;
#X connect 7 0 4 0;
#X connect 9 0 1 0;
#X connect 9 0 31 0;
#X connect 9 1 25 0;
#X connect 10 0 15 0;
#X connect 10 0 13 0;
#X connect 10 1 16 0;
#X connect 10 1 13 0;
#X connect 10 2 17 0;
#X connect 10 2 13 0;
#X connect 10 3 18 0;
#X connect 10 3 13 0;
#X connect 10 4 19 0;
#X connect 10 4 13 0;
#X connect 10 5 20 0;
#X connect 10 5 13 0;
#X connect 10 6 21 0;
#X connect 10 6 13 0;
#X connect 11 0 9 0;
#X connect 12 0 0 0;
#X connect 13 0 38 0;
#X connect 14 0 2 1;
#X connect 14 0 27 0;
#X connect 15 0 22 0;
#X connect 16 0 22 0;
#X connect 17 0 22 0;
#X connect 18 0 22 0;
#X connect 19 0 22 0;
#X connect 20 0 22 0;
#X connect 21 0 22 0;
#X connect 22 0 24 0;
#X connect 23 0 3 0;
#X connect 24 0 0 1;
#X connect 25 0 1 0;
#X connect 25 0 30 0;
#X connect 25 0 36 0;
#X connect 25 0 32 1;
#X connect 25 1 26 0;
#X connect 25 1 31 0;
#X connect 25 1 39 0;
#X connect 25 1 37 0;
#X connect 26 0 24 1;
#X connect 26 0 41 0;
#X connect 27 0 29 0;
#X connect 28 0 22 0;
#X connect 29 0 12 0;
#X connect 30 0 12 0;
#X connect 31 0 29 0;
#X connect 34 0 35 0;
#X connect 36 0 32 0;
#X connect 37 0 32 0;
#X connect 38 0 0 0;
#X connect 39 0 40 0;
#X connect 40 0 10 0;
#X connect 41 0 28 0;
#X connect 42 0 9 0;
#X connect 43 0 35 0;
#X restore 55 67 pd play_pause_loop;
#X connect 5 0 6 0;
#X connect 6 0 4 0;
#X connect 7 0 0 0;
#X connect 7 0 3 0;
#X restore 391 201 pd grooveD;
#N canvas 124 341 1024 628 settingfor0 0;
#X obj 14 366 soundfiler;
#X msg 13 74 read -resize ./audio/arleneNR.wav array0;
#X msg 295 66 read -resize ./audio/mosesyoho.aif array0;
#X msg 600 89 read -resize ./audio/badprinter.wav array0;
#X obj 14 -3 receive settingNum;
#X obj 455 403 send 0tapoff;
#X obj 570 403 send 0tapon;
#N canvas 0 22 450 278 (subpatch) 0;
#X array array0 1.76947e+06 float 2;
#X coords 0 1 1.76947e+06 -1 200 140 1 0 0;
#X restore 129 396 graph;
#X msg 49 95 read -resize ./audio/carolynNR.wav array0;
#X msg 84 121 read -resize ./audio/walter2.aif array0;
#X msg 119 149 read -resize ./audio/albert_tie.aif array0;
#X msg 154 175 read -resize ./audio/victor_glass.aif array0;
#X msg 191 201 read -resize ./audio/counteecullen.aif array0;
#X msg 224 223 read -resize ./audio/dennisfields.aif array0;
#X msg 260 249 read -resize ./audio/sidcaesar1.aif array0;
#X msg 330 90 read -resize ./audio/masefield1.aif array0;
#X msg 364 120 read -resize ./audio/masefield2.aif array0;
#X msg 400 147 read -resize ./audio/sharonbarge.aif array0;
#X msg 435 172 read -resize ./audio/mockingbird.aif array0;
#X msg 506 224 read -resize ./audio/elevator.aif array0;
#X msg 541 250 read -resize ./audio/elevator_old_mix.aif array0;
#X msg 718 170 read -resize ./audio/skateboardmono.aif array0;
#X msg 652 119 read -resize ./audio/hangerdoor.aif array0;
#X msg 754 196 read -resize ./audio/sculpture1.aif array0;
#X msg 789 224 read -resize ./audio/heliocopter.aif array0;
#X msg 852 65 read -resize ./audio/waveslapping.aiff array0;
#X msg 911 88 read -resize ./audio/pno_pluck.aif array0;
#X msg 922 111 read -resize ./audio/lensfishing.aif array0;
#X msg 920 140 read -resize ./audio/lensugar.aif array0;
#X msg 926 320 read -resize ./audio/mockingbird2x.aif array0;
#X msg 952 296 read -resize ./audio/localbirds2.aif array0;
#X msg 972 271 read -resize ./audio/badprinter2.aif array0;
#X msg 990 245 read -resize ./audio/sculpture1.aif array0;
#X obj 13 24 select 1 2 3 4 5 6 7 8 9 10 11 12 13 14 15 16 17 18 19
20 21 22 23 24 25 26 27 28 29 30 31 32;
#X msg 683 144 read -resize audio/mockingbird2x.aif array0;
#X obj 811 420 send 0volume110;
#X obj 911 420 send 0volume100;
#X obj 1009 420 send 0volume88;
#N canvas 815 279 350 233 interviewStuff 0;
#X obj 24 22 loadbang;
#X obj 25 187 send~ playfillD;
#X obj 24 133 tabplay~ array0;
#X obj 24 45 delay 500;
#X msg 126 165 1;
#X obj 126 187 send sensorsOnOff;
#X obj 185 22 r ambientoff;
#X obj 94 22 r audioLength0;
#X obj 121 99 spigot;
#X msg 185 67 1;
#X obj 94 45 t b b;
#X msg 94 69 0;
#X connect 0 0 3 0;
#X connect 2 0 1 0;
#X connect 2 1 4 0;
#X connect 3 0 2 0;
#X connect 4 0 5 0;
#X connect 6 0 9 0;
#X connect 7 0 10 0;
#X connect 8 0 2 0;
#X connect 9 0 8 1;
#X connect 10 0 11 0;
#X connect 10 1 8 0;
#X connect 11 0 8 1;
#X restore 14 555 pd interviewStuff;
#X msg 471 198 read -resize ./audio/piano_tuning.aif array0;
#X obj 83 401 s len;
#X obj 14 424 s dur;
#X obj 14 399 / 44.1;
#X connect 0 0 40 0;
#X connect 0 0 42 0;
#X connect 1 0 0 0;
#X connect 2 0 0 0;
#X connect 3 0 0 0;
#X connect 4 0 33 0;
#X connect 8 0 0 0;
#X connect 9 0 0 0;
#X connect 10 0 0 0;
#X connect 11 0 0 0;
#X connect 12 0 0 0;
#X connect 13 0 0 0;
#X connect 14 0 0 0;
#X connect 15 0 0 0;
#X connect 16 0 0 0;
#X connect 17 0 0 0;
#X connect 18 0 0 0;
#X connect 19 0 0 0;
#X connect 20 0 0 0;
#X connect 21 0 0 0;
#X connect 22 0 0 0;
#X connect 23 0 0 0;
#X connect 24 0 0 0;
#X connect 25 0 0 0;
#X connect 26 0 0 0;
#X connect 27 0 0 0;
#X connect 28 0 0 0;
#X connect 29 0 0 0;
#X connect 30 0 0 0;
#X connect 31 0 0 0;
#X connect 32 0 0 0;
#X connect 33 0 1 0;
#X connect 33 0 5 0;
#X connect 33 0 36 0;
#X connect 33 1 8 0;
#X connect 33 1 5 0;
#X connect 33 1 36 0;
#X connect 33 2 9 0;
#X connect 33 2 6 0;
#X connect 33 2 36 0;
#X connect 33 3 10 0;
#X connect 33 3 6 0;
#X connect 33 3 36 0;
#X connect 33 4 11 0;
#X connect 33 4 36 0;
#X connect 33 5 12 0;
#X connect 33 5 5 0;
#X connect 33 5 36 0;
#X connect 33 6 13 0;
#X connect 33 6 5 0;
#X connect 33 6 36 0;
#X connect 33 7 14 0;
#X connect 33 7 5 0;
#X connect 33 7 36 0;
#X connect 33 8 2 0;
#X connect 33 8 5 0;
#X connect 33 8 36 0;
#X connect 33 9 15 0;
#X connect 33 9 6 0;
#X connect 33 9 36 0;
#X connect 33 10 16 0;
#X connect 33 10 5 0;
#X connect 33 10 36 0;
#X connect 33 11 17 0;
#X connect 33 11 5 0;
#X connect 33 11 36 0;
#X connect 33 12 18 0;
#X connect 33 12 5 0;
#X connect 33 12 36 0;
#X connect 33 13 39 0;
#X connect 33 13 5 0;
#X connect 33 13 36 0;
#X connect 33 14 19 0;
#X connect 33 14 5 0;
#X connect 33 14 37 0;
#X connect 33 15 20 0;
#X connect 33 15 5 0;
#X connect 33 15 37 0;
#X connect 33 16 3 0;
#X connect 33 16 5 0;
#X connect 33 16 37 0;
#X connect 33 17 22 0;
#X connect 33 17 5 0;
#X connect 33 17 37 0;
#X connect 33 18 34 0;
#X connect 33 18 5 0;
#X connect 33 18 36 0;
#X connect 33 19 21 0;
#X connect 33 19 5 0;
#X connect 33 19 36 0;
#X connect 33 20 23 0;
#X connect 33 20 5 0;
#X connect 33 20 37 0;
#X connect 33 21 24 0;
#X connect 33 21 6 0;
#X connect 33 21 37 0;
#X connect 33 22 25 0;
#X connect 33 22 5 0;
#X connect 33 22 37 0;
#X connect 33 23 26 0;
#X connect 33 23 6 0;
#X connect 33 23 36 0;
#X connect 33 24 27 0;
#X connect 33 24 5 0;
#X connect 33 24 36 0;
#X connect 33 25 28 0;
#X connect 33 25 5 0;
#X connect 33 25 35 0;
#X connect 33 26 5 0;
#X connect 33 27 5 0;
#X connect 33 28 29 0;
#X connect 33 28 5 0;
#X connect 33 28 36 0;
#X connect 33 29 30 0;
#X connect 33 29 6 0;
#X connect 33 29 36 0;
#X connect 33 30 31 0;
#X connect 33 30 6 0;
#X connect 33 30 37 0;
#X connect 33 31 32 0;
#X connect 33 31 6 0;
#X connect 33 31 36 0;
#X connect 34 0 0 0;
#X connect 39 0 0 0;
#X connect 42 0 41 0;
#X restore 505 26 pd settingfor0;
#X obj 447 317 *~;
#X connect 0 0 2 0;
#X connect 0 0 12 0;
#X connect 2 0 32 0;
#X connect 4 0 6 1;
#X connect 4 0 36 1;
#X connect 5 0 1 0;
#X connect 6 0 5 0;
#X connect 7 0 2 0;
#X connect 7 0 12 0;
#X connect 9 0 8 0;
#X connect 10 0 9 0;
#X connect 11 0 5 1;
#X connect 11 0 9 1;
#X connect 12 1 16 0;
#X connect 13 0 15 0;
#X connect 15 0 14 0;
#X connect 16 0 17 0;
#X connect 16 1 18 0;
#X connect 17 0 30 0;
#X connect 17 0 4 0;
#X connect 18 0 19 0;
#X connect 19 0 21 0;
#X connect 20 0 29 0;
#X connect 21 0 22 0;
#X connect 22 0 20 0;
#X connect 23 0 22 0;
#X connect 23 0 24 0;
#X connect 23 0 28 0;
#X connect 24 0 4 0;
#X connect 25 0 22 0;
#X connect 26 0 27 0;
#X connect 27 0 25 1;
#X connect 28 0 25 1;
#X connect 29 0 23 0;
#X connect 29 0 26 0;
#X connect 30 0 31 0;
#X connect 31 0 25 0;
#X connect 31 1 29 2;
#X connect 32 0 33 0;
#X connect 33 0 3 0;
#X connect 34 0 6 0;
#X connect 34 1 36 0;
#X connect 36 0 9 0;
