#N canvas 453 101 503 642 10;
#X obj 55 19 inlet;
#X obj 326 495 outlet~;
#X obj 326 132 clip 6 33;
#X obj 341 287 tgl 15 0 empty empty empty 17 7 0 10 -262144 -1 -1 0
1;
#X obj 326 469 *~;
#X obj 326 312 *~;
#N canvas 128 75 1204 628 loadSamples 0;
#X obj 14 9 receive settingNum;
#X obj 14 28 select 1 2 3 4 5 6 7 8 9 10 11 12 13 14 15 16 17 18 19
20 21 22 23 24 25 26 27 28 29 30 31 32;
#X msg 14 69 read -resize audio/crickets.aif array5;
#X msg 48 98 read -resize audio/hammer.aif array5;
#X msg 79 125 read -resize audio/piano_hammer.aif array5;
#X msg 111 152 read -resize audio/water3.aif array5;
#X msg 142 176 read -resize audio/glass_breaking.aif array5;
#X msg 222 225 read -resize audio/rhythmicdrips.WAV array5;
#X msg 295 66 read -resize audio/bridgesound1.aif array5;
#X msg 330 90 read -resize audio/facwhistle+mock.aif array5;
#X msg 364 120 read -resize audio/buttonholer.aif array5;
#X msg 435 172 read -resize audio/glass_breaking.aif array5;
#X msg 471 198 read -resize audio/metalhinge1.aif array5;
#X msg 506 224 read -resize audio/piano_hammer.aif array5;
#X msg 541 250 read -resize audio/boatreverse.aif array5;
#X msg 260 249 read -resize audio/crickets.aif array5;
#X msg 576 91 read -resize audio/sign+bell.aif array5;
#X msg 652 119 read -resize audio/churchbells.aif array5;
#X msg 718 170 read -resize audio/heliocopter.aif array5;
#X msg 754 196 read -resize audio/geese+gulls.aif array5;
#X msg 822 119 read -resize audio/bridgesound1.aif array5;
#X msg 857 96 read -resize audio/geese+gulls.aif array5;
#X msg 891 144 read -resize audio/elevator.aif array5;
#X msg 952 296 read -resize audio/wavebangbuf.aif array5;
#X msg 972 271 read -resize audio/pno_pluck.aif array5;
#X msg 990 245 read -resize audio/geese+gulls.aif array5;
#X obj 655 480 send pitchrandmult;
#X obj 864 482 send grainsizemult;
#X msg 655 445 0.5;
#X msg 690 445 0.005;
#X msg 727 445 0.1;
#X msg 759 445 0.2;
#X msg 790 445 0.3;
#X msg 864 447 50;
#X msg 930 446 5;
#X msg 963 447 1;
#X msg 898 447 20;
#X msg 790 228 read -resize audio/piano_tuning2.aiff;
#X msg 926 320 read -resize audio/drillingbursts.wav;
#X msg 193 198 read -resize audio/stepsonice.wav;
#X msg 401 148 read -resize audio/rhythmicdrips.WAV;
#X obj 14 366 soundfiler;
#X obj 87 426 table array5;
#X msg 646 145 read -resize ./audio/heliocopter.aif array5;
#X msg 787 64 read -resize audio/foghorn2.aiff array5;
#X obj 428 482 send 5tapon;
#X obj 510 482 send 5tapoff;
#X connect 0 0 1 0;
#X connect 1 0 2 0;
#X connect 1 0 36 0;
#X connect 1 0 45 0;
#X connect 1 1 3 0;
#X connect 1 1 34 0;
#X connect 1 1 46 0;
#X connect 1 2 4 0;
#X connect 1 2 33 0;
#X connect 1 2 30 0;
#X connect 1 2 45 0;
#X connect 1 3 5 0;
#X connect 1 3 34 0;
#X connect 1 3 32 0;
#X connect 1 3 46 0;
#X connect 1 4 6 0;
#X connect 1 4 33 0;
#X connect 1 4 30 0;
#X connect 1 4 45 0;
#X connect 1 5 39 0;
#X connect 1 5 33 0;
#X connect 1 5 31 0;
#X connect 1 6 7 0;
#X connect 1 6 33 0;
#X connect 1 6 29 0;
#X connect 1 6 46 0;
#X connect 1 7 15 0;
#X connect 1 7 33 0;
#X connect 1 7 31 0;
#X connect 1 7 45 0;
#X connect 1 8 8 0;
#X connect 1 8 35 0;
#X connect 1 8 29 0;
#X connect 1 8 46 0;
#X connect 1 9 9 0;
#X connect 1 9 33 0;
#X connect 1 9 30 0;
#X connect 1 10 10 0;
#X connect 1 10 36 0;
#X connect 1 10 30 0;
#X connect 1 11 40 0;
#X connect 1 11 33 0;
#X connect 1 11 32 0;
#X connect 1 11 46 0;
#X connect 1 12 11 0;
#X connect 1 12 33 0;
#X connect 1 12 46 0;
#X connect 1 13 12 0;
#X connect 1 13 34 0;
#X connect 1 13 32 0;
#X connect 1 13 46 0;
#X connect 1 14 13 0;
#X connect 1 14 33 0;
#X connect 1 14 30 0;
#X connect 1 14 46 0;
#X connect 1 15 14 0;
#X connect 1 15 33 0;
#X connect 1 15 32 0;
#X connect 1 15 46 0;
#X connect 1 16 16 0;
#X connect 1 16 33 0;
#X connect 1 16 30 0;
#X connect 1 16 46 0;
#X connect 1 17 17 0;
#X connect 1 17 33 0;
#X connect 1 17 30 0;
#X connect 1 18 43 0;
#X connect 1 18 33 0;
#X connect 1 18 28 0;
#X connect 1 19 18 0;
#X connect 1 19 33 0;
#X connect 1 19 28 0;
#X connect 1 19 46 0;
#X connect 1 20 19 0;
#X connect 1 20 36 0;
#X connect 1 20 31 0;
#X connect 1 20 32 0;
#X connect 1 20 45 0;
#X connect 1 21 33 0;
#X connect 1 21 28 0;
#X connect 1 21 37 0;
#X connect 1 21 45 0;
#X connect 1 22 33 0;
#X connect 1 22 32 0;
#X connect 1 22 44 0;
#X connect 1 23 20 0;
#X connect 1 23 33 0;
#X connect 1 23 30 0;
#X connect 1 23 46 0;
#X connect 1 24 21 0;
#X connect 1 24 31 0;
#X connect 1 25 22 0;
#X connect 1 25 36 0;
#X connect 1 25 31 0;
#X connect 1 28 38 0;
#X connect 1 28 45 0;
#X connect 1 29 23 0;
#X connect 1 29 35 0;
#X connect 1 29 29 0;
#X connect 1 30 24 0;
#X connect 1 30 36 0;
#X connect 1 30 29 0;
#X connect 1 30 46 0;
#X connect 1 31 25 0;
#X connect 1 31 36 0;
#X connect 1 31 33 0;
#X connect 1 31 30 0;
#X connect 1 31 31 0;
#X connect 2 0 41 0;
#X connect 3 0 41 0;
#X connect 4 0 41 0;
#X connect 5 0 41 0;
#X connect 6 0 41 0;
#X connect 7 0 41 0;
#X connect 8 0 41 0;
#X connect 9 0 41 0;
#X connect 10 0 41 0;
#X connect 11 0 41 0;
#X connect 12 0 41 0;
#X connect 13 0 41 0;
#X connect 14 0 41 0;
#X connect 15 0 41 0;
#X connect 16 0 41 0;
#X connect 17 0 41 0;
#X connect 18 0 41 0;
#X connect 19 0 41 0;
#X connect 20 0 41 0;
#X connect 21 0 41 0;
#X connect 22 0 41 0;
#X connect 23 0 41 0;
#X connect 24 0 41 0;
#X connect 25 0 41 0;
#X connect 28 0 26 0;
#X connect 29 0 26 0;
#X connect 30 0 26 0;
#X connect 31 0 26 0;
#X connect 32 0 26 0;
#X connect 33 0 27 0;
#X connect 34 0 27 0;
#X connect 35 0 27 0;
#X connect 36 0 27 0;
#X connect 37 0 41 0;
#X connect 38 0 41 0;
#X connect 39 0 41 0;
#X connect 40 0 41 0;
#X connect 43 0 41 0;
#X connect 44 0 41 0;
#X restore 382 20 pd loadSamples;
#X floatatom 326 19 5 0 0 0 TEST_VALUES - -;
#X obj 425 494 outlet~;
#X obj 425 468 *~;
#N canvas 1044 46 627 403 volumeSettings 0;
#X obj 32 248 outlet;
#X obj 246 247 outlet;
#X obj 12 29 loadbang;
#X msg 111 77 1;
#X msg 32 80 1.15;
#X obj 246 160 * 0.9;
#X obj 31 49 r 5volume136;
#X obj 111 49 r 5volume126;
#X connect 2 0 4 0;
#X connect 3 0 5 0;
#X connect 3 0 0 0;
#X connect 4 0 5 0;
#X connect 4 0 0 0;
#X connect 5 0 1 0;
#X connect 6 0 4 0;
#X connect 7 0 3 0;
#X restore 341 365 pd volumeSettings;
#N canvas 60 58 450 300 delay 0;
#X msg 117 88 0;
#X msg 180 85 1;
#X obj 102 155 *~;
#X obj 243 149 *~;
#X obj 258 116 *~ 0.015;
#X obj 322 117 * 25;
#X msg 322 147 \$1 500;
#X obj 322 177 line 200;
#X obj 68 64 inlet~;
#X obj 322 232 outlet~;
#X obj 117 63 r 5tapoff;
#X obj 180 63 r 5tapon;
#X obj 102 186 delwrite~ tapFive 1000;
#X obj 322 201 delread~ tapFive 800;
#X obj 258 82 r location5;
#X connect 0 0 2 1;
#X connect 1 0 2 1;
#X connect 2 0 12 0;
#X connect 3 0 12 0;
#X connect 4 0 3 1;
#X connect 5 0 6 0;
#X connect 6 0 7 0;
#X connect 7 0 13 0;
#X connect 8 0 2 0;
#X connect 10 0 0 0;
#X connect 11 0 1 0;
#X connect 13 0 3 0;
#X connect 13 0 9 0;
#X connect 14 0 4 0;
#X connect 14 0 5 0;
#X restore 381 410 pd delay;
#N canvas 439 219 537 470 grain1 0;
#X obj 207 255 inlet;
#X obj 53 339 outlet~;
#X obj 54 295 tof/sample_granule~ array5;
#X obj 54 92 tgl 15 0 empty empty empty 17 7 0 10 -262144 -1 -1 1 1
;
#X floatatom 238 272 5 0 0 0 - - -;
#X msg 106 129 grain \$1;
#X obj 106 72 * 50;
#X obj 106 100 * 44.1;
#X text 148 95 (samps to ms conversion);
#X obj 127 40 receive grainsizemult;
#X obj 364 42 receive pitchrandmult;
#X obj 130 268 * 0.1;
#X msg 170 77 50;
#X msg 188 235 0.1;
#X msg 279 273 88200;
#X obj 29 97 bng 15 250 50 0 empty empty empty 17 7 0 10 -262144 -1
-1;
#X obj 130 235 random 1;
#X obj 130 209 metro 30;
#X obj 130 164 loadbang;
#X msg 130 187 1;
#X obj 106 18 receive location5;
#X connect 0 0 2 2;
#X connect 2 0 1 0;
#X connect 2 1 1 0;
#X connect 3 0 2 0;
#X connect 4 0 2 2;
#X connect 5 0 2 0;
#X connect 6 0 7 0;
#X connect 7 0 5 0;
#X connect 9 0 6 1;
#X connect 10 0 11 1;
#X connect 11 0 2 1;
#X connect 12 0 6 1;
#X connect 13 0 11 1;
#X connect 14 0 2 2;
#X connect 15 0 2 0;
#X connect 16 0 11 0;
#X connect 17 0 16 0;
#X connect 18 0 19 0;
#X connect 19 0 17 0;
#X connect 19 0 3 0;
#X connect 20 0 6 0;
#X connect 20 0 16 1;
#X restore 326 257 pd grain1;
#X obj 55 202 moses 5;
#X obj 127 276 moses 34;
#X msg 77 303 1;
#X msg 207 300 0;
#X obj 207 327 change;
#X obj 207 399 metro 60;
#X obj 207 354 sel 0;
#X obj 207 378 tgl 15 0 empty empty empty 17 7 0 10 -262144 -1 -1 0
1;
#X obj 183 455 select 70;
#X obj 183 482 delay 100;
#X obj 77 520 spigot 1;
#X obj 258 455 select 0;
#X msg 258 482 0;
#X msg 122 483 1;
#X obj 207 425 counter 0 0 70;
#X obj 77 353 speedlim 2000;
#X obj 77 388 t 1 b;
#X obj 326 159 s location5;
#X connect 0 0 2 0;
#X connect 0 0 13 0;
#X connect 2 0 30 0;
#X connect 3 0 5 1;
#X connect 4 0 1 0;
#X connect 5 0 4 0;
#X connect 5 0 11 0;
#X connect 7 0 2 0;
#X connect 7 0 13 0;
#X connect 9 0 8 0;
#X connect 10 0 4 1;
#X connect 10 1 9 1;
#X connect 11 0 9 0;
#X connect 12 0 5 0;
#X connect 13 1 14 0;
#X connect 14 0 15 0;
#X connect 14 1 16 0;
#X connect 15 0 28 0;
#X connect 15 0 3 0;
#X connect 16 0 17 0;
#X connect 17 0 19 0;
#X connect 18 0 27 0;
#X connect 19 0 20 0;
#X connect 20 0 18 0;
#X connect 21 0 20 0;
#X connect 21 0 22 0;
#X connect 21 0 26 0;
#X connect 22 0 3 0;
#X connect 23 0 20 0;
#X connect 24 0 25 0;
#X connect 25 0 23 1;
#X connect 26 0 23 1;
#X connect 27 0 21 0;
#X connect 27 0 24 0;
#X connect 28 0 29 0;
#X connect 29 0 23 0;
#X connect 29 1 27 2;
