#N canvas 281 308 1024 513 10;
#X obj 123 384 s grainread;
#X obj 273 474 s grainspeed;
#X obj 437 473 s grainscatter;
#X obj 176 474 s grainmultiply;
#X obj 352 474 s grainspread;
#X obj 528 473 s grainfade;
#X obj 61 474 s grainspeedspread;
#X obj 98 298 f;
#X obj 98 325 * 1;
#X obj 437 409 loadbang;
#X obj 59 351 del 100;
#X obj 59 269 t b b;
#X obj 704 472 s feedbackpos;
#X obj 790 471 s feedbackjitter;
#X obj 602 472 s feedbackamount;
#X msg 61 444 0;
#X msg 176 444 1;
#X msg 704 439 0;
#X msg 273 444 1;
#X msg 352 447 0;
#X msg 528 446 2;
#X msg 437 444 1;
#X obj 804 37 catch~ outL;
#X obj 804 103 outlet~;
#X obj 509 29 r seed;
#X obj 509 52 sel 0 1 2 3 4 5 6 7 8 9 10;
#N canvas 0 22 450 300 seedgen 0;
#X obj 101 184 s seed;
#N canvas 0 22 450 300 counter 0;
#X obj 121 147 f;
#X obj 177 147 + 1;
#X obj 184 194 moses 11;
#X msg 228 225 0;
#X obj 122 94 inlet;
#X obj 122 250 outlet;
#X obj 270 226 outlet;
#X connect 0 0 1 0;
#X connect 0 0 5 0;
#X connect 1 0 2 0;
#X connect 2 0 0 1;
#X connect 2 1 3 0;
#X connect 3 0 0 1;
#X connect 3 0 6 0;
#X connect 4 0 0 0;
#X restore 101 162 pd counter;
#X obj 101 122 del 30;
#X obj 149 122 spigot;
#X obj 101 76 t b b;
#X msg 152 99 1;
#X obj 101 57 bng 15 250 50 0 empty empty empty 17 7 0 10 -262144 -1
-1;
#X obj 101 34 loadbang;
#X connect 1 0 0 0;
#X connect 1 1 3 1;
#X connect 2 0 1 0;
#X connect 2 0 3 0;
#X connect 3 0 2 0;
#X connect 4 0 2 0;
#X connect 4 1 5 0;
#X connect 5 0 3 1;
#X connect 6 0 4 0;
#X connect 7 0 6 0;
#X restore 509 12 pd seedgen;
#X obj 508 187 throw~ outL;
#X obj 508 257 throw~ outL;
#X obj 508 327 throw~ outL;
#X obj 508 397 throw~ outL;
#X obj 682 187 throw~ outL;
#X obj 682 257 throw~ outL;
#X obj 682 327 throw~ outL;
#X obj 682 397 throw~ outL;
#X obj 508 117 throw~ outL;
#X obj 682 117 throw~ outL;
#X obj 509 90 GRAINREAD_mono;
#X obj 59 198 inlet;
#X obj 59 241 sel 1 0;
#X obj 683 90 GRAINREAD_mono;
#X obj 683 160 GRAINREAD_mono;
#X obj 683 230 GRAINREAD_mono;
#X obj 683 300 GRAINREAD_mono;
#X obj 683 370 GRAINREAD_mono;
#X obj 509 160 GRAINREAD_mono;
#X obj 509 230 GRAINREAD_mono;
#X obj 509 300 GRAINREAD_mono;
#X obj 509 370 GRAINREAD_mono;
#X msg 123 359 0 \, 20 \$1;
#X obj 804 73 *~ 0.3;
#X obj 390 348 bng 15 250 50 0 empty empty empty 17 7 0 10 -262144
-1 -1;
#X floatatom 148 319 15 0 0 0 - - -;
#X obj 134 206 bng 15 250 50 0 empty empty empty 17 7 0 10 -262144
-1 -1;
#X obj 185 213 inlet;
#X obj 113 267 r dur;
#X floatatom 21 238 5 0 0 0 - - -;
#X floatatom 186 360 15 0 0 0 - - -;
#X msg 166 162 0;
#X connect 7 0 8 0;
#X connect 7 0 52 0;
#X connect 8 0 49 0;
#X connect 8 0 10 1;
#X connect 8 0 57 0;
#X connect 9 0 15 0;
#X connect 9 0 19 0;
#X connect 9 0 18 0;
#X connect 9 0 16 0;
#X connect 9 0 21 0;
#X connect 9 0 20 0;
#X connect 9 0 17 0;
#X connect 10 0 11 0;
#X connect 11 0 10 0;
#X connect 11 1 7 0;
#X connect 15 0 6 0;
#X connect 16 0 3 0;
#X connect 17 0 14 0;
#X connect 17 0 12 0;
#X connect 17 0 13 0;
#X connect 18 0 1 0;
#X connect 19 0 4 0;
#X connect 20 0 5 0;
#X connect 21 0 2 0;
#X connect 22 0 50 0;
#X connect 24 0 25 0;
#X connect 25 0 37 0;
#X connect 25 1 45 0;
#X connect 25 2 46 0;
#X connect 25 3 47 0;
#X connect 25 4 48 0;
#X connect 25 5 41 0;
#X connect 25 6 42 0;
#X connect 25 7 43 0;
#X connect 25 8 44 0;
#X connect 25 9 40 0;
#X connect 37 0 35 0;
#X connect 38 0 39 0;
#X connect 38 0 56 0;
#X connect 39 0 11 0;
#X connect 40 0 36 0;
#X connect 41 0 31 0;
#X connect 42 0 32 0;
#X connect 43 0 33 0;
#X connect 44 0 34 0;
#X connect 45 0 27 0;
#X connect 46 0 28 0;
#X connect 47 0 29 0;
#X connect 48 0 30 0;
#X connect 49 0 0 0;
#X connect 50 0 23 0;
#X connect 51 0 9 0;
#X connect 53 0 7 0;
#X connect 54 0 8 1;
#X connect 55 0 7 1;
#X connect 58 0 39 0;
