#N canvas 578 23 735 472 10;
#X obj 21 40 table array5;
#X obj 9 327 tabread4~ array5;
#X obj 279 112 expr 44100 / $f1;
#X obj 279 82 soundfiler;
#X obj 279 151 phasor~;
#X obj 279 178 *~;
#X obj 11 411 dac~ 1 2;
#X msg 279 53 read -resize audio/sax.aif array5;
#X obj 8 191 phasor~;
#X floatatom 8 147 5 0 0 0 - - -;
#X obj 8 226 *~ 256;
#X obj 122 262 samphold~;
#X obj 9 296 +~;
#X obj 124 325 tabread~ hanningish;
#X obj 251 390 table hanningish;
#X obj 9 354 *~;
#X obj 349 222 +~ 0.5;
#X obj 349 246 wrap~;
#X obj 349 328 tabread4~ array5;
#X obj 349 271 *~ 256;
#X obj 406 271 samphold~;
#X obj 349 297 +~;
#X obj 464 326 tabread~ hanningish;
#X obj 349 355 *~;
#X obj 9 378 *~ 0.6;
#X connect 1 0 15 0;
#X connect 2 0 4 0;
#X connect 3 0 2 0;
#X connect 3 0 5 1;
#X connect 4 0 5 0;
#X connect 5 0 11 0;
#X connect 5 0 20 0;
#X connect 7 0 3 0;
#X connect 8 0 10 0;
#X connect 8 0 11 1;
#X connect 8 0 16 0;
#X connect 9 0 8 0;
#X connect 10 0 12 0;
#X connect 10 0 13 0;
#X connect 11 0 12 1;
#X connect 12 0 1 0;
#X connect 13 0 15 1;
#X connect 15 0 24 0;
#X connect 16 0 17 0;
#X connect 17 0 19 0;
#X connect 17 0 20 1;
#X connect 18 0 23 0;
#X connect 19 0 21 0;
#X connect 19 0 22 0;
#X connect 20 0 21 1;
#X connect 21 0 18 0;
#X connect 22 0 23 1;
#X connect 23 0 24 0;
#X connect 24 0 6 0;
#X connect 24 0 6 1;
