#N canvas 0 22 173 295 10;
#X obj 26 229 outlet~;
#X obj 26 182 tabread~ array3;
#X obj 41 126 r audioLength;
#X obj 26 154 *~;
#X obj 26 30 inlet;
#X obj 26 70 sig~;
#X obj 26 100 phasor~;
#X connect 1 0 0 0;
#X connect 2 0 3 1;
#X connect 3 0 1 0;
#X connect 4 0 5 0;
#X connect 5 0 6 0;
#X connect 6 0 3 0;
