#N canvas 284 131 620 435 10;
#X obj 115 27 inlet;
#X obj 368 404 outlet~;
#X obj 154 103 moses 34;
#X msg 104 130 1;
#X msg 234 127 0;
#X obj 234 154 change;
#X obj 234 226 metro 60;
#X obj 234 181 sel 0;
#X obj 234 205 tgl 15 0 empty empty empty 17 7 0 10 -262144 -1 -1 1
1;
#X obj 210 283 select 70;
#X obj 210 310 delay 100;
#X obj 104 346 spigot 1;
#X obj 285 283 select 0;
#X msg 285 310 0;
#X msg 149 308 1;
#X obj 368 303 *~;
#X obj 368 179 *~;
#X msg 369 51 \$1 300;
#X obj 369 74 line 0;
#X obj 369 98 * 0.045;
#N canvas 148 156 1024 628 loadSamples 0;
#X obj 14 366 soundfiler;
#X msg 14 69 read -resize ./audio/water3.aif array3;
#X msg 295 66 read -resize ./audio/glass_breaking.aif array3;
#X msg 576 91 read -resize ./audio/greyston4.aif array3;
#X msg 857 96 read -resize ./audio/churchbells.aif array3;
#X obj 14 9 receive settingNum;
#X obj 14 37 select 1 2 3 4 5 6 7 8 9 10 11 12 13 14 15 16 17 18 19
20 21 22 23 24 25 26 27 28 29 30 31 32;
#X obj 648 420 send 3tapoff;
#X obj 735 422 send 3tapon;
#X obj 811 420 send 3volume127;
#X obj 1009 420 send 3volume145;
#X obj 909 420 send 3volume135;
#X msg 646 145 read ./audio/tennis.aif array3;
#X msg 49 95 read -resize ./audio/c_ray2.aif array3;
#X msg 84 121 read -resize ./audio/pno_pluck.aif array3;
#X msg 161 178 read -resize ./audio/glass_chipping.aif array3;
#X msg 191 201 read -resize ./audio/34sL.aif array3;
#X msg 224 223 read -resize ./audio/sandwalk.aif array3;
#X msg 260 249 read -resize ./audio/2_2_4_sheddrips.wav array3;
#X msg 330 90 read -resize ./audio/trolley2.aif array3;
#X msg 364 120 read -resize ./audio/montagemachine.wav array3;
#X msg 400 147 read -resize ./audio/bridgesound1.aif array3;
#X msg 435 172 read -resize ./audio/piano_tuning.aif array3;
#X msg 471 198 read -resize ./audio/wavebangbuf2.aif array3;
#X msg 506 224 read -resize ./audio/pno_pluck.aif array3;
#X msg 541 250 read -resize ./audio/sax.aif array3;
#X msg 787 64 read -resize ./audio/bridgesound4.aif array3;
#X msg 891 144 read -resize ./audio/paintmixer.aif array3;
#X msg 822 119 read -resize ./audio/rightear15.aif array3;
#X msg 990 245 read -resize ./audio/greyston2NR.wav array3;
#X msg 972 271 read -resize ./audio/dogsbarking.aif array3;
#X msg 952 296 read -resize ./audio/badprinter.wav array3;
#X msg 926 320 read -resize ./audio/bridgesound3.aif array3;
#X msg 718 170 read -resize ./audio/motorboatecho.aif array3;
#X msg 754 196 read -resize ./audio/pigeons.aif array3;
#X msg 789 224 read -resize ./audio/bartonsifter3.aif array3;
#X msg 652 119 read -resize ./audio/night.wav array3;
#X msg 118 150 read -resize ./audio/rhythmicdrips.WAV array3;
#X obj 14 425 s audioLength3;
#X obj 47 397 table array3;
#X connect 0 0 38 0;
#X connect 1 0 0 0;
#X connect 2 0 0 0;
#X connect 3 0 0 0;
#X connect 4 0 0 0;
#X connect 5 0 6 0;
#X connect 6 0 1 0;
#X connect 6 0 7 0;
#X connect 6 0 9 0;
#X connect 6 1 13 0;
#X connect 6 1 8 0;
#X connect 6 1 10 0;
#X connect 6 2 14 0;
#X connect 6 2 8 0;
#X connect 6 2 9 0;
#X connect 6 3 37 0;
#X connect 6 3 8 0;
#X connect 6 3 11 0;
#X connect 6 4 15 0;
#X connect 6 4 8 0;
#X connect 6 4 10 0;
#X connect 6 5 16 0;
#X connect 6 5 7 0;
#X connect 6 5 11 0;
#X connect 6 6 17 0;
#X connect 6 6 7 0;
#X connect 6 6 10 0;
#X connect 6 7 18 0;
#X connect 6 7 8 0;
#X connect 6 7 11 0;
#X connect 6 8 2 0;
#X connect 6 8 7 0;
#X connect 6 8 10 0;
#X connect 6 9 19 0;
#X connect 6 9 8 0;
#X connect 6 9 9 0;
#X connect 6 10 20 0;
#X connect 6 10 8 0;
#X connect 6 10 11 0;
#X connect 6 11 21 0;
#X connect 6 11 8 0;
#X connect 6 11 9 0;
#X connect 6 12 22 0;
#X connect 6 12 8 0;
#X connect 6 12 11 0;
#X connect 6 13 23 0;
#X connect 6 13 7 0;
#X connect 6 13 9 0;
#X connect 6 14 24 0;
#X connect 6 14 7 0;
#X connect 6 14 9 0;
#X connect 6 15 25 0;
#X connect 6 15 7 0;
#X connect 6 15 9 0;
#X connect 6 16 3 0;
#X connect 6 16 7 0;
#X connect 6 16 10 0;
#X connect 6 17 36 0;
#X connect 6 17 7 0;
#X connect 6 17 9 0;
#X connect 6 18 12 0;
#X connect 6 18 8 0;
#X connect 6 18 11 0;
#X connect 6 19 33 0;
#X connect 6 19 7 0;
#X connect 6 19 11 0;
#X connect 6 20 34 0;
#X connect 6 20 7 0;
#X connect 6 20 9 0;
#X connect 6 21 35 0;
#X connect 6 21 9 0;
#X connect 6 21 7 0;
#X connect 6 22 26 0;
#X connect 6 22 8 0;
#X connect 6 22 11 0;
#X connect 6 23 28 0;
#X connect 6 23 7 0;
#X connect 6 23 11 0;
#X connect 6 24 4 0;
#X connect 6 24 8 0;
#X connect 6 24 9 0;
#X connect 6 25 27 0;
#X connect 6 25 7 0;
#X connect 6 25 11 0;
#X connect 6 28 32 0;
#X connect 6 28 7 0;
#X connect 6 28 11 0;
#X connect 6 29 31 0;
#X connect 6 29 7 0;
#X connect 6 29 9 0;
#X connect 6 30 30 0;
#X connect 6 30 8 0;
#X connect 6 30 11 0;
#X connect 6 31 29 0;
#X connect 6 31 8 0;
#X connect 6 31 11 0;
#X connect 12 0 0 0;
#X connect 13 0 0 0;
#X connect 14 0 0 0;
#X connect 15 0 0 0;
#X connect 16 0 0 0;
#X connect 17 0 0 0;
#X connect 18 0 0 0;
#X connect 19 0 0 0;
#X connect 20 0 0 0;
#X connect 21 0 0 0;
#X connect 22 0 0 0;
#X connect 23 0 0 0;
#X connect 24 0 0 0;
#X connect 25 0 0 0;
#X connect 26 0 0 0;
#X connect 27 0 0 0;
#X connect 28 0 0 0;
#X connect 29 0 0 0;
#X connect 30 0 0 0;
#X connect 31 0 0 0;
#X connect 32 0 0 0;
#X connect 33 0 0 0;
#X connect 34 0 0 0;
#X connect 35 0 0 0;
#X connect 36 0 0 0;
#X connect 37 0 0 0;
#X restore 509 25 pd loadSamples;
#X floatatom 225 26 5 0 0 0 TEST_VALUES - -;
#N canvas 516 376 243 283 groove 0;
#X obj 16 219 outlet~;
#X obj 16 172 tabread~ array3;
#X obj 17 21 inlet;
#X obj 16 136 *~;
#X obj 81 60 / 44100;
#X obj 81 86 expr 1/$f1;
#X obj 17 50 *;
#X obj 17 76 sig~;
#X obj 17 106 phasor~;
#X obj 81 33 r audioLength3;
#X connect 1 0 0 0;
#X connect 2 0 6 0;
#X connect 3 0 1 0;
#X connect 4 0 5 0;
#X connect 5 0 6 1;
#X connect 6 0 7 0;
#X connect 7 0 8 0;
#X connect 8 0 3 0;
#X connect 9 0 4 0;
#X connect 9 0 3 1;
#X restore 369 123 pd groove;
#X obj 467 403 outlet~;
#X obj 467 303 *~;
#N canvas 98 159 345 435 delay 0;
#X obj 47 187 *~;
#X obj 135 187 *~;
#X obj 150 154 *~ 0.015;
#X obj 214 155 * 25;
#X obj 47 217 delwrite~ tapThree 1000;
#X obj 47 25 inlet~;
#X obj 214 225 outlet~;
#X obj 62 97 r 3tapoff;
#X obj 123 97 r 3tapon;
#X msg 62 122 0;
#X msg 123 119 1;
#X obj 214 120 r location3;
#X obj 214 186 vd~ tapThree 800;
#X connect 0 0 4 0;
#X connect 1 0 4 0;
#X connect 2 0 1 1;
#X connect 3 0 12 0;
#X connect 5 0 0 0;
#X connect 7 0 9 0;
#X connect 8 0 10 0;
#X connect 9 0 0 1;
#X connect 10 0 0 1;
#X connect 11 0 2 0;
#X connect 11 0 3 0;
#X connect 12 0 1 0;
#X connect 12 0 6 0;
#X restore 416 252 pd delay;
#N canvas 635 46 1060 368 volumeSettings 0;
#X obj 12 19 loadbang;
#X obj 31 39 r 3volume135;
#X obj 195 39 r 3volume127;
#X obj 113 39 r 3volume145;
#X msg 195 67 1;
#X msg 32 70 1.15;
#X msg 113 67 1.25;
#X obj 32 201 outlet;
#X obj 195 200 outlet;
#X msg 229 67 0.9;
#X msg 151 67 1.12;
#X msg 69 70 1.02;
#X connect 0 0 5 0;
#X connect 0 0 11 0;
#X connect 1 0 5 0;
#X connect 1 0 11 0;
#X connect 2 0 4 0;
#X connect 2 0 9 0;
#X connect 3 0 6 0;
#X connect 3 0 10 0;
#X connect 4 0 7 0;
#X connect 5 0 7 0;
#X connect 6 0 7 0;
#X connect 9 0 8 0;
#X connect 10 0 8 0;
#X connect 11 0 8 0;
#X restore 383 277 pd volumeSettings;
#X obj 115 77 moses 5;
#X obj 234 252 counter 0 0 70;
#X obj 104 164 speedlim 2000;
#X obj 104 193 t 1 b;
#X obj 369 26 r location3;
#X obj 27 129 s location3;
#X obj 383 159 tgl 15 0 empty empty empty 17 7 0 10 -262144 -1 -1 0
1;
#X connect 0 0 27 0;
#X connect 2 0 3 0;
#X connect 2 0 32 0;
#X connect 2 1 4 0;
#X connect 3 0 29 0;
#X connect 3 0 33 0;
#X connect 4 0 5 0;
#X connect 5 0 7 0;
#X connect 6 0 28 0;
#X connect 7 0 8 0;
#X connect 8 0 6 0;
#X connect 9 0 8 0;
#X connect 9 0 10 0;
#X connect 9 0 14 0;
#X connect 10 0 33 0;
#X connect 11 0 8 0;
#X connect 12 0 13 0;
#X connect 13 0 11 1;
#X connect 14 0 11 1;
#X connect 15 0 1 0;
#X connect 16 0 15 0;
#X connect 16 0 25 0;
#X connect 17 0 18 0;
#X connect 18 0 19 0;
#X connect 19 0 22 0;
#X connect 21 0 27 0;
#X connect 22 0 16 0;
#X connect 24 0 23 0;
#X connect 25 0 24 0;
#X connect 26 0 15 1;
#X connect 26 1 24 1;
#X connect 27 1 2 0;
#X connect 28 0 9 0;
#X connect 28 0 12 0;
#X connect 29 0 30 0;
#X connect 30 0 11 0;
#X connect 30 1 28 2;
#X connect 31 0 17 0;
#X connect 33 0 16 1;
