#N canvas 560 205 503 642 10;
#X obj 19 19 inlet;
#X obj 326 495 outlet~;
#X obj 341 287 tgl 15 0 empty empty empty 17 7 0 10 -262144 -1 -1 1
1;
#X obj 326 469 *~;
#X obj 326 312 *~;
#X obj 326 194 line 0;
#X obj 326 219 * 0.045;
#N canvas 63 200 1204 628 loadSamples 0;
#X obj 14 366 soundfiler;
#X obj 14 9 receive settingNum;
#X obj 14 37 select 1 2 3 4 5 6 7 8 9 10 11 12 13 14 15 16 17 18 19
20 21 22 23 24 25 26 27 28 29 30 31 32;
#N canvas 0 22 450 278 (subpatch) 0;
#X array array4 881956 float 2;
#X coords 0 1 881956 -1 200 140 1 0 0;
#X restore 129 396 graph;
#X msg 14 69 read -resize ./audio/drillingbursts.wav array4;
#X msg 49 95 read -resize ./audio/c_ray2.aif array4;
#X msg 84 121 read -resize ./audio/bridgesound1.aif array4;
#X msg 119 149 read -resize ./audio/buttonholer.aif array4;
#X msg 154 175 read -resize ./audio/glass_cutting.aif array4;
#X msg 191 201 read -resize ./audio/flagpole.aif array4;
#X msg 224 223 read -resize ./audio/laskyrachet.aif array4;
#X msg 295 66 read -resize ./audio/greyston2NR.wav array4;
#X msg 330 90 read -resize ./audio/pinningmachine.wav array4;
#X msg 400 147 read -resize ./audio/water1.aif array4;
#X msg 435 172 read -resize ./audio/glass_ice.aif array4;
#X msg 471 198 read -resize ./audio/bridgesound1.aif array4;
#X msg 506 224 read -resize ./audio/bridgesound3.aif array4;
#X msg 541 250 read -resize ./audio/skateboardstereo.aif array4;
#X msg 576 91 read -resize ./audio/rightear12.aif array4;
#X msg 652 119 read -resize ./audio/34sL.aif array4;
#X msg 646 145 read ./audio/waves.aif array4;
#X msg 718 170 read -resize ./audio/grinder.aif array4;
#X msg 754 196 read -resize ./audio/localbirds2.aif array4;
#X msg 789 224 read -resize ./audio/foghorn2.aiff array4;
#X msg 787 64 read -resize ./audio/foghorn2.aiff array4;
#X msg 822 119 read -resize ./audio/rightear15.aif array4;
#X msg 857 96 read -resize ./audio/crickets.aif array4;
#X msg 891 144 read -resize ./audio/montagemachine.wav array4;
#X msg 926 320 read -resize ./audio/pno_pluck.aif array4;
#X msg 952 296 read -resize ./audio/shakesound8.aif array4;
#X msg 972 271 read -resize ./audio/ferryboatbarge.aif array4;
#X msg 990 245 read -resize ./audio/bridgesound3.aif array4;
#X msg 260 249 read -resize ./audio/sax.aif array4;
#X msg 364 120 read -resize ./audio/facwhistle1srt.aif array4;
#X obj 14 396 s audioLength4;
#X obj 430 476 send 4tapon;
#X obj 570 432 send 4tapoff;
#X obj 909 443 send 4volume136;
#X obj 1009 443 send 4volume126;
#X connect 0 0 34 0;
#X connect 1 0 2 0;
#X connect 2 0 4 0;
#X connect 2 0 35 0;
#X connect 2 0 38 0;
#X connect 2 1 5 0;
#X connect 2 1 35 0;
#X connect 2 1 38 0;
#X connect 2 2 6 0;
#X connect 2 2 35 0;
#X connect 2 2 38 0;
#X connect 2 3 7 0;
#X connect 2 3 36 0;
#X connect 2 3 38 0;
#X connect 2 4 8 0;
#X connect 2 4 35 0;
#X connect 2 4 37 0;
#X connect 2 5 9 0;
#X connect 2 5 35 0;
#X connect 2 5 38 0;
#X connect 2 6 10 0;
#X connect 2 6 35 0;
#X connect 2 6 38 0;
#X connect 2 7 32 0;
#X connect 2 7 35 0;
#X connect 2 7 38 0;
#X connect 2 8 11 0;
#X connect 2 8 36 0;
#X connect 2 8 38 0;
#X connect 2 9 12 0;
#X connect 2 9 35 0;
#X connect 2 9 38 0;
#X connect 2 10 33 0;
#X connect 2 10 36 0;
#X connect 2 10 38 0;
#X connect 2 11 13 0;
#X connect 2 11 36 0;
#X connect 2 11 37 0;
#X connect 2 12 14 0;
#X connect 2 12 35 0;
#X connect 2 12 38 0;
#X connect 2 13 15 0;
#X connect 2 13 36 0;
#X connect 2 13 38 0;
#X connect 2 14 16 0;
#X connect 2 14 36 0;
#X connect 2 14 38 0;
#X connect 2 15 17 0;
#X connect 2 15 35 0;
#X connect 2 15 38 0;
#X connect 2 16 18 0;
#X connect 2 16 35 0;
#X connect 2 16 37 0;
#X connect 2 17 19 0;
#X connect 2 17 36 0;
#X connect 2 17 37 0;
#X connect 2 18 20 0;
#X connect 2 18 36 0;
#X connect 2 18 38 0;
#X connect 2 19 21 0;
#X connect 2 19 35 0;
#X connect 2 19 38 0;
#X connect 2 20 22 0;
#X connect 2 20 36 0;
#X connect 2 20 38 0;
#X connect 2 21 23 0;
#X connect 2 21 35 0;
#X connect 2 21 38 0;
#X connect 2 22 24 0;
#X connect 2 22 35 0;
#X connect 2 22 38 0;
#X connect 2 23 25 0;
#X connect 2 23 36 0;
#X connect 2 23 38 0;
#X connect 2 24 26 0;
#X connect 2 24 35 0;
#X connect 2 24 38 0;
#X connect 2 25 27 0;
#X connect 2 25 35 0;
#X connect 2 25 38 0;
#X connect 2 28 28 0;
#X connect 2 28 35 0;
#X connect 2 28 38 0;
#X connect 2 29 29 0;
#X connect 2 29 35 0;
#X connect 2 29 38 0;
#X connect 2 30 30 0;
#X connect 2 30 35 0;
#X connect 2 30 38 0;
#X connect 2 31 31 0;
#X connect 2 31 35 0;
#X connect 2 31 37 0;
#X connect 4 0 0 0;
#X connect 5 0 0 0;
#X connect 6 0 0 0;
#X connect 7 0 0 0;
#X connect 8 0 0 0;
#X connect 9 0 0 0;
#X connect 10 0 0 0;
#X connect 11 0 0 0;
#X connect 12 0 0 0;
#X connect 13 0 0 0;
#X connect 14 0 0 0;
#X connect 15 0 0 0;
#X connect 16 0 0 0;
#X connect 17 0 0 0;
#X connect 18 0 0 0;
#X connect 19 0 0 0;
#X connect 20 0 0 0;
#X connect 21 0 0 0;
#X connect 22 0 0 0;
#X connect 23 0 0 0;
#X connect 24 0 0 0;
#X connect 25 0 0 0;
#X connect 26 0 0 0;
#X connect 27 0 0 0;
#X connect 28 0 0 0;
#X connect 29 0 0 0;
#X connect 30 0 0 0;
#X connect 31 0 0 0;
#X connect 32 0 0 0;
#X connect 33 0 0 0;
#X restore 382 20 pd loadSamples;
#X floatatom 326 19 5 0 0 0 TEST_VALUES - -;
#X obj 425 494 outlet~;
#X obj 425 468 *~;
#N canvas 218 320 294 388 groove 0;
#X obj 27 200 outlet~;
#X obj 27 31 inlet;
#X obj 27 146 *~;
#X obj 90 70 / 44100;
#X obj 90 96 expr 1/$f1;
#X obj 27 59 *;
#X obj 27 86 sig~;
#X obj 27 116 phasor~;
#X obj 27 174 tabread~ array4;
#X obj 91 43 r audioLength4;
#X connect 1 0 5 0;
#X connect 2 0 8 0;
#X connect 3 0 4 0;
#X connect 4 0 5 1;
#X connect 5 0 6 0;
#X connect 6 0 7 0;
#X connect 7 0 2 0;
#X connect 8 0 0 0;
#X connect 9 0 3 0;
#X connect 9 0 2 1;
#X restore 326 250 pd groove;
#N canvas 865 263 346 293 volumeSettings 0;
#X obj 32 248 outlet;
#X obj 246 247 outlet;
#X obj 12 29 loadbang;
#X msg 111 77 1;
#X msg 32 80 1.15;
#X obj 246 160 * 0.8;
#X obj 31 49 r 4volume136;
#X obj 111 50 r 4volume126;
#X connect 2 0 4 0;
#X connect 3 0 0 0;
#X connect 3 0 5 0;
#X connect 4 0 0 0;
#X connect 4 0 5 0;
#X connect 5 0 1 0;
#X connect 6 0 4 0;
#X connect 7 0 3 0;
#X restore 341 365 pd volumeSettings;
#N canvas 663 242 633 496 delay 0;
#X obj 36 189 *~;
#X obj 124 189 *~;
#X obj 139 156 *~ 0.015;
#X obj 203 157 * 25;
#X msg 203 187 \$1 500;
#X obj 36 27 inlet~;
#X obj 36 321 outlet~;
#X msg 51 84 0;
#X msg 81 106 1;
#X obj 203 217 line~ 200;
#X obj 51 59 r 4tapoff;
#X obj 81 84 r 4tapon;
#X obj 36 221 delwrite~ tapFour 1000;
#X obj 36 281 vd~ tapFour 800;
#X obj 204 122 r location4;
#X connect 0 0 12 0;
#X connect 1 0 12 0;
#X connect 2 0 1 1;
#X connect 3 0 4 0;
#X connect 4 0 9 0;
#X connect 5 0 0 0;
#X connect 7 0 0 1;
#X connect 8 0 0 1;
#X connect 9 0 13 0;
#X connect 10 0 7 0;
#X connect 11 0 8 0;
#X connect 13 0 1 0;
#X connect 13 0 6 0;
#X connect 14 0 2 0;
#X connect 14 0 3 0;
#X restore 381 410 pd delay;
#X obj 326 132 clip 6 33;
#X floatatom 96 125 5 0 0 0 - - -;
#X obj 125 270 moses 34;
#X msg 75 297 1;
#X msg 205 294 0;
#X obj 205 321 change;
#X obj 205 393 metro 60;
#X obj 205 348 sel 0;
#X obj 205 372 tgl 15 0 empty empty empty 17 7 0 10 -262144 -1 -1 1
1;
#X obj 181 450 select 70;
#X obj 181 477 delay 100;
#X obj 105 515 spigot 1;
#X obj 256 450 select 0;
#X msg 256 477 0;
#X msg 150 477 1;
#X floatatom 21 486 5 0 0 0 - - -;
#X obj 205 419 counter 0 0 70;
#X obj 0 338 speedlim 2000;
#X obj 11 380 t 1 b;
#X obj 19 202 moses 5;
#X msg 325 169 \$1 300;
#X obj 128 65 moses 34;
#X obj 400 189 s location4;
#X connect 0 0 15 0;
#X connect 0 0 33 0;
#X connect 0 0 35 0;
#X connect 2 0 4 1;
#X connect 3 0 1 0;
#X connect 4 0 13 0;
#X connect 4 0 3 0;
#X connect 5 0 6 0;
#X connect 6 0 11 0;
#X connect 8 0 14 0;
#X connect 8 0 33 0;
#X connect 10 0 9 0;
#X connect 11 0 4 0;
#X connect 12 0 3 1;
#X connect 12 1 10 1;
#X connect 13 0 10 0;
#X connect 14 0 34 0;
#X connect 14 0 36 0;
#X connect 16 0 17 0;
#X connect 16 0 29 0;
#X connect 16 1 18 0;
#X connect 17 0 31 0;
#X connect 17 0 2 0;
#X connect 18 0 19 0;
#X connect 19 0 21 0;
#X connect 20 0 30 0;
#X connect 21 0 22 0;
#X connect 22 0 20 0;
#X connect 23 0 22 0;
#X connect 23 0 24 0;
#X connect 23 0 28 0;
#X connect 24 0 2 0;
#X connect 25 0 22 0;
#X connect 26 0 27 0;
#X connect 27 0 25 1;
#X connect 28 0 25 1;
#X connect 30 0 23 0;
#X connect 30 0 26 0;
#X connect 31 0 32 0;
#X connect 32 0 25 0;
#X connect 32 1 30 2;
#X connect 33 1 16 0;
#X connect 34 0 5 0;
#X connect 35 0 14 0;
