#N canvas 868 173 704 727 10;
#X obj 65 29 inlet;
#X obj 336 142 clip 6 33;
#X obj 351 297 tgl 15 0 empty empty empty 17 7 0 10 -262144 -1 -1 0
1;
#X obj 336 479 *~;
#X obj 336 322 *~;
#N canvas 0 269 1204 628 loadSamples 0;
#X obj 14 9 receive settingNum;
#X obj 14 28 select 1 2 3 4 5 6 7 8 9 10 11 12 13 14 15 16 17 18 19
20 21 22 23 24 25 26 27 28 29 30 31 32;
#X msg 14 69 read -resize audio/crickets.aif array5;
#X msg 48 98 read -resize audio/hammer.aif array5;
#X msg 79 125 read -resize audio/piano_hammer.aif array5;
#X msg 111 152 read -resize audio/water3.aif array5;
#X msg 142 176 read -resize audio/glass_breaking.aif array5;
#X msg 222 225 read -resize audio/rhythmicdrips.WAV array5;
#X msg 295 66 read -resize audio/bridgesound1.aif array5;
#X msg 330 90 read -resize audio/facwhistle+mock.aif array5;
#X msg 364 120 read -resize audio/buttonholer.aif array5;
#X msg 435 172 read -resize audio/glass_breaking.aif array5;
#X msg 471 198 read -resize audio/metalhinge1.aif array5;
#X msg 506 224 read -resize audio/piano_hammer.aif array5;
#X msg 541 250 read -resize audio/boatreverse.aif array5;
#X obj 429 482 send 1tapon;
#X obj 510 482 send 1tapoff;
#X msg 260 249 read -resize audio/crickets.aif array5;
#X msg 576 91 read -resize audio/sign+bell.aif array5;
#X msg 652 119 read -resize audio/churchbells.aif array5;
#X msg 718 170 read -resize audio/heliocopter.aif array5;
#X msg 754 196 read -resize audio/geese+gulls.aif array5;
#X msg 822 119 read -resize audio/bridgesound1.aif array5;
#X msg 857 96 read -resize audio/geese+gulls.aif array5;
#X msg 891 144 read -resize audio/elevator.aif array5;
#X msg 952 296 read -resize audio/wavebangbuf.aif array5;
#X msg 972 271 read -resize audio/pno_pluck.aif array5;
#X msg 990 245 read -resize audio/geese+gulls.aif array5;
#X obj 655 480 send pitchrandmult;
#X obj 864 482 send grainsizemult;
#X msg 655 445 0.5;
#X msg 690 445 0.005;
#X msg 727 445 0.1;
#X msg 759 445 0.2;
#X msg 790 445 0.3;
#X msg 864 447 50;
#X msg 930 446 5;
#X msg 963 447 1;
#X msg 898 447 20;
#X msg 790 228 read -resize audio/piano_tuning2.aiff;
#X msg 926 320 read -resize audio/drillingbursts.wav;
#X msg 193 198 read -resize audio/stepsonice.wav;
#X msg 401 148 read -resize audio/rhythmicdrips.WAV;
#X obj 14 366 soundfiler;
#X obj 87 426 table array5;
#X msg 646 145 read -resize ./audio/heliocopter.aif array5;
#X msg 787 64 read -resize audio/foghorn2.aiff array5;
#X connect 0 0 1 0;
#X connect 1 0 2 0;
#X connect 1 0 15 0;
#X connect 1 0 38 0;
#X connect 1 1 3 0;
#X connect 1 1 16 0;
#X connect 1 1 36 0;
#X connect 1 2 4 0;
#X connect 1 2 15 0;
#X connect 1 2 35 0;
#X connect 1 2 32 0;
#X connect 1 3 5 0;
#X connect 1 3 16 0;
#X connect 1 3 36 0;
#X connect 1 3 34 0;
#X connect 1 4 6 0;
#X connect 1 4 15 0;
#X connect 1 4 35 0;
#X connect 1 4 32 0;
#X connect 1 5 41 0;
#X connect 1 5 35 0;
#X connect 1 5 33 0;
#X connect 1 6 7 0;
#X connect 1 6 16 0;
#X connect 1 6 35 0;
#X connect 1 6 31 0;
#X connect 1 7 17 0;
#X connect 1 7 15 0;
#X connect 1 7 35 0;
#X connect 1 7 33 0;
#X connect 1 8 8 0;
#X connect 1 8 16 0;
#X connect 1 8 37 0;
#X connect 1 8 31 0;
#X connect 1 9 9 0;
#X connect 1 9 35 0;
#X connect 1 9 32 0;
#X connect 1 10 10 0;
#X connect 1 10 38 0;
#X connect 1 10 32 0;
#X connect 1 11 42 0;
#X connect 1 11 16 0;
#X connect 1 11 35 0;
#X connect 1 11 34 0;
#X connect 1 12 11 0;
#X connect 1 12 16 0;
#X connect 1 12 35 0;
#X connect 1 13 12 0;
#X connect 1 13 16 0;
#X connect 1 13 36 0;
#X connect 1 13 34 0;
#X connect 1 14 13 0;
#X connect 1 14 16 0;
#X connect 1 14 35 0;
#X connect 1 14 32 0;
#X connect 1 15 14 0;
#X connect 1 15 16 0;
#X connect 1 15 35 0;
#X connect 1 15 34 0;
#X connect 1 16 18 0;
#X connect 1 16 16 0;
#X connect 1 16 35 0;
#X connect 1 16 32 0;
#X connect 1 17 19 0;
#X connect 1 17 35 0;
#X connect 1 17 32 0;
#X connect 1 18 45 0;
#X connect 1 18 35 0;
#X connect 1 18 30 0;
#X connect 1 19 20 0;
#X connect 1 19 16 0;
#X connect 1 19 35 0;
#X connect 1 19 30 0;
#X connect 1 20 21 0;
#X connect 1 20 15 0;
#X connect 1 20 38 0;
#X connect 1 20 33 0;
#X connect 1 20 34 0;
#X connect 1 21 15 0;
#X connect 1 21 35 0;
#X connect 1 21 30 0;
#X connect 1 21 39 0;
#X connect 1 22 35 0;
#X connect 1 22 34 0;
#X connect 1 22 46 0;
#X connect 1 23 22 0;
#X connect 1 23 16 0;
#X connect 1 23 35 0;
#X connect 1 23 32 0;
#X connect 1 24 23 0;
#X connect 1 24 33 0;
#X connect 1 25 24 0;
#X connect 1 25 38 0;
#X connect 1 25 33 0;
#X connect 1 28 40 0;
#X connect 1 28 15 0;
#X connect 1 29 25 0;
#X connect 1 29 37 0;
#X connect 1 29 31 0;
#X connect 1 30 26 0;
#X connect 1 30 16 0;
#X connect 1 30 38 0;
#X connect 1 30 31 0;
#X connect 1 31 27 0;
#X connect 1 31 38 0;
#X connect 1 31 35 0;
#X connect 1 31 32 0;
#X connect 1 31 33 0;
#X connect 2 0 43 0;
#X connect 3 0 43 0;
#X connect 4 0 43 0;
#X connect 5 0 43 0;
#X connect 6 0 43 0;
#X connect 7 0 43 0;
#X connect 8 0 43 0;
#X connect 9 0 43 0;
#X connect 10 0 43 0;
#X connect 11 0 43 0;
#X connect 12 0 43 0;
#X connect 13 0 43 0;
#X connect 14 0 43 0;
#X connect 17 0 43 0;
#X connect 18 0 43 0;
#X connect 19 0 43 0;
#X connect 20 0 43 0;
#X connect 21 0 43 0;
#X connect 22 0 43 0;
#X connect 23 0 43 0;
#X connect 24 0 43 0;
#X connect 25 0 43 0;
#X connect 26 0 43 0;
#X connect 27 0 43 0;
#X connect 30 0 28 0;
#X connect 31 0 28 0;
#X connect 32 0 28 0;
#X connect 33 0 28 0;
#X connect 34 0 28 0;
#X connect 35 0 29 0;
#X connect 36 0 29 0;
#X connect 37 0 29 0;
#X connect 38 0 29 0;
#X connect 39 0 43 0;
#X connect 40 0 43 0;
#X connect 41 0 43 0;
#X connect 42 0 43 0;
#X connect 45 0 43 0;
#X connect 46 0 43 0;
#X restore 392 30 pd loadSamples;
#X floatatom 336 28 5 0 0 0 TEST_VALUES - -;
#X obj 435 478 *~;
#N canvas 0 28 346 293 volumeSettings 0;
#X obj 32 248 outlet;
#X obj 246 247 outlet;
#X obj 12 29 loadbang;
#X msg 111 77 1;
#X msg 32 80 1.15;
#X obj 246 160 * 0.9;
#X obj 31 49 r 3volume136;
#X obj 111 49 r 3volume126;
#X connect 2 0 4 0;
#X connect 3 0 5 0;
#X connect 3 0 0 0;
#X connect 4 0 5 0;
#X connect 4 0 0 0;
#X connect 5 0 1 0;
#X connect 6 0 4 0;
#X connect 7 0 3 0;
#X restore 351 375 pd volumeSettings;
#N canvas 398 314 1583 1024 grain1 0;
#X obj 54 92 tgl 15 0 empty empty empty 17 7 0 10 -262144 -1 -1 0 1
;
#X msg 106 129 grain \$1;
#X obj 106 72 * 50;
#X obj 106 100 * 44.1;
#X text 148 95 (samps to ms conversion);
#X obj 127 40 receive grainsizemult;
#X obj 364 42 receive pitchrandmult;
#X msg 170 77 50;
#X obj 29 97 bng 15 250 50 0 empty empty empty 17 7 0 10 -262144 -1
-1;
#X obj 130 164 loadbang;
#X obj 484 416 cnv 15 399 148 empty empty empty 20 12 0 14 -233017
-66577 0;
#X obj 485 431 hsl 397 8 0 1 0 0 empty empty scrub -2 -8 0 10 -1109
-1 -1 0 1;
#X obj 417 733 s grainread;
#X obj 640 606 s grainspeed;
#X obj 559 653 s grainscatter;
#X obj 729 607 s grainmultiply;
#X obj 713 674 s grainspread;
#X obj 545 485 hsl 128 9 0 127 0 0 empty empty scatter -2 -8 0 10 -42246
-1 -1 0 1;
#X floatatom 729 584 5 0 0 0 - - -;
#X obj 482 606 s grainfade;
#X text 518 586 1 soft - 20 hard;
#X text 772 588 0-1;
#X obj 314 532 s grainspeedspread;
#X obj 488 548 hsl 200 8 0 15 0 0 empty empty grain_pitch_spread -2
-8 0 10 -1109 -1 -1 0 1;
#X obj 415 564 r dur;
#X obj 381 568 f;
#X msg 467 629 0 \, 1 \$1;
#X obj 485 452 bng 15 250 50 0 empty empty play 17 7 0 10 -1109 -1
-1;
#X obj 381 595 * 1;
#X obj 544 457 hsl 128 8 40 0.01 1 0 empty empty filespeed -2 -8 0
10 -1109 -1 -1 5648 1;
#X text 664 591 1-2200;
#X obj 693 487 hsl 128 9 0 1 0 0 empty empty grain_pan_spread -2 -8
0 10 -42246 -1 -1 3810 1;
#X msg 674 390 1;
#X obj 678 455 bng 15 250 50 0 empty empty normal 17 7 0 10 -1109 -1
-1;
#X obj 488 520 hsl 128 9 1 20 0 0 empty empty fade_soft_hard -2 -8
0 10 -90881 -1 -1 0 1;
#X obj 696 517 hsl 128 9 1 500 0 0 empty empty grainspeed -2 -8 0 10
-42246 -1 -1 0 1;
#X text 572 636 0-127;
#X obj 696 544 hsl 128 9 0 12 0 0 empty empty grainmultiply -2 -8 0
10 -42246 -1 -1 1058 1;
#X obj 975 341 loadbang;
#X msg 975 422 0.3;
#X obj 363 634 del 100;
#X obj 362 478 t b b;
#X obj 363 658 spigot;
#X obj 485 470 tgl 15 0 empty empty loop 17 7 0 10 -1109 -1 -1 0 1
;
#X msg 975 474 1;
#X obj 828 544 bng 8 250 50 0 empty empty normal 10 2 0 8 -42246 -1
-1;
#X obj 929 548 s feedbackpos;
#X obj 997 526 s feedbackjitter;
#X obj 926 775 s feedbackamount;
#X floatatom 931 740 5 0 0 0 - - -;
#X floatatom 966 521 5 0 0 0 - - -;
#X floatatom 1020 503 5 0 0 0 - - -;
#X obj 834 451 vsl 8 34 0 500 0 0 empty empty empty 0 -9 0 10 -42246
-1 -1 0 1;
#X obj 852 451 vsl 8 34 0 200 0 0 empty empty empty 0 -9 0 10 -42246
-1 -1 0 1;
#X obj 867 452 vsl 8 34 0 0.99 0 0 empty empty empty 0 -9 0 10 -42246
-1 -1 0 1;
#X obj 832 488 cnv 5 50 5 empty empty empty 20 12 0 14 -99865 -66577
0;
#X obj 831 443 cnv 5 50 5 empty empty del:_pos_jitt_fb -16 3 1 9 -262144
-66577 0;
#X msg 913 518 \$1 300;
#X obj 482 557 cnv 5 400 5 empty empty empty -16 3 1 7 -66577 -66577
0;
#X obj 482 499 cnv 5 400 5 empty empty empty -16 3 1 7 -128992 -66577
0;
#X msg 470 578 \$1 20;
#X floatatom 549 723 5 0 0 0 - - -;
#X floatatom 545 695 5 0 0 0 - - -;
#X floatatom 548 782 5 0 0 0 - - -;
#X floatatom 556 750 5 0 0 0 - - -;
#X floatatom 727 710 5 0 0 0 - - -;
#X floatatom 918 603 5 0 0 0 - - -;
#X floatatom 964 605 5 0 0 0 - - -;
#X floatatom 1009 604 5 0 0 0 - - -;
#X floatatom 359 753 5 0 0 0 - - -;
#X text 589 695 filespeed;
#X text 597 724 scatter;
#X text 598 752 fade;
#X text 599 780 grain pitch spread;
#X text 764 709 pan spread;
#X text 911 624 pos;
#X text 962 623 jitt;
#X text 1006 624 feedback;
#X text 358 733 scrub;
#X floatatom 389 305 5 0 0 0 - - -;
#X text 428 304 filespeed IN;
#X floatatom 399 350 5 0 0 0 - - -;
#X obj 390 328 / 1000;
#X floatatom 270 296 5 0 0 0 - - -;
#X text 313 308 scrub IN;
#X floatatom 294 373 5 0 0 0 - - -;
#X floatatom 554 298 5 0 0 0 - - -;
#X text 585 303 scatter IN;
#X floatatom 481 370 5 0 0 0 - - -;
#X text 479 350 fade IN;
#X floatatom 275 463 5 0 0 0 - - -;
#X text 241 443 grain pitch spread IN;
#X floatatom 704 306 5 0 0 0 - - -;
#X obj 706 330 / 10;
#X floatatom 744 353 5 0 0 0 - - -;
#X floatatom 1076 307 5 0 0 0 - - -;
#X floatatom 1135 306 5 0 0 0 - - -;
#X floatatom 1188 305 5 0 0 0 - - -;
#X text 1061 289 position;
#X text 1128 288 jitter;
#X text 1184 287 amount;
#X text 1112 266 FEEDBACK IN;
#X text 739 305 grainpan IN;
#X obj 1189 347 / 10;
#X floatatom 664 641 5 0 0 0 - - -;
#X msg 975 449 1;
#X floatatom 1027 414 5 0 0 0 - - -;
#X text 872 88 HOLD (for groove0);
#X msg 844 143 5;
#X msg 878 143 74;
#X msg 918 144 1;
#X msg 955 144 4;
#X msg 955 144 452;
#X obj 938 176 * 0.1;
#X msg 999 143 24;
#X msg 1042 143 0;
#X obj 913 110 bng 15 250 50 0 empty empty empty 17 7 0 10 -262144
-1 -1;
#X obj 1200 198 * 0.1;
#X obj 1174 105 bng 15 250 50 0 empty empty empty 17 7 0 10 -262144
-1 -1;
#X text 1133 83 GRAINSTRETCH regular;
#X msg 1105 138 300;
#X msg 1139 138 28;
#X msg 1179 139 14;
#X msg 1303 138 9;
#X msg 1216 138 30;
#X msg 1260 137 1;
#X obj 10 11 cnv 15 650 170 empty empty empty 20 12 0 14 -99865 -66577
0;
#N canvas 0 52 513 364 loader 0;
#X obj 101 106 cnv 15 90 45 empty empty empty 20 12 0 14 -99865 -66577
0;
#X obj 104 110 cnv 15 80 40 empty empty empty 20 12 0 14 -233017 -66577
0;
#X obj 114 241 soundfiler;
#X msg 114 196 read -resize -maxsize 1e+07 \$1 insoundL insoundR;
#X obj 114 169 openpanel;
#X obj 114 112 bng 15 250 50 0 empty empty LOAD 17 7 0 10 -1109 -1
-1;
#X obj 114 270 t f f;
#X obj 152 300 / 44.1;
#X obj 152 330 s dur;
#X obj 114 331 s len;
#X obj 308 219 table insoundL;
#X obj 308 239 table insoundR;
#X floatatom 212 295 5 0 0 0 - - -;
#X obj 299 319 s2l;
#X msg 315 298 symbol /;
#X obj 299 276 t s b;
#X obj 299 353 drip;
#X symbolatom 104 136 12 0 0 0 - - -;
#X connect 2 0 6 0;
#X connect 2 0 12 0;
#X connect 3 0 2 0;
#X connect 4 0 3 0;
#X connect 4 0 15 0;
#X connect 5 0 4 0;
#X connect 6 0 9 0;
#X connect 6 1 7 0;
#X connect 7 0 8 0;
#X connect 13 0 16 0;
#X connect 14 0 13 1;
#X connect 15 0 13 0;
#X connect 15 1 14 0;
#X connect 16 0 17 0;
#X coords 0 -1 1 1 92 60 2 100 100;
#X restore 16 9 pd loader;
#N canvas 85 149 1181 883 gui 0;
#X obj 221 402 cnv 15 399 148 empty empty empty 20 12 0 14 -233017
-66577 0;
#X obj 222 417 hsl 397 8 0 1 0 0 empty empty scrub -2 -8 0 10 -1109
-1 -1 0 1;
#X obj 154 719 s grainread;
#X obj 377 592 s grainspeed;
#X obj 296 639 s grainscatter;
#X obj 466 593 s grainmultiply;
#X obj 450 660 s grainspread;
#X obj 282 471 hsl 128 9 0 127 0 0 empty empty scatter -2 -8 0 10 -42246
-1 -1 0 1;
#X floatatom 466 570 5 0 0 0 - - -;
#X obj 219 592 s grainfade;
#X text 255 572 1 soft - 20 hard;
#X text 509 574 0-1;
#X obj 51 518 s grainspeedspread;
#X obj 225 534 hsl 200 8 0 15 0 0 empty empty grain_pitch_spread -2
-8 0 10 -1109 -1 -1 0 1;
#X obj 152 550 r dur;
#X obj 118 554 f;
#X msg 204 615 0 \, 1 \$1;
#X obj 222 438 bng 15 250 50 0 empty empty play 17 7 0 10 -1109 -1
-1;
#X obj 118 581 * 1;
#X obj 281 443 hsl 128 8 40 0.01 1 0 empty empty filespeed -2 -8 0
10 -1109 -1 -1 5648 1;
#X text 401 577 1-2200;
#X obj 430 473 hsl 128 9 0 1 0 0 empty empty grain_pan_spread -2 -8
0 10 -42246 -1 -1 3810 1;
#X msg 411 376 1;
#X obj 415 441 bng 15 250 50 0 empty empty normal 17 7 0 10 -1109 -1
-1;
#X obj 225 506 hsl 128 9 1 20 0 0 empty empty fade_soft_hard -2 -8
0 10 -90881 -1 -1 0 1;
#X obj 433 503 hsl 128 9 1 500 0 0 empty empty grainspeed -2 -8 0 10
-42246 -1 -1 0 1;
#X text 309 622 0-127;
#X obj 433 530 hsl 128 9 0 12 0 0 empty empty grainmultiply -2 -8 0
10 -42246 -1 -1 1058 1;
#X obj 712 327 loadbang;
#X msg 712 408 0.3;
#X obj 100 620 del 100;
#X obj 99 464 t b b;
#X obj 100 644 spigot;
#X obj 222 456 tgl 15 0 empty empty loop 17 7 0 10 -1109 -1 -1 0 1
;
#X msg 712 460 1;
#X obj 565 530 bng 8 250 50 0 empty empty normal 10 2 0 8 -42246 -1
-1;
#X obj 666 534 s feedbackpos;
#X obj 734 512 s feedbackjitter;
#X obj 663 761 s feedbackamount;
#X floatatom 668 726 5 0 0 0 - - -;
#X floatatom 703 507 5 0 0 0 - - -;
#X floatatom 757 489 5 0 0 0 - - -;
#X obj 571 437 vsl 8 34 0 500 0 0 empty empty empty 0 -9 0 10 -42246
-1 -1 0 1;
#X obj 589 437 vsl 8 34 0 200 0 0 empty empty empty 0 -9 0 10 -42246
-1 -1 0 1;
#X obj 604 438 vsl 8 34 0 0.99 0 0 empty empty empty 0 -9 0 10 -42246
-1 -1 0 1;
#X obj 569 474 cnv 5 50 5 empty empty empty 20 12 0 14 -99865 -66577
0;
#X obj 568 429 cnv 5 50 5 empty empty del:_pos_jitt_fb -16 3 1 9 -262144
-66577 0;
#X msg 650 504 \$1 300;
#X obj 219 543 cnv 5 400 5 empty empty empty -16 3 1 7 -66577 -66577
0;
#X obj 219 485 cnv 5 400 5 empty empty empty -16 3 1 7 -128992 -66577
0;
#X msg 207 564 \$1 20;
#X floatatom 286 709 5 0 0 0 - - -;
#X floatatom 282 681 5 0 0 0 - - -;
#X floatatom 285 768 5 0 0 0 - - -;
#X floatatom 293 736 5 0 0 0 - - -;
#X floatatom 464 696 5 0 0 0 - - -;
#X floatatom 655 589 5 0 0 0 - - -;
#X floatatom 701 591 5 0 0 0 - - -;
#X floatatom 746 590 5 0 0 0 - - -;
#X floatatom 96 739 5 0 0 0 - - -;
#X text 326 681 filespeed;
#X text 334 710 scatter;
#X text 335 738 fade;
#X text 336 766 grain pitch spread;
#X text 501 695 pan spread;
#X text 648 610 pos;
#X text 699 609 jitt;
#X text 743 610 feedback;
#X text 95 719 scrub;
#X floatatom 126 291 5 0 0 0 - - -;
#X text 165 290 filespeed IN;
#X floatatom 136 336 5 0 0 0 - - -;
#X obj 127 314 / 1000;
#X floatatom 6 291 5 0 0 0 - - -;
#X text 50 294 scrub IN;
#X obj 8 334 / 10;
#X floatatom 31 359 5 0 0 0 - - -;
#X floatatom 291 289 5 0 0 0 - - -;
#X text 322 289 scatter IN;
#X floatatom 218 356 5 0 0 0 - - -;
#X text 216 336 fade IN;
#X floatatom 12 449 5 0 0 0 - - -;
#X text -22 429 grain pitch spread IN;
#X floatatom 441 292 5 0 0 0 - - -;
#X obj 443 316 / 10;
#X floatatom 481 339 5 0 0 0 - - -;
#X floatatom 813 293 5 0 0 0 - - -;
#X floatatom 872 292 5 0 0 0 - - -;
#X floatatom 925 291 5 0 0 0 - - -;
#X text 798 275 position;
#X text 865 274 jitter;
#X text 921 273 amount;
#X text 849 252 FEEDBACK IN;
#X text 476 291 grainpan IN;
#X obj 926 333 / 10;
#X floatatom 401 627 5 0 0 0 - - -;
#X msg 712 435 1;
#X obj 6 314 moses 10;
#X floatatom 764 400 5 0 0 0 - - -;
#X text 609 74 HOLD (for groove0);
#X msg 581 129 5;
#X msg 615 129 74;
#X msg 655 130 1;
#X msg 692 130 4;
#X msg 692 130 452;
#X obj 675 162 * 0.1;
#X msg 736 129 24;
#X msg 779 129 0;
#X obj 650 96 bng 15 250 50 0 empty empty empty 17 7 0 10 -262144 -1
-1;
#X obj 937 184 * 0.1;
#X obj 911 91 bng 15 250 50 0 empty empty empty 17 7 0 10 -262144 -1
-1;
#X text 870 69 GRAINSTRETCH regular;
#X msg 842 124 300;
#X msg 876 124 28;
#X msg 916 125 14;
#X msg 1040 124 9;
#X msg 953 124 30;
#X msg 997 123 1;
#X connect 1 0 50 0;
#X connect 1 0 59 0;
#X connect 7 0 4 0;
#X connect 7 0 51 0;
#X connect 8 0 5 0;
#X connect 13 0 12 0;
#X connect 13 0 53 0;
#X connect 14 0 15 1;
#X connect 15 0 18 0;
#X connect 16 0 2 0;
#X connect 17 0 31 0;
#X connect 18 0 16 0;
#X connect 18 0 30 1;
#X connect 19 0 18 1;
#X connect 19 0 52 0;
#X connect 21 0 6 0;
#X connect 21 0 55 0;
#X connect 22 0 19 0;
#X connect 23 0 22 0;
#X connect 24 0 9 0;
#X connect 24 0 54 0;
#X connect 25 0 3 0;
#X connect 25 0 95 0;
#X connect 27 0 5 0;
#X connect 28 0 29 0;
#X connect 28 0 96 0;
#X connect 28 0 34 0;
#X connect 28 0 22 0;
#X connect 29 0 21 0;
#X connect 30 0 32 0;
#X connect 31 0 30 0;
#X connect 31 1 15 0;
#X connect 32 0 17 0;
#X connect 33 0 32 1;
#X connect 34 0 27 0;
#X connect 35 0 34 0;
#X connect 39 0 38 0;
#X connect 40 0 36 0;
#X connect 41 0 37 0;
#X connect 42 0 47 0;
#X connect 42 0 56 0;
#X connect 43 0 37 0;
#X connect 43 0 57 0;
#X connect 44 0 38 0;
#X connect 44 0 58 0;
#X connect 47 0 36 0;
#X connect 50 0 2 0;
#X connect 69 0 72 0;
#X connect 72 0 15 1;
#X connect 72 0 71 0;
#X connect 73 0 97 0;
#X connect 75 0 76 0;
#X connect 76 0 50 0;
#X connect 77 0 4 0;
#X connect 79 0 9 0;
#X connect 81 0 12 0;
#X connect 83 0 84 0;
#X connect 84 0 85 0;
#X connect 84 0 6 0;
#X connect 86 0 47 0;
#X connect 87 0 41 0;
#X connect 88 0 94 0;
#X connect 94 0 39 0;
#X connect 96 0 25 0;
#X connect 97 0 75 0;
#X connect 98 0 25 0;
#X connect 98 0 3 0;
#X connect 100 0 69 0;
#X connect 101 0 77 0;
#X connect 102 0 79 0;
#X connect 103 0 105 0;
#X connect 105 0 81 0;
#X connect 106 0 98 0;
#X connect 107 0 83 0;
#X connect 108 0 100 0;
#X connect 108 0 101 0;
#X connect 108 0 102 0;
#X connect 108 0 103 0;
#X connect 108 0 106 0;
#X connect 108 0 107 0;
#X connect 109 0 81 0;
#X connect 110 0 112 0;
#X connect 110 0 113 0;
#X connect 110 0 114 0;
#X connect 110 0 117 0;
#X connect 110 0 115 0;
#X connect 110 0 116 0;
#X connect 110 0 96 0;
#X connect 112 0 69 0;
#X connect 113 0 77 0;
#X connect 114 0 79 0;
#X connect 115 0 83 0;
#X connect 116 0 109 0;
#X connect 117 0 98 0;
#X coords 0 -1 1 1 408 150 1 100 100;
#X restore 209 21 pd gui;
#N canvas 489 215 986 677 scope 0;
#X obj 103 100 cnv 15 190 90 empty empty empty 20 12 0 14 -233017 -66577
0;
#X obj 102 104 cnv 15 150 69 empty empty empty 20 12 0 14 -1109 -66577
0;
#X obj 0 92 tgl 15 0 empty empty empty 17 7 0 10 -262144 -1 -1 1 1
;
#X obj 0 115 metro 33;
#N canvas 0 22 450 300 (subpatch) 0;
#X array vis 512 float 3;
#A 0 0.0420422 0.0421136 0.0421728 0.0423466 0.0421363 0.0419211 0.0413342
0.0409729 0.0408612 0.0405848 0.0397824 0.0399609 0.0390922 0.0388831
0.0381993 0.0381691 0.037406 0.0373203 0.0365658 0.0361248 0.0351958
0.0346443 0.0340067 0.0331859 0.0323441 0.0318766 0.0316288 0.0309808
0.030869 0.0304153 0.0303045 0.0303414 0.0300861 0.0306096 0.0306222
0.0312523 0.0316384 0.0329082 0.0336274 0.0347152 0.0358161 0.0375047
0.0387845 0.0403659 0.0412393 0.0429715 0.0438834 0.0451578 0.0461503
0.0470761 0.0476511 0.0482413 0.0485651 0.0487832 0.0482806 0.0480085
0.047374 0.0466303 0.0457268 0.0445689 0.0436661 0.0419402 0.0409039
0.0386797 0.037638 0.0360105 0.0349442 0.0334744 0.0327607 0.0315883
0.031119 0.0303861 0.0291708 0.0287505 0.0287549 0.028989 0.0292828
0.0295941 0.0298197 0.0303952 0.0307051 0.0300701 0.0304116 0.0306199
0.0309114 0.0309526 0.0313833 0.0314337 0.0320632 0.0318264 0.0314589
0.0317534 0.0324912 0.032697 0.0334577 0.0337885 0.0347458 0.0349895
0.0360052 0.0352517 0.0359395 0.036318 0.0368989 0.0371694 0.037386
0.0373868 0.0374752 0.0374471 0.0359512 0.0360213 0.0360585 0.0360433
0.0357672 0.0361273 0.0357154 0.0356734 0.0350082 0.0330768 0.0321736
0.0309809 0.0301898 0.0287989 0.0278658 0.0264671 0.0256625 0.0243973
0.0232505 0.0202396 0.0192954 0.0180896 0.0172167 0.0161046 0.0156207
0.0148527 0.0146973 0.0149573 0.0134665 0.0140729 0.0145117 0.0160159
0.0169616 0.0186406 0.0197439 0.0216034 0.0228997 0.0226259 0.0238309
0.02549 0.0261651 0.0275478 0.0281155 0.0289418 0.0290702 0.0295129
0.0271403 0.0272046 0.0268275 0.0264295 0.0259989 0.0250985 0.0245618
0.0239581 0.0234458 0.0205703 0.0198881 0.0197059 0.0189832 0.0186718
0.0177553 0.0173171 0.0162779 0.0154766 0.0119677 0.0112633 0.00984699
0.00930799 0.00825552 0.00794327 0.00729192 0.00724946 0.00720771 0.00514213
0.00496734 0.00530632 0.00533092 0.00527524 0.00522499 0.00481893 0.00470742
0.0044329 0.00252243 0.00233255 0.00301751 0.00305549 0.00412755 0.00461812
0.0057994 0.0062864 0.0076594 0.00587076 0.0071293 0.00765541 0.00894409
0.00917476 0.0103592 0.0110733 0.0123501 0.0135749 0.0141688 0.0129076
0.0133724 0.0136092 0.0138471 0.013555 0.0134228 0.0125495 0.0120195
0.0106415 0.00768997 0.00594422 0.00457373 0.00282751 0.0017653 5.78184e-05
-0.00100743 -0.00279863 -0.0036895 -0.00741431 -0.00818706 -0.00934854
-0.0101507 -0.0111368 -0.0117514 -0.0124836 -0.0127061 -0.0130661 -0.0155182
-0.0155243 -0.0149741 -0.0144541 -0.0136883 -0.0127247 -0.0120495 -0.0105417
-0.0097312 -0.0102437 -0.00949754 -0.00787448 -0.00704213 -0.00506509
-0.00420603 -0.00211037 -0.000106358 0.000220386 0.000163582 0.000740898
0.00182999 0.00209562 0.00230444 0.00216327 0.00229487 0.00188663 0.00144911
-0.0005317 -0.000672488 -0.00079472 -0.00100958 -0.000824279 -0.00100306
-0.00156074 -0.00145632 -0.000931055 -0.00181979 -0.00107958 0.00116577
0.00278884 0.00617048 0.0082992 0.0119455 0.0138887 0.0153945 0.0140807
0.012035 0.00972011 0.00253933 -0.0028747 -0.0140558 -0.0208101 -0.0344719
-0.0415092 -0.0548013 -0.0622477 -0.0723185 -0.0761004 -0.081246 -0.0824571
-0.0816793 -0.0769914 -0.0734994 -0.0641082 -0.0595865 -0.0468516 -0.0405812
-0.026508 -0.0191941 -0.00539928 0.00136072 0.0133366 0.0194961 0.0282776
0.0328358 0.0395699 0.0424953 0.046476 0.0477967 0.0492792 0.0492354
0.0481973 0.0454357 0.0425099 0.04044 0.0357025 0.0328623 0.0267041
0.0229339 0.0147463 0.00982658 -0.000979489 -0.00682802 -0.0192487
-0.0257501 -0.0389703 -0.0454888 -0.0575943 -0.0630011 -0.0731384 -0.0769452
-0.082241 -0.0835248 -0.0844029 -0.0827526 -0.0808127 -0.0756796 -0.0724399
-0.065126 -0.0611586 -0.0525796 -0.0482 -0.0391775 -0.0346694 -0.0256788
-0.0217259 -0.0130829 -0.00886731 -0.000594214 0.00311352 0.0103334
0.0134106 0.0192648 0.021627 0.0252499 0.0265307 0.0280946 0.0284866
0.027641 0.0267357 0.0241493 0.0218728 0.0182157 0.0163712 0.0124171
0.0105249 0.0065923 0.00554725 0.00183406 8.52143e-05 -0.00338407 -0.00508765
-0.00882306 -0.0107334 -0.0149447 -0.0170754 -0.021259 -0.0238315 -0.0299217
-0.0353624 -0.038311 -0.0430332 -0.0453488 -0.0492615 -0.050939 -0.0522975
-0.05296 -0.0534788 -0.0535534 -0.0528306 -0.0522526 -0.0508043 -0.0498061
-0.0475731 -0.0457336 -0.0428918 -0.0410702 -0.0371199 -0.0347484 -0.0296225
-0.0267178 -0.0202056 -0.0166665 -0.00781061 -0.00374886 0.0042508
0.00842757 0.0160158 0.0196371 0.0259313 0.0284638 0.0320223 0.0348356
0.0365242 0.0362881 0.0355639 0.0340891 0.0312748 0.0290423 0.0242148
0.0215257 0.0170854 0.0140345 0.0075196 0.000774209 -0.00292741 -0.00995921
-0.0141456 -0.0218492 -0.0256092 -0.0317762 -0.0357211 -0.0434154 -0.0469312
-0.0537759 -0.0566122 -0.0617249 -0.0634899 -0.0660518 -0.0648462 -0.0646665
-0.0635802 -0.0608098 -0.0595004 -0.0547 -0.0521147 -0.0458292 -0.0427025
-0.0356866 -0.0302091 -0.0222217 -0.0181432 -0.00933705 -0.00465533
0.00431107 0.00866628 0.017195 0.0212875 0.0302566 0.033601 0.0390414
0.0414031 0.0453762 0.0467469 0.0486099 0.0487605 0.047582 0.0462341
0.0441242 0.0384248 0.0353256 0.0278455 0.023783 0.0151493 0.01063
0.00178309 -0.00196082 -0.0111346 -0.0157805 -0.0248222 -0.0294473
-0.0382404 -0.0424869 -0.0500556 -0.0537146 -0.0578858 -0.0602267 -0.0634977
-0.0646323 -0.0653518 -0.0651308 -0.0634981 -0.0623683 -0.0589919 -0.0550372
-0.0491898 -0.045689 -0.0379522 -0.0336057 -0.0247261 -0.019608 -0.00991382
-0.00460344 0.00637561 0.0114068 0.0209834;
#X coords 0 1 512 -1 150 70 1;
#X restore 103 104 graph;
#X obj 0 135 tabwrite~ vis;
#X obj 3 63 loadbang;
#X obj 226 205 catch~ outL;
#X obj 308 205 catch~ outR;
#X floatatom 349 251 5 0 0 0 - - -;
#X obj 226 306 *~ 0.3;
#X obj 307 306 *~ 0.3;
#X obj 106 175 hsl 145 9 0 1 0 0 empty empty empty -2 -8 0 10 -42246
-1 -1 0 1;
#X obj 255 105 vu 15 80 empty empty -1 -8 0 8 -66577 -1 1 0;
#X floatatom 343 179 5 0 0 0 - - -;
#X obj 343 133 env~;
#X obj 343 156 - 101;
#X obj 124 305 clip~ -1 1;
#X obj 225 343 lop~ 5000;
#X obj 308 343 lop~ 5000;
#X obj 225 379 hip~ 5;
#X obj 308 380 hip~ 5;
#X obj 292 447 writesf~ 2;
#X obj 414 266 savepanel;
#X obj 523 305 metro 240;
#X obj 523 274 tgl 15 0 empty empty empty 17 7 0 10 -262144 -1 -1 0
1;
#X obj 107 107 tgl 15 0 empty recording empty 17 7 0 10 -66577 -261681
-262144 0 1;
#X msg 545 404 \; recording color 13;
#X msg 523 383 \; recording color 2;
#X msg 627 440 \; recording label RECORDING;
#X msg 501 437 \; recording label;
#X obj 523 350 sel 0 1;
#X obj 523 328 tgl 15 0 empty empty empty 17 7 0 10 -262144 -1 -1 0
1;
#X obj 523 193 sel 1 0;
#X msg 616 284 0;
#X obj 221 108 bng 8 250 50 0 empty empty rec 8 2 0 10 -258699 -1 -1
;
#X obj 438 190 tgl 15 0 empty empty empty 17 7 0 10 -262144 -1 -1 0
1;
#X obj 523 217 t b b b;
#X msg 414 290 open \$1 \, start;
#X obj 590 249 t b b b b;
#X msg 659 290 stop;
#X obj 218 533 send~ outlet1;
#X obj 365 526 send~ outlet2;
#X connect 2 0 3 0;
#X connect 3 0 5 0;
#X connect 6 0 2 0;
#X connect 7 0 10 0;
#X connect 8 0 11 0;
#X connect 9 0 10 1;
#X connect 9 0 11 1;
#X connect 10 0 15 0;
#X connect 10 0 17 0;
#X connect 10 0 18 0;
#X connect 11 0 15 0;
#X connect 11 0 19 0;
#X connect 12 0 9 0;
#X connect 14 0 13 0;
#X connect 15 0 16 0;
#X connect 16 0 14 0;
#X connect 17 0 5 0;
#X connect 18 0 20 0;
#X connect 19 0 21 0;
#X connect 20 0 22 0;
#X connect 20 0 41 0;
#X connect 21 0 22 1;
#X connect 21 0 42 0;
#X connect 23 0 38 0;
#X connect 24 0 32 0;
#X connect 25 0 24 0;
#X connect 31 0 28 0;
#X connect 31 0 30 0;
#X connect 31 1 27 0;
#X connect 31 1 29 0;
#X connect 32 0 31 0;
#X connect 33 0 37 0;
#X connect 33 1 39 0;
#X connect 34 0 25 0;
#X connect 35 0 36 0;
#X connect 36 0 33 0;
#X connect 37 0 25 0;
#X connect 37 1 29 0;
#X connect 37 2 23 0;
#X connect 38 0 22 0;
#X connect 39 0 30 0;
#X connect 39 1 28 0;
#X connect 39 2 34 0;
#X connect 39 3 40 0;
#X connect 40 0 22 0;
#X coords 0 -1 1 1 195 90 2 100 100;
#X restore 20 76 pd scope;
#N canvas 0 22 533 512 graingen 0;
#X obj 51 31 r seed;
#X obj 51 54 sel 0 1 2 3 4 5 6 7 8 9 10;
#N canvas 0 22 450 300 seedgen 0;
#X obj 101 184 s seed;
#N canvas 0 22 450 300 counter 0;
#X obj 121 147 f;
#X obj 177 147 + 1;
#X obj 184 194 moses 11;
#X msg 228 225 0;
#X obj 122 94 inlet;
#X obj 122 250 outlet;
#X obj 270 226 outlet;
#X connect 0 0 1 0;
#X connect 0 0 5 0;
#X connect 1 0 2 0;
#X connect 2 0 0 1;
#X connect 2 1 3 0;
#X connect 3 0 0 1;
#X connect 3 0 6 0;
#X connect 4 0 0 0;
#X restore 101 162 pd counter;
#X obj 101 122 del 30;
#X obj 149 122 spigot;
#X obj 101 76 t b b;
#X msg 152 99 1;
#X obj 101 57 bng 15 250 50 0 empty empty empty 17 7 0 10 -262144 -1
-1;
#X obj 101 34 loadbang;
#X connect 1 0 0 0;
#X connect 1 1 3 1;
#X connect 2 0 1 0;
#X connect 2 0 3 0;
#X connect 3 0 2 0;
#X connect 4 0 2 0;
#X connect 4 1 5 0;
#X connect 5 0 3 1;
#X connect 6 0 4 0;
#X connect 7 0 6 0;
#X restore 51 14 pd seedgen;
#X obj 54 189 throw~ outL;
#X obj 112 208 throw~ outR;
#X obj 54 259 throw~ outL;
#X obj 112 278 throw~ outR;
#X obj 54 329 throw~ outL;
#X obj 112 348 throw~ outR;
#X obj 54 399 throw~ outL;
#X obj 112 418 throw~ outR;
#X obj 224 189 throw~ outL;
#X obj 282 208 throw~ outR;
#X obj 224 259 throw~ outL;
#X obj 282 278 throw~ outR;
#X obj 224 329 throw~ outL;
#X obj 282 348 throw~ outR;
#X obj 224 399 throw~ outL;
#X obj 282 418 throw~ outR;
#X obj 54 119 throw~ outL;
#X obj 112 138 throw~ outR;
#X obj 55 92 GRAINREAD;
#X obj 224 119 throw~ outL;
#X obj 282 138 throw~ outR;
#X obj 55 162 GRAINREAD;
#X obj 225 162 GRAINREAD;
#X obj 55 232 GRAINREAD;
#X obj 55 302 GRAINREAD;
#X obj 55 372 GRAINREAD;
#X obj 225 232 GRAINREAD;
#X obj 225 302 GRAINREAD;
#X obj 225 372 GRAINREAD;
#X obj 225 92 GRAINREAD;
#X connect 0 0 1 0;
#X connect 1 0 21 0;
#X connect 1 1 24 0;
#X connect 1 2 26 0;
#X connect 1 3 27 0;
#X connect 1 4 28 0;
#X connect 1 5 25 0;
#X connect 1 6 29 0;
#X connect 1 7 30 0;
#X connect 1 8 31 0;
#X connect 1 9 32 0;
#X connect 21 0 19 0;
#X connect 21 1 20 0;
#X connect 24 0 3 0;
#X connect 24 1 4 0;
#X connect 25 0 11 0;
#X connect 25 1 12 0;
#X connect 26 0 5 0;
#X connect 26 1 6 0;
#X connect 27 0 7 0;
#X connect 27 1 8 0;
#X connect 28 0 9 0;
#X connect 28 1 10 0;
#X connect 29 0 13 0;
#X connect 29 1 14 0;
#X connect 30 0 15 0;
#X connect 30 1 16 0;
#X connect 31 0 17 0;
#X connect 31 1 18 0;
#X connect 32 0 22 0;
#X connect 32 1 23 0;
#X restore 119 57 pd graingen;
#X obj 104 14 cnv 15 100 60 empty empty www.timvets.net 2 47 1 14 -99865
-66577 0;
#X obj 269 328 moses 34;
#X obj 271 348 / 34;
#X obj 271 261 receive location5;
#X connect 2 0 3 0;
#X connect 3 0 1 0;
#X connect 5 0 2 1;
#X connect 7 0 2 1;
#X connect 11 0 60 0;
#X connect 11 0 69 0;
#X connect 17 0 14 0;
#X connect 17 0 61 0;
#X connect 18 0 15 0;
#X connect 23 0 22 0;
#X connect 23 0 63 0;
#X connect 24 0 25 1;
#X connect 25 0 28 0;
#X connect 26 0 12 0;
#X connect 27 0 41 0;
#X connect 28 0 26 0;
#X connect 28 0 40 1;
#X connect 29 0 28 1;
#X connect 29 0 62 0;
#X connect 31 0 16 0;
#X connect 31 0 65 0;
#X connect 32 0 29 0;
#X connect 33 0 32 0;
#X connect 34 0 19 0;
#X connect 34 0 64 0;
#X connect 35 0 13 0;
#X connect 35 0 104 0;
#X connect 37 0 15 0;
#X connect 38 0 39 0;
#X connect 38 0 105 0;
#X connect 38 0 44 0;
#X connect 38 0 32 0;
#X connect 39 0 31 0;
#X connect 40 0 42 0;
#X connect 41 0 40 0;
#X connect 41 1 25 0;
#X connect 42 0 27 0;
#X connect 43 0 42 1;
#X connect 44 0 37 0;
#X connect 45 0 44 0;
#X connect 49 0 48 0;
#X connect 50 0 46 0;
#X connect 51 0 47 0;
#X connect 52 0 57 0;
#X connect 52 0 66 0;
#X connect 53 0 47 0;
#X connect 53 0 67 0;
#X connect 54 0 48 0;
#X connect 54 0 68 0;
#X connect 57 0 46 0;
#X connect 60 0 12 0;
#X connect 79 0 82 0;
#X connect 82 0 25 1;
#X connect 82 0 81 0;
#X connect 83 0 132 0;
#X connect 85 0 60 0;
#X connect 86 0 14 0;
#X connect 88 0 19 0;
#X connect 90 0 22 0;
#X connect 92 0 93 0;
#X connect 93 0 94 0;
#X connect 93 0 16 0;
#X connect 95 0 57 0;
#X connect 96 0 51 0;
#X connect 97 0 103 0;
#X connect 103 0 49 0;
#X connect 105 0 35 0;
#X connect 106 0 35 0;
#X connect 106 0 13 0;
#X connect 108 0 79 0;
#X connect 109 0 86 0;
#X connect 110 0 88 0;
#X connect 111 0 113 0;
#X connect 113 0 90 0;
#X connect 114 0 106 0;
#X connect 115 0 92 0;
#X connect 116 0 108 0;
#X connect 116 0 109 0;
#X connect 116 0 110 0;
#X connect 116 0 111 0;
#X connect 116 0 114 0;
#X connect 116 0 115 0;
#X connect 117 0 90 0;
#X connect 118 0 120 0;
#X connect 118 0 121 0;
#X connect 118 0 122 0;
#X connect 118 0 125 0;
#X connect 118 0 123 0;
#X connect 118 0 124 0;
#X connect 118 0 105 0;
#X connect 120 0 79 0;
#X connect 121 0 86 0;
#X connect 122 0 88 0;
#X connect 123 0 92 0;
#X connect 124 0 117 0;
#X connect 125 0 106 0;
#X connect 132 0 133 0;
#X connect 133 0 85 0;
#X connect 134 0 83 0;
#X restore 417 212 pd grain1;
#X obj 65 212 moses 5;
#X obj 137 286 moses 34;
#X msg 87 313 1;
#X msg 217 310 0;
#X obj 217 337 change;
#X obj 217 409 metro 60;
#X obj 217 364 sel 0;
#X obj 217 388 tgl 15 0 empty empty empty 17 7 0 10 -262144 -1 -1 0
1;
#X obj 193 465 select 70;
#X obj 193 492 delay 100;
#X obj 87 530 spigot 1;
#X obj 268 465 select 0;
#X msg 268 492 0;
#X msg 132 493 1;
#X obj 217 435 counter 0 0 70;
#X obj 87 363 speedlim 2000;
#X obj 87 398 t 1 b;
#X obj 422 325 *~;
#X obj 435 504 outlet~;
#X obj 336 505 outlet~;
#X floatatom 383 413 5 0 0 0 - - -;
#X obj 332 268 receive~ outlet1;
#X obj 457 269 receive~ outlet2;
#N canvas 1234 414 686 480 delay 0;
#X msg 127 98 0;
#X msg 190 95 1;
#X obj 112 165 *~;
#X obj 253 159 *~;
#X obj 268 126 *~ 0.015;
#X obj 332 127 * 25;
#X msg 332 157 \$1 500;
#X obj 332 187 line 200;
#X obj 78 74 inlet~;
#X obj 332 242 outlet~;
#X obj 127 73 r 5tapoff;
#X obj 190 73 r 5tapon;
#X obj 112 196 delwrite~ tapFive 1000;
#X obj 332 211 vd~ tapFive 800;
#X obj 268 92 r locationC;
#X connect 0 0 2 1;
#X connect 1 0 2 1;
#X connect 2 0 12 0;
#X connect 3 0 12 0;
#X connect 4 0 3 1;
#X connect 5 0 6 0;
#X connect 6 0 7 0;
#X connect 7 0 13 0;
#X connect 8 0 2 0;
#X connect 10 0 0 0;
#X connect 11 0 1 0;
#X connect 13 0 3 0;
#X connect 13 0 9 0;
#X connect 14 0 4 0;
#X connect 14 0 5 0;
#X restore 533 426 pd delay;
#X obj 560 328 loadbang;
#X msg 560 353 1;
#X obj 336 169 s location5;
#X connect 0 0 1 0;
#X connect 0 0 10 0;
#X connect 1 0 36 0;
#X connect 2 0 4 1;
#X connect 2 0 27 1;
#X connect 3 0 29 0;
#X connect 4 0 3 0;
#X connect 4 0 33 0;
#X connect 6 0 1 0;
#X connect 6 0 10 0;
#X connect 7 0 28 0;
#X connect 10 1 11 0;
#X connect 11 0 12 0;
#X connect 11 1 13 0;
#X connect 12 0 25 0;
#X connect 12 0 2 0;
#X connect 13 0 14 0;
#X connect 14 0 16 0;
#X connect 15 0 24 0;
#X connect 16 0 17 0;
#X connect 17 0 15 0;
#X connect 18 0 17 0;
#X connect 18 0 19 0;
#X connect 18 0 23 0;
#X connect 19 0 2 0;
#X connect 20 0 17 0;
#X connect 21 0 22 0;
#X connect 22 0 20 1;
#X connect 23 0 20 1;
#X connect 24 0 18 0;
#X connect 24 0 21 0;
#X connect 25 0 26 0;
#X connect 26 0 20 0;
#X connect 26 1 24 2;
#X connect 27 0 7 0;
#X connect 30 0 3 1;
#X connect 30 0 7 1;
#X connect 31 0 4 0;
#X connect 32 0 27 0;
#X connect 33 0 7 0;
#X connect 34 0 35 0;
#X connect 35 0 30 0;
