:	#N canvas 344 535 827 420 10;
#X obj 64 111 tgl 15 0 empty empty empty 17 7 0 10 -262144 -1 -1 0
1;
#X floatatom 96 261 5 0 0 0 - - -;
#X obj 64 278 playgroove;
#N canvas 16 178 212 280 randomGroup 0;
#X obj 90 54 random 200;
#X obj 90 78 list append;
#X obj 90 137 list length;
#X obj 90 163 >= 6;
#X obj 90 107 t l l;
#X obj 90 188 sel 1;
#X obj 32 189 spigot 0;
#X obj 90 23 inlet;
#X obj 32 215 outlet;
#X connect 0 0 1 0;
#X connect 1 0 4 0;
#X connect 1 0 6 0;
#X connect 2 0 3 0;
#X connect 3 0 5 0;
#X connect 3 0 6 1;
#X connect 4 0 2 0;
#X connect 4 1 1 1;
#X connect 5 0 1 1;
#X connect 6 0 8 0;
#X connect 7 0 0 0;
#X restore 331 88 pd randomGroup;
#X obj 185 65 tgl 15 0 empty empty empty 17 7 0 10 -262144 -1 -1 0
1;
#X floatatom 172 261 5 0 0 0 - - -;
#X floatatom 242 261 5 0 0 0 - - -;
#X floatatom 318 261 5 0 0 0 - - -;
#X obj 112 80 s sensorsOnOff;
#X obj 284 195 r sensorsOnOff;
#X obj 213 80 s settingNum;
#N canvas 518 189 537 627 arduino 0;
#X obj 42 2 inlet;
#X obj 42 33 select 0 1;
#X msg 42 85 close;
#N canvas 233 540 450 300 serial 0;
#X obj 59 36 inlet;
#X obj 59 150 outlet;
#X obj 59 89 comport 1 115200;
#X connect 0 0 2 0;
#X connect 2 0 1 0;
#X restore 42 188 pd serial;
#X obj 193 60 spigot 1;
#X obj 193 85 sel 10;
#X obj 193 112 tgl 15 0 empty empty empty 17 7 0 10 -262144 -1 -1 0
1;
#X obj 149 137 sel 1;
#X msg 149 164 65;
#X obj 112 212 spigot 0;
#X msg 86 85 open 0;
#X msg 138 85 0;
#X obj 193 136 expr 1 - $i1;
#X obj 112 239 select 10 32;
#X obj 112 318 zl group 32;
#X obj 112 368 list append 0 0;
#X obj 112 343 zl rev;
#X obj 112 392 expr $f1 + $f2*10 + $f3*100;
#X obj 181 268 makefilename %c;
#X obj 181 292 fromsymbol;
#X obj 112 442 t b l;
#X obj 138 594 outlet;
#X obj 138 568 * 0.35;
#X obj 138 544 change;
#X obj 181 544 change;
#X obj 270 543 change;
#X obj 181 568 * 0.38;
#X obj 270 568 * 0.38;
#X obj 139 466 unpack f f f f f f;
#X obj 181 594 outlet;
#X obj 270 594 outlet;
#X obj 274 14 inlet;
#X obj 270 519 spigot;
#X obj 225 542 change;
#X obj 225 594 outlet;
#X obj 225 519 spigot;
#X obj 181 519 spigot;
#X obj 138 519 spigot;
#X obj 337 13 inlet;
#X obj 375 13 inlet;
#X obj 413 13 inlet;
#X obj 451 13 inlet;
#X obj 112 416 zl group 6;
#X obj 225 568 * 0.3;
#X connect 0 0 1 0;
#X connect 1 0 2 0;
#X connect 1 0 11 0;
#X connect 1 1 10 0;
#X connect 2 0 3 0;
#X connect 3 0 9 0;
#X connect 3 0 4 0;
#X connect 4 0 5 0;
#X connect 5 0 6 0;
#X connect 6 0 7 0;
#X connect 6 0 9 1;
#X connect 6 0 12 0;
#X connect 7 0 8 0;
#X connect 8 0 3 0;
#X connect 9 0 13 0;
#X connect 10 0 3 0;
#X connect 11 0 6 0;
#X connect 12 0 4 1;
#X connect 13 0 14 0;
#X connect 13 1 14 0;
#X connect 13 2 18 0;
#X connect 14 0 16 0;
#X connect 15 0 17 0;
#X connect 16 0 15 0;
#X connect 17 0 42 0;
#X connect 18 0 19 0;
#X connect 19 0 14 0;
#X connect 20 1 28 0;
#X connect 22 0 21 0;
#X connect 23 0 22 0;
#X connect 24 0 26 0;
#X connect 25 0 27 0;
#X connect 26 0 29 0;
#X connect 27 0 30 0;
#X connect 28 0 32 0;
#X connect 28 1 35 0;
#X connect 28 2 36 0;
#X connect 28 3 37 0;
#X connect 31 0 28 0;
#X connect 32 0 25 0;
#X connect 33 0 43 0;
#X connect 35 0 33 0;
#X connect 36 0 24 0;
#X connect 37 0 23 0;
#X connect 38 0 37 1;
#X connect 39 0 36 1;
#X connect 40 0 35 1;
#X connect 41 0 32 1;
#X connect 42 0 20 0;
#X connect 43 0 34 0;
#X restore 64 142 pd arduino;
#N canvas 150 259 685 723 timing 1;
#X obj 17 19 loadbang;
#X msg 17 46 1;
#X obj 17 76 metro 30000;
#X obj 110 155 sel 0 1 30 31;
#X msg 110 191 1;
#X msg 146 220 1;
#X obj 148 192 delay 800;
#X msg 184 220 0;
#X obj 112 291 t b;
#X msg 360 232 1;
#X msg 315 231 1;
#X obj 394 206 delay 800;
#X msg 394 233 0;
#X obj 315 299 t b;
#X obj 112 326 s urnonthehour;
#X obj 315 324 s urnonthehalf;
#X obj 112 351 r urnonthehour;
#X obj 112 476 s ambientoff;
#X obj 124 376 delay 200;
#X obj 327 535 s settingNum;
#X obj 101 500 delay 300;
#X obj 315 350 r urnonthehalf;
#X obj 315 481 s ambienton;
#X obj 328 449 + 13;
#X obj 17 108 time;
#X obj 373 449 + 17;
#X obj 328 425 moses 12;
#X obj 112 265 spigot 0;
#X obj 315 268 spigot 0;
#X obj 246 263 delay 2000;
#X obj 216 476 sel 12 13;
#X msg 216 500 25;
#X msg 244 500 26;
#X obj 173 427 s numberonhour;
#X obj 435 428 s numberonhalf;
#X obj 124 401 urn 14;
#X obj 328 393 urn 16;
#X msg 101 525 0;
#X obj 101 549 s sensorsOnOff;
#X obj 17 155 sel 23 7;
#X msg 17 189 \; pd dsp 0;
#X msg 82 190 \; pd dsp 1;
#X msg 13 247 0;
#X msg 49 243 1;
#X obj 12 275 s sensorsOnOff;
#X connect 0 0 1 0;
#X connect 0 0 29 0;
#X connect 1 0 2 0;
#X connect 2 0 24 0;
#X connect 3 0 4 0;
#X connect 3 1 6 0;
#X connect 3 1 5 0;
#X connect 3 2 9 0;
#X connect 3 3 10 0;
#X connect 3 3 11 0;
#X connect 4 0 27 1;
#X connect 5 0 27 0;
#X connect 6 0 7 0;
#X connect 7 0 27 1;
#X connect 8 0 14 0;
#X connect 9 0 28 1;
#X connect 10 0 28 0;
#X connect 11 0 12 0;
#X connect 12 0 28 1;
#X connect 13 0 15 0;
#X connect 16 0 17 0;
#X connect 16 0 18 0;
#X connect 16 0 20 0;
#X connect 18 0 35 0;
#X connect 20 0 37 0;
#X connect 21 0 22 0;
#X connect 21 0 36 0;
#X connect 23 0 19 0;
#X connect 24 0 39 0;
#X connect 24 1 3 0;
#X connect 25 0 19 0;
#X connect 26 0 23 0;
#X connect 26 1 25 0;
#X connect 27 0 8 0;
#X connect 28 0 13 0;
#X connect 29 0 13 0;
#X connect 30 0 31 0;
#X connect 30 1 32 0;
#X connect 30 2 19 0;
#X connect 31 0 19 0;
#X connect 32 0 19 0;
#X connect 35 0 30 0;
#X connect 35 0 33 0;
#X connect 36 0 26 0;
#X connect 36 0 34 0;
#X connect 37 0 38 0;
#X connect 39 0 40 0;
#X connect 39 0 42 0;
#X connect 39 1 41 0;
#X connect 39 1 43 0;
#X connect 42 0 44 0;
#X connect 43 0 44 0;
#X restore 436 43 pd timing;
#X obj 376 195 r ambienton;
#X obj 450 195 r ambientoff;
#X msg 376 223 1;
#X msg 450 223 0;
#X obj 423 278 receive~ playoralout;
#N canvas 271 174 655 579 ambient 0;
#X obj 19 514 outlet~;
#X obj 82 515 outlet~;
#X obj 19 15 r settingNum;
#X obj 19 368 soundfiler;
#X obj 19 45 select 13 14 15 16 17 18 19 20 21 22 23 24;
#X msg 19 73 read -resize ./audio/ambientcar_factory.aif arrayAmb;
#X msg 39 95 read -resize ./audio/ambientfactory.aif arrayAmb;
#X msg 61 119 read -resize ./audio/marsh.aif arrayAmb;
#X msg 81 141 read -resize ./audio/night.wav arrayAmb;
#X msg 102 166 read -resize ./audio/heliocopter.aif arrayAmb;
#X msg 123 190 read -resize ./audio/waterambient2.aif arrayAmb;
#X msg 143 212 read -resize ./audio/farmersmarcket.aif arrayAmb;
#X msg 165 236 read -resize ./audio/waveslapping.aiff arrayAmb;
#X msg 185 258 read -resize ./audio/springpeepers.wav arrayAmb;
#X msg 206 283 read -resize ./audio/ambientfactory.aif arrayAmb;
#X msg 226 310 read -resize ./audio/ambientthunderdrips.aif arrayAmb
;
#X msg 247 335 read -resize ./audio/crickets.aif arrayAmb;
#X obj 19 444 tabplay~ arrayAmb;
#X obj 307 418 table arrayAmb;
#X obj 19 393 t b;
#X obj 19 419 delay 900;
#X obj 118 471 t b;
#X connect 2 0 4 0;
#X connect 3 0 19 0;
#X connect 4 0 5 0;
#X connect 4 1 6 0;
#X connect 4 2 7 0;
#X connect 4 3 8 0;
#X connect 4 4 9 0;
#X connect 4 5 10 0;
#X connect 4 6 11 0;
#X connect 4 7 12 0;
#X connect 4 8 13 0;
#X connect 4 9 14 0;
#X connect 4 10 15 0;
#X connect 4 11 16 0;
#X connect 5 0 3 0;
#X connect 6 0 3 0;
#X connect 7 0 3 0;
#X connect 8 0 3 0;
#X connect 9 0 3 0;
#X connect 10 0 3 0;
#X connect 11 0 3 0;
#X connect 12 0 3 0;
#X connect 13 0 3 0;
#X connect 14 0 3 0;
#X connect 15 0 3 0;
#X connect 16 0 3 0;
#X connect 17 0 0 0;
#X connect 17 0 1 0;
#X connect 17 1 21 0;
#X connect 19 0 20 0;
#X connect 20 0 17 0;
#X connect 21 0 17 0;
#X restore 354 278 pd ambient;
#X obj 112 12 loadbang;
#X msg 112 52 1;
#N canvas 593 175 963 296 mute 0;
#X obj 148 70 *~;
#X obj 146 -37 inlet~;
#X obj 221 75 *~;
#X obj 219 -32 inlet~;
#X obj 316 -43 inlet;
#X obj 219 112 outlet~;
#X obj 145 112 outlet~;
#X connect 0 0 6 0;
#X connect 1 0 0 0;
#X connect 2 0 5 0;
#X connect 3 0 2 0;
#X connect 4 0 2 1;
#X connect 4 0 0 1;
#X restore 133 343 pd mute;
#N canvas 0 28 450 300 mute 0;
#X obj 148 70 *~;
#X obj 146 -37 inlet~;
#X obj 221 75 *~;
#X obj 219 -32 inlet~;
#X obj 316 -43 inlet;
#X obj 219 112 outlet~;
#X obj 145 112 outlet~;
#X connect 0 0 6 0;
#X connect 1 0 0 0;
#X connect 2 0 5 0;
#X connect 3 0 2 0;
#X connect 4 0 2 1;
#X connect 4 0 0 1;
#X restore 210 340 pd mute;
#N canvas 0 22 450 300 mute 0;
#X obj 148 70 *~;
#X obj 146 -37 inlet~;
#X obj 221 75 *~;
#X obj 219 -32 inlet~;
#X obj 316 -43 inlet;
#X obj 219 112 outlet~;
#X obj 145 112 outlet~;
#X connect 0 0 6 0;
#X connect 1 0 0 0;
#X connect 2 0 5 0;
#X connect 3 0 2 0;
#X connect 4 0 2 1;
#X connect 4 0 0 1;
#X restore 280 340 pd mute;
#X obj 155 261 tgl 15 0 empty empty empty 17 7 0 10 -262144 -1 -1 0
1;
#X obj 301 261 tgl 15 0 empty empty empty 17 7 0 10 -262144 -1 -1 0
1;
#X obj 225 261 tgl 15 0 empty empty empty 17 7 0 10 -262144 -1 -1 0
1;
#X obj 436 73 r settingNum;
#X floatatom 436 103 5 0 0 0 - - -;
#X msg 272 42 5;
#X msg 213 42 1;
#X msg 245 42 2;
#X msg 300 42 16;
#X obj 65 373 dac~ 1 2 3 4 5 6;
#N canvas 0 55 210 227 mute 0;
#X obj 27 73 *~;
#X obj 26 -27 inlet~;
#X obj 86 73 *~;
#X obj 85 -28 inlet~;
#X obj 136 -28 inlet;
#X obj 85 116 outlet~;
#X obj 26 115 outlet~;
#X connect 0 0 6 0;
#X connect 1 0 0 0;
#X connect 2 0 5 0;
#X connect 3 0 2 0;
#X connect 4 0 2 1;
#X connect 4 0 0 1;
#X restore 423 341 pd mute;
#X obj 461 258 tgl 15 0 empty empty empty 17 7 0 10 -262144 -1 -1 1
1;
#X obj 134 278 playgroove4;
#N canvas 719 24 963 296 mute 0;
#X obj 148 70 *~;
#X obj 146 -37 inlet~;
#X obj 221 75 *~;
#X obj 219 -32 inlet~;
#X obj 316 -43 inlet;
#X obj 219 112 outlet~;
#X obj 145 112 outlet~;
#X connect 0 0 6 0;
#X connect 1 0 0 0;
#X connect 2 0 5 0;
#X connect 3 0 2 0;
#X connect 4 0 2 1;
#X connect 4 0 0 1;
#X restore 64 339 pd mute;
#X obj 78 261 tgl 15 0 empty empty empty 17 7 0 10 -262144 -1 -1 0
1;
#N canvas 0 28 450 300 mute 0;
#X obj 148 70 *~;
#X obj 146 -37 inlet~;
#X obj 221 75 *~;
#X obj 219 -32 inlet~;
#X obj 316 -43 inlet;
#X obj 219 112 outlet~;
#X obj 145 112 outlet~;
#X connect 0 0 6 0;
#X connect 1 0 0 0;
#X connect 2 0 5 0;
#X connect 3 0 2 0;
#X connect 4 0 2 1;
#X connect 4 0 0 1;
#X restore 355 341 pd mute;
#X obj 376 259 tgl 15 0 empty empty empty 17 7 0 10 -262144 -1 -1 0
1;
#X obj 210 278 playgrain5;
#X msg 375 26 24;
#X obj 281 278 playgroove0;
#X msg 27 29 \; pd dsp 1;
#X obj 27 6 del 100;
#X connect 0 0 11 0;
#X connect 2 0 37 0;
#X connect 2 1 37 1;
#X connect 4 0 8 0;
#X connect 9 0 38 0;
#X connect 9 0 24 0;
#X connect 9 0 26 0;
#X connect 9 0 25 0;
#X connect 9 0 0 0;
#X connect 11 0 2 0;
#X connect 11 0 1 0;
#X connect 11 1 36 0;
#X connect 11 1 5 0;
#X connect 11 2 6 0;
#X connect 11 2 41 0;
#X connect 11 3 7 0;
#X connect 11 3 43 0;
#X connect 13 0 15 0;
#X connect 14 0 16 0;
#X connect 15 0 40 0;
#X connect 16 0 40 0;
#X connect 17 0 34 0;
#X connect 17 0 34 1;
#X connect 18 0 39 0;
#X connect 18 1 39 1;
#X connect 19 0 20 0;
#X connect 19 0 45 0;
#X connect 20 0 11 0;
#X connect 20 0 8 0;
#X connect 20 0 35 0;
#X connect 21 0 33 0;
#X connect 21 1 33 1;
#X connect 22 0 33 0;
#X connect 22 1 33 1;
#X connect 23 0 33 0;
#X connect 23 1 33 1;
#X connect 24 0 21 2;
#X connect 24 0 11 3;
#X connect 25 0 23 2;
#X connect 25 0 11 5;
#X connect 26 0 22 2;
#X connect 26 0 11 4;
#X connect 27 0 28 0;
#X connect 29 0 10 0;
#X connect 30 0 10 0;
#X connect 31 0 10 0;
#X connect 32 0 10 0;
#X connect 34 0 33 0;
#X connect 34 1 33 1;
#X connect 35 0 34 2;
#X connect 36 0 21 0;
#X connect 36 1 21 1;
#X connect 37 0 33 0;
#X connect 37 1 33 1;
#X connect 38 0 37 2;
#X connect 38 0 11 2;
#X connect 39 0 33 0;
#X connect 39 1 33 1;
#X connect 40 0 39 2;
#X connect 41 0 22 0;
#X connect 41 1 22 1;
#X connect 42 0 10 0;
#X connect 43 0 23 0;
#X connect 43 1 23 1;
#X connect 45 0 44 0;
