#N canvas 586 126 553 530 10;
#X obj 76 413 outlet~;
#X obj 145 87 * 50;
#X obj 145 33 receive locationC;
#X obj 145 115 * 44.1;
#X text 187 110 (samps to ms conversion);
#X obj 166 55 receive grainsizemult;
#X obj 374 52 receive pitchrandmult;
#X obj 169 283 * 0.1;
#X msg 209 92 50;
#X msg 227 250 0.1;
#X obj 169 250 random 1;
#X obj 169 224 metro 30;
#X obj 169 179 loadbang;
#X msg 169 202 1;
#X obj 76 386 grainstretch;
#X obj 34 290 tabplay~ array5;
#X obj 313 200 soundfiler;
#X obj 382 200 table array5;
#X msg 145 144 sequence \$1;
#X msg 34 264 1;
#X obj 121 317 t b;
#X obj 181 428 dac~ 1 2;
#X floatatom 35 65 5 0 0 0 - - -;
#X msg 313 174 read -resize audio/foghorn2.aiff array5;
#X connect 1 0 3 0;
#X connect 2 0 1 0;
#X connect 2 0 10 1;
#X connect 3 0 18 0;
#X connect 5 0 1 1;
#X connect 6 0 7 1;
#X connect 8 0 1 1;
#X connect 9 0 7 1;
#X connect 10 0 7 0;
#X connect 11 0 10 0;
#X connect 12 0 13 0;
#X connect 13 0 11 0;
#X connect 14 0 0 0;
#X connect 14 0 21 0;
#X connect 14 0 21 1;
#X connect 15 0 14 0;
#X connect 15 1 20 0;
#X connect 18 0 14 1;
#X connect 19 0 15 0;
#X connect 20 0 19 0;
#X connect 22 0 1 0;
#X connect 23 0 16 0;
