#N canvas 73 95 595 716 10;
#X obj 202 207 phasor~;
#X obj 203 316 expr~ tanh($v1*$v2);
#X obj 203 294 cos~;
#X obj 203 275 *~ 0.5;
#X obj 203 254 -~ 0.5;
#X obj 54 300 *~;
#X obj 55 324 +~;
#X obj 165 456 *~;
#X obj 288 182 *;
#X obj 288 223 line~;
#X obj 288 246 samphold~;
#X obj 352 56 line;
#X obj 352 78 t f b;
#X obj 379 110 random 127;
#X obj 379 131 / 127;
#X obj 352 156 +;
#X obj 288 202 clip 0 1;
#X msg 257 104 1000;
#X obj 257 133 /;
#X obj 257 82 t b f;
#X obj 70 202 * 44.1;
#X msg 352 33 0 \, 1 5000;
#X obj 332 293 sig~ 2;
#X obj 36 460 *~;
#X obj 54 346 clip~ 0 1;
#X obj 338 465 samphold~;
#X obj 339 367 noise~;
#X obj 338 487 *~ -1;
#X obj 339 436 *~;
#X obj 337 515 +~ 1;
#X obj 164 561 *~;
#X obj 36 565 *~;
#X obj 338 392 lop~;
#X obj 70 274 * 1;
#X obj 70 250 f;
#X obj 123 222 t b f;
#X obj 37 618 outlet~;
#X obj 163 612 outlet~;
#X obj 51 519 *~;
#X obj 395 366 * 20000;
#X obj 410 404 * -1;
#X obj 410 431 + 1;
#X obj 354 568 *~;
#X obj 202 475 *~;
#X obj 248 472 *~;
#X obj 204 435 sig~ 1;
#X msg 564 76 seed \$1;
#N canvas 0 0 879 504 seeder 0;
#X obj 363 99 adc~;
#X obj 318 213 +~;
#X obj 319 100 noise~;
#X obj 319 241 env~;
#X obj 318 142 *~;
#X obj 362 141 *~ 200;
#X obj 319 171 *~ 0.01;
#X obj 293 265 f;
#X obj 345 41 inlet;
#X obj 314 78 t b b b b;
#X obj 496 192 switch~;
#X msg 453 125 1;
#X obj 295 316 outlet;
#X msg 427 158 0;
#X connect 0 0 5 0;
#X connect 0 1 5 0;
#X connect 1 0 3 0;
#X connect 2 0 4 1;
#X connect 2 0 4 0;
#X connect 3 0 7 1;
#X connect 4 0 6 0;
#X connect 5 0 1 1;
#X connect 6 0 1 0;
#X connect 7 0 12 0;
#X connect 8 0 9 0;
#X connect 9 1 13 0;
#X connect 9 2 7 0;
#X connect 9 3 11 0;
#X connect 11 0 10 0;
#X connect 13 0 10 0;
#X restore 564 56 pd seeder;
#X obj 564 31 inlet;
#X obj 202 103 sig~;
#X obj 13 38 noise~;
#X obj 13 62 *~;
#X obj 13 113 samphold~;
#X obj 202 143 +~;
#X obj 14 137 delwrite~ \$0-grainblockdel;
#X obj 16 160 delread~ \$0-grainblockdel;
#N canvas 324 12 1746 766 delayer 0;
#X obj 199 450 *~;
#X msg 235 400 \$1 2;
#X obj 199 132 line~ 120;
#X obj 199 248 +~;
#X obj 299 77 noise~;
#X obj 199 111 r feedbackpos;
#X obj 235 378 r feedbackamount;
#X obj 161 60 inlet~;
#X obj 199 495 outlet~;
#X obj 469 460 *~;
#X msg 505 400 \$1 2;
#X obj 469 132 line~ 120;
#X obj 469 248 +~;
#X obj 469 111 r feedbackpos;
#X obj 505 378 r feedbackamount;
#X obj 589 21 r feedbackjitter;
#X obj 431 60 inlet~;
#X obj 469 505 outlet~;
#X obj 505 423 line~;
#X obj 235 423 line~;
#X obj 299 100 *~;
#X obj 300 178 samphold~;
#X obj 571 104 noise~;
#X obj 571 127 *~;
#X obj 572 169 samphold~;
#X obj 199 277 clip~ 0.02 500;
#X obj 469 277 clip~ 0.02 500;
#N canvas 0 0 450 300 jitterphasor 0;
#X obj 99 164 phasor~ 7;
#X obj 99 66 random 127;
#X obj 99 115 + 0.5;
#X obj 99 92 / 12.7;
#X obj 99 42 metro 10000;
#X obj 99 20 loadbang;
#X obj 99 189 outlet~;
#X connect 0 0 6 0;
#X connect 1 0 3 0;
#X connect 2 0 0 0;
#X connect 3 0 2 0;
#X connect 4 0 1 0;
#X connect 5 0 4 0;
#X restore 316 154 pd jitterphasor;
#N canvas 0 0 450 300 jitterphasor 0;
#X obj 99 164 phasor~ 7;
#X obj 99 66 random 127;
#X obj 99 115 + 0.5;
#X obj 99 92 / 12.7;
#X obj 99 42 metro 10000;
#X obj 99 20 loadbang;
#X obj 99 189 outlet~;
#X connect 0 0 6 0;
#X connect 1 0 3 0;
#X connect 2 0 0 0;
#X connect 3 0 2 0;
#X connect 4 0 1 0;
#X connect 5 0 4 0;
#X restore 599 146 pd jitterphasor;
#X obj 300 201 lop~ 5;
#X obj 572 192 lop~ 5;
#X obj 589 47 sig~;
#X obj 589 68 lop~ 5;
#X obj 572 211 *~;
#X obj 301 221 *~;
#X obj 160 308 delwrite~ \$0-graindelL5 500;
#X obj 201 354 vd~ \$0-graindelL5 200;
#X obj 430 309 delwrite~ \$0-graindelR5 500;
#X obj 468 353 vd~ \$0-graindelR5 200;
#X connect 0 0 8 0;
#X connect 0 0 35 0;
#X connect 1 0 19 0;
#X connect 2 0 3 0;
#X connect 3 0 25 0;
#X connect 4 0 20 0;
#X connect 4 0 20 1;
#X connect 5 0 2 0;
#X connect 6 0 1 0;
#X connect 7 0 35 0;
#X connect 9 0 17 0;
#X connect 9 0 37 0;
#X connect 10 0 18 0;
#X connect 11 0 12 0;
#X connect 12 0 26 0;
#X connect 13 0 11 0;
#X connect 14 0 10 0;
#X connect 15 0 31 0;
#X connect 16 0 37 0;
#X connect 18 0 9 1;
#X connect 19 0 0 1;
#X connect 20 0 21 0;
#X connect 21 0 29 0;
#X connect 22 0 23 0;
#X connect 22 0 23 1;
#X connect 23 0 24 0;
#X connect 24 0 30 0;
#X connect 25 0 36 0;
#X connect 26 0 38 0;
#X connect 27 0 21 1;
#X connect 28 0 24 1;
#X connect 29 0 34 0;
#X connect 30 0 33 0;
#X connect 31 0 32 0;
#X connect 32 0 33 1;
#X connect 32 0 34 1;
#X connect 33 0 12 1;
#X connect 34 0 3 1;
#X connect 36 0 0 0;
#X connect 38 0 9 0;
#X restore 60 588 pd delayer;
#X obj 36 411 tabread~ array5;
#X obj 164 408 tabread~ array5;
#X obj 29 17 r grainspeedspread5;
#X obj 257 39 r grainspeed5;
#X obj 354 16 r grainread5;
#X obj 395 324 r grainspread5;
#X obj 332 272 r grainfade5;
#X obj 123 182 r grainmultiply5;
#X obj 436 77 r grainscatter5;
#X obj 105 324 r len5;
#X obj 332 182 r len5;
#X obj 304 146 r len5;
#X connect 0 0 4 0;
#X connect 0 0 5 0;
#X connect 0 0 10 1;
#X connect 0 0 25 1;
#X connect 0 0 52 1;
#X connect 1 0 7 1;
#X connect 1 0 23 1;
#X connect 2 0 1 0;
#X connect 3 0 2 0;
#X connect 4 0 3 0;
#X connect 5 0 6 0;
#X connect 6 0 24 0;
#X connect 7 0 30 0;
#X connect 8 0 16 0;
#X connect 9 0 10 0;
#X connect 10 0 6 1;
#X connect 11 0 12 0;
#X connect 12 0 15 0;
#X connect 12 1 13 0;
#X connect 13 0 14 0;
#X connect 14 0 15 1;
#X connect 15 0 8 0;
#X connect 16 0 9 0;
#X connect 17 0 18 0;
#X connect 18 0 20 0;
#X connect 19 0 17 0;
#X connect 19 1 18 1;
#X connect 20 0 34 0;
#X connect 21 0 11 0;
#X connect 22 0 1 1;
#X connect 23 0 31 0;
#X connect 24 0 57 0;
#X connect 24 0 58 0;
#X connect 25 0 27 0;
#X connect 25 0 38 0;
#X connect 26 0 32 0;
#X connect 27 0 29 0;
#X connect 28 0 25 0;
#X connect 29 0 42 0;
#X connect 30 0 37 0;
#X connect 30 0 56 1;
#X connect 31 0 36 0;
#X connect 31 0 56 0;
#X connect 32 0 28 0;
#X connect 32 0 28 1;
#X connect 33 0 5 1;
#X connect 34 0 33 0;
#X connect 35 0 34 0;
#X connect 35 1 33 1;
#X connect 38 0 31 1;
#X connect 39 0 32 1;
#X connect 40 0 41 0;
#X connect 41 0 43 1;
#X connect 41 0 44 1;
#X connect 42 0 30 1;
#X connect 43 0 31 1;
#X connect 44 0 30 1;
#X connect 45 0 43 0;
#X connect 45 0 44 0;
#X connect 46 0 13 0;
#X connect 47 0 46 0;
#X connect 48 0 47 0;
#X connect 49 0 53 0;
#X connect 50 0 51 0;
#X connect 51 0 52 0;
#X connect 52 0 54 0;
#X connect 53 0 0 0;
#X connect 55 0 53 1;
#X connect 56 0 36 0;
#X connect 56 1 37 0;
#X connect 57 0 23 0;
#X connect 58 0 7 0;
#X connect 59 0 51 1;
#X connect 60 0 19 0;
#X connect 60 0 49 0;
#X connect 61 0 11 0;
#X connect 62 0 39 0;
#X connect 62 0 40 0;
#X connect 62 0 38 1;
#X connect 62 0 42 1;
#X connect 63 0 22 0;
#X connect 64 0 35 0;
#X connect 65 0 13 1;
#X connect 66 0 24 2;
#X connect 67 0 16 2;
#X connect 68 0 8 1;
