#N canvas 818 92 360 339 10;
#X obj 54 -101 * 0.35;
#X obj 74 -67 s gateA;
#X obj 54 -125 change;
#X floatatom 107 -101 5 0 0 0 - - -, f 5;
#X obj 54 -168 inlet;
#X obj 54 41 *~;
#X obj 111 40 *~, f 4;
#X obj 54 88 outlet~;
#X obj 111 88 outlet~;
#X obj 54 -2 playgroove;
#X obj 132 -2 r stopsensors;
#X obj 227 -1 r startsensors;
#X connect 0 0 1 0;
#X connect 0 0 9 0;
#X connect 2 0 0 0;
#X connect 2 0 3 0;
#X connect 4 0 2 0;
#X connect 5 0 7 0;
#X connect 6 0 8 0;
#X connect 9 0 5 0;
#X connect 9 1 6 0;
#X connect 10 0 5 1;
#X connect 10 0 6 1;
#X connect 11 0 6 1;
#X connect 11 0 5 1;
#X coords 0 339 1 338 85 60 0;
