#N canvas 67 23 1280 681 10;
#X obj 19 491 outlet~;
#X obj 19 466 *~;
#X msg 19 99 \$1 300;
#N canvas 270 134 1193 623 loadSamples 0;
#X obj 14 366 soundfiler;
#X msg 14 69 read -resize ./audio/water3.aif array3;
#X msg 295 66 read -resize ./audio/glass_breaking.aif array3;
#X msg 576 91 read -resize ./audio/greyston4.aif array3;
#X msg 857 96 read -resize ./audio/churchbells.aif array3;
#X obj 14 9 receive settingNum;
#X obj 14 37 select 1 2 3 4 5 6 7 8 9 10 11 12 13 14 15 16 17 18 19
20 21 22 23 24 25 26 27 28 29 30 31 32;
#X msg 646 145 read ./audio/tennis.aif array3;
#X msg 49 95 read -resize ./audio/c_ray2.aif array3;
#X msg 84 121 read -resize ./audio/pno_pluck.aif array3;
#X msg 161 178 read -resize ./audio/glass_chipping.aif array3;
#X msg 191 201 read -resize ./audio/34sL.aif array3;
#X msg 224 223 read -resize ./audio/sandwalk.aif array3;
#X msg 260 249 read -resize ./audio/2_2_4_sheddrips.wav array3;
#X msg 330 90 read -resize ./audio/trolley2.aif array3;
#X msg 364 120 read -resize ./audio/montagemachine.wav array3;
#X msg 400 147 read -resize ./audio/bridgesound1.aif array3;
#X msg 435 172 read -resize ./audio/piano_tuning.aif array3;
#X msg 471 198 read -resize ./audio/wavebangbuf2.aif array3;
#X msg 506 224 read -resize ./audio/pno_pluck.aif array3;
#X msg 541 250 read -resize ./audio/sax.aif array3;
#X msg 787 64 read -resize ./audio/bridgesound4.aif array3;
#X msg 891 144 read -resize ./audio/paintmixer.aif array3;
#X msg 822 119 read -resize ./audio/rightear15.aif array3;
#X msg 990 245 read -resize ./audio/greyston2NR.wav array3;
#X msg 972 271 read -resize ./audio/dogsbarking.aif array3;
#X msg 952 296 read -resize ./audio/badprinter.wav array3;
#X msg 926 320 read -resize ./audio/bridgesound3.aif array3;
#X msg 718 170 read -resize ./audio/motorboatecho.aif array3;
#X msg 754 196 read -resize ./audio/pigeons.aif array3;
#X msg 789 224 read -resize ./audio/bartonsifter3.aif array3;
#X msg 652 119 read -resize ./audio/night.wav array3;
#X msg 118 150 read -resize ./audio/rhythmicdrips.WAV array3;
#X obj 592 415 send ThreeToff;
#X obj 701 417 send ThreeTon;
#X obj 811 420 send ThreeVolA;
#X obj 909 420 send ThreeVolB;
#X obj 1009 420 send ThreeVolC;
#X obj 47 397 table arrayThree;
#X obj 14 429 outlet;
#X connect 0 0 39 0;
#X connect 1 0 0 0;
#X connect 2 0 0 0;
#X connect 3 0 0 0;
#X connect 4 0 0 0;
#X connect 5 0 6 0;
#X connect 6 0 1 0;
#X connect 6 0 33 0;
#X connect 6 0 35 0;
#X connect 6 1 8 0;
#X connect 6 1 34 0;
#X connect 6 1 37 0;
#X connect 6 2 9 0;
#X connect 6 2 34 0;
#X connect 6 2 35 0;
#X connect 6 3 32 0;
#X connect 6 3 34 0;
#X connect 6 3 36 0;
#X connect 6 4 10 0;
#X connect 6 4 34 0;
#X connect 6 4 37 0;
#X connect 6 5 11 0;
#X connect 6 5 33 0;
#X connect 6 5 36 0;
#X connect 6 6 12 0;
#X connect 6 6 33 0;
#X connect 6 6 37 0;
#X connect 6 7 13 0;
#X connect 6 7 34 0;
#X connect 6 7 36 0;
#X connect 6 8 2 0;
#X connect 6 8 33 0;
#X connect 6 8 37 0;
#X connect 6 9 14 0;
#X connect 6 9 34 0;
#X connect 6 9 35 0;
#X connect 6 10 15 0;
#X connect 6 10 34 0;
#X connect 6 10 36 0;
#X connect 6 11 16 0;
#X connect 6 11 34 0;
#X connect 6 11 35 0;
#X connect 6 12 17 0;
#X connect 6 12 34 0;
#X connect 6 12 36 0;
#X connect 6 13 18 0;
#X connect 6 13 33 0;
#X connect 6 13 35 0;
#X connect 6 14 19 0;
#X connect 6 14 33 0;
#X connect 6 14 35 0;
#X connect 6 15 20 0;
#X connect 6 15 33 0;
#X connect 6 15 35 0;
#X connect 6 16 3 0;
#X connect 6 16 33 0;
#X connect 6 16 37 0;
#X connect 6 17 31 0;
#X connect 6 17 33 0;
#X connect 6 17 35 0;
#X connect 6 18 7 0;
#X connect 6 18 34 0;
#X connect 6 18 36 0;
#X connect 6 19 28 0;
#X connect 6 19 33 0;
#X connect 6 19 36 0;
#X connect 6 20 29 0;
#X connect 6 20 33 0;
#X connect 6 20 35 0;
#X connect 6 21 30 0;
#X connect 6 21 33 0;
#X connect 6 21 35 0;
#X connect 6 22 21 0;
#X connect 6 22 34 0;
#X connect 6 22 36 0;
#X connect 6 23 23 0;
#X connect 6 23 33 0;
#X connect 6 23 36 0;
#X connect 6 24 4 0;
#X connect 6 24 34 0;
#X connect 6 24 35 0;
#X connect 6 25 22 0;
#X connect 6 25 33 0;
#X connect 6 25 36 0;
#X connect 6 28 27 0;
#X connect 6 28 33 0;
#X connect 6 28 36 0;
#X connect 6 29 26 0;
#X connect 6 29 33 0;
#X connect 6 29 35 0;
#X connect 6 30 25 0;
#X connect 6 30 34 0;
#X connect 6 30 36 0;
#X connect 6 31 24 0;
#X connect 6 31 34 0;
#X connect 6 31 36 0;
#X connect 7 0 0 0;
#X connect 8 0 0 0;
#X connect 9 0 0 0;
#X connect 10 0 0 0;
#X connect 11 0 0 0;
#X connect 12 0 0 0;
#X connect 13 0 0 0;
#X connect 14 0 0 0;
#X connect 15 0 0 0;
#X connect 16 0 0 0;
#X connect 17 0 0 0;
#X connect 18 0 0 0;
#X connect 19 0 0 0;
#X connect 20 0 0 0;
#X connect 21 0 0 0;
#X connect 22 0 0 0;
#X connect 23 0 0 0;
#X connect 24 0 0 0;
#X connect 25 0 0 0;
#X connect 26 0 0 0;
#X connect 27 0 0 0;
#X connect 28 0 0 0;
#X connect 29 0 0 0;
#X connect 30 0 0 0;
#X connect 31 0 0 0;
#X connect 32 0 0 0;
#X restore 83 182 pd loadSamples;
#X obj 118 490 outlet~;
#X obj 118 466 *~;
#X obj 19 46 r sOne;
#X obj 19 73 change;
#X obj 19 123 line~;
#X obj 19 146 *~ 0.045;
#X obj 132 368 *~;
#X obj 295 337 *~;
#X obj 402 311 *~ 0.015;
#X obj 295 279 * 25;
#X obj 132 398 delwrite~ tapThree 1000;
#X msg 147 303 0;
#X msg 222 300 1;
#X obj 295 310 vd~ tapThree 800;
#X obj 147 278 r ThreeToff;
#X obj 222 278 r ThreeTon;
#X obj 19 288 *~;
#X obj 19 228 sig~;
#X obj 19 258 phasor~;
#X obj 19 202 *~;
#X obj 83 268 /;
#X obj 83 212 t b f;
#X msg 83 239 44100;
#X obj -241 389 loadbang;
#X msg -58 437 1;
#X msg -221 440 1.15;
#X msg -140 437 1.25;
#X msg -24 437 0.9;
#X msg -102 437 1.12;
#X msg -184 440 1.02;
#X obj -222 409 r ThreeVolB;
#X obj -58 409 r ThreeVolA;
#X obj -140 409 r ThreeVolC;
#X obj 19 314 tabread~ arrayThree;
#X connect 1 0 0 0;
#X connect 2 0 8 0;
#X connect 3 0 20 1;
#X connect 3 0 25 0;
#X connect 5 0 4 0;
#X connect 6 0 7 0;
#X connect 7 0 2 0;
#X connect 7 0 13 0;
#X connect 7 0 12 0;
#X connect 8 0 9 0;
#X connect 9 0 23 0;
#X connect 10 0 14 0;
#X connect 11 0 14 0;
#X connect 12 0 11 1;
#X connect 13 0 17 0;
#X connect 15 0 10 1;
#X connect 16 0 10 1;
#X connect 17 0 11 0;
#X connect 17 0 5 0;
#X connect 18 0 15 0;
#X connect 19 0 16 0;
#X connect 20 0 37 0;
#X connect 21 0 22 0;
#X connect 22 0 20 0;
#X connect 23 0 21 0;
#X connect 24 0 23 1;
#X connect 25 0 26 0;
#X connect 25 1 24 1;
#X connect 26 0 24 0;
#X connect 27 0 29 0;
#X connect 27 0 33 0;
#X connect 28 0 1 1;
#X connect 29 0 1 1;
#X connect 30 0 1 1;
#X connect 31 0 5 1;
#X connect 32 0 5 1;
#X connect 33 0 5 1;
#X connect 34 0 29 0;
#X connect 34 0 33 0;
#X connect 35 0 28 0;
#X connect 35 0 31 0;
#X connect 36 0 30 0;
#X connect 36 0 32 0;
#X connect 37 0 1 0;
#X connect 37 0 10 0;
